<?xml version="1.0" encoding="UTF-8" standalone="no"?>
<svg width="41px" height="41px" viewBox="0 0 41 41" version="1.1" xmlns="http://www.w3.org/2000/svg" xmlns:xlink="http://www.w3.org/1999/xlink">
    <!-- Generator: Sketch 3.7 (28169) - http://www.bohemiancoding.com/sketch -->
    <title>Facebook_11_</title>
    <desc>Created with Sketch.</desc>
    <defs></defs>
    <g id="Page-1" stroke="none" stroke-width="1" fill="none" fill-rule="evenodd">
        <path d="M40.8,38.5 C40.8,39.7 39.8,40.7 38.6,40.7 L28.1,40.7 L28.1,25 L33.4,25 L34.2,18.9 L28.1,18.9 L28.1,15 C28.1,13.2 28.6,12 31.1,12 L34.4,12 L34.4,6.4 C33.8,6.3 31.9,6.2 29.7,6.2 C25,6.2 21.8,9.1 21.8,14.3 L21.8,18.8 L16.5,18.8 L16.5,25 L21.8,25 L21.8,40.8 L2.2,40.8 C1,40.8 0,39.8 0,38.6 L0,2.2 C0,1 1,0 2.2,0 L38.5,0 C39.7,0 40.7,1 40.7,2.2 L40.7,38.5 L40.8,38.5 Z" id="Facebook_11_" fill="#FFFFFF"></path>
    </g>
</svg>