<?xml version="1.0" encoding="UTF-8" standalone="no"?>
<svg width="41px" height="41px" viewBox="0 0 41 41" version="1.1" xmlns="http://www.w3.org/2000/svg" xmlns:xlink="http://www.w3.org/1999/xlink">
    <!-- Generator: Sketch 3.7 (28169) - http://www.bohemiancoding.com/sketch -->
    <title>Instagram_11_</title>
    <desc>Created with Sketch.</desc>
    <defs></defs>
    <g id="Page-1" stroke="none" stroke-width="1" fill="none" fill-rule="evenodd">
        <path d="M35.9,0 L4.9,0 C2.2,0 0,2.2 0,4.8 L0,35.8 C0,38.5 2.2,40.6 4.8,40.6 L35.8,40.6 C38.5,40.6 40.6,38.4 40.6,35.8 L40.6,4.8 C40.7,2.2 38.5,0 35.9,0 L35.9,0 Z M29.3,6.4 C29.3,5.7 29.9,5.1 30.6,5.1 L34.4,5.1 C35.1,5.1 35.7,5.7 35.7,6.4 L35.7,10.2 C35.7,10.9 35.1,11.5 34.4,11.5 L30.6,11.5 C29.9,11.5 29.3,10.9 29.3,10.2 L29.3,6.4 L29.3,6.4 Z M20.4,12.6 C24.7,12.6 28.2,16.1 28.2,20.4 C28.2,24.7 24.7,28.2 20.4,28.2 C16.1,28.2 12.6,24.7 12.6,20.4 C12.6,16.1 16.1,12.6 20.4,12.6 L20.4,12.6 Z M36.9,35.6 C36.9,36.3 36.3,36.9 35.6,36.9 L5.1,36.9 C4.4,36.9 3.8,36.3 3.8,35.6 L3.8,16.5 L8.9,16.5 C8.2,17.5 8,19.2 8,20.4 C8,27.2 13.6,32.8 20.4,32.8 C27.2,32.8 32.8,27.3 32.8,20.4 C32.8,19.3 32.6,17.5 31.8,16.5 L36.9,16.5 L36.9,35.6 L36.9,35.6 Z" id="Instagram_11_" fill="#FFFFFF"></path>
    </g>
</svg>