<?xml version="1.0" encoding="UTF-8" standalone="no"?>
<svg width="371px" height="309px" viewBox="0 0 371 309" version="1.1" xmlns="http://www.w3.org/2000/svg" xmlns:xlink="http://www.w3.org/1999/xlink">
    <!-- Generator: Sketch 3.7 (28169) - http://www.bohemiancoding.com/sketch -->
    <title>Twitter_11_</title>
    <desc>Created with Sketch.</desc>
    <defs></defs>
    <g id="Page-1" stroke="none" stroke-width="1" fill="none" fill-rule="evenodd">
        <path d="M359.9,5.7 C345.2,14.6 329,21.1 311.6,24.6 C297.9,9.4 278.1,0 256.2,0 C214.3,0 180.3,34.9 180.3,77.9 C180.3,84 181,89.9 182.3,95.6 C119.2,92.3 63.2,61.4 25.8,14.2 C19.3,25.7 15.5,39.1 15.5,53.4 C15.5,80.4 28.9,104.2 49.3,118.2 C36.9,117.8 25.1,114.3 14.9,108.5 L14.9,109.5 C14.9,147.2 41.1,178.7 75.8,185.8 C69.4,187.6 62.7,188.5 55.8,188.5 C50.9,188.5 46.1,188 41.5,187.1 C51.2,218 79.2,240.5 112.4,241.1 C86.4,262 53.7,274.5 18.1,274.5 C12,274.5 5.9,274.1 7.10542736e-15,273.4 C33.6,295.5 73.5,308.4 116.4,308.4 C256.1,308.4 332.5,189.8 332.5,86.9 C332.5,83.5 332.4,80.1 332.3,76.8 C347.1,65.8 360,52.1 370.2,36.5 C356.6,42.7 342,46.9 326.6,48.8 C342.2,39.1 354.3,23.9 359.9,5.7 L359.9,5.7 Z" id="Twitter_11_" fill="#FFFFFF"></path>
    </g>
</svg>