<?xml version="1.0" encoding="UTF-8" standalone="no"?>
<svg width="41px" height="35px" viewBox="0 0 41 35" version="1.1" xmlns="http://www.w3.org/2000/svg" xmlns:xlink="http://www.w3.org/1999/xlink">
    <!-- Generator: Sketch 3.7 (28169) - http://www.bohemiancoding.com/sketch -->
    <title>Vimeo_11_</title>
    <desc>Created with Sketch.</desc>
    <defs></defs>
    <g id="Page-1" stroke="none" stroke-width="1" fill="none" fill-rule="evenodd">
        <path d="M34.7,0 C29.1,-0.2 25.3,3 23.3,9.4 C24.3,9 25.3,8.8 26.3,8.8 C28.4,8.8 29.3,9.9 29,12.2 C28.9,13.6 28,15.6 26.3,18.3 C24.6,20.9 23.3,22.3 22.5,22.3 C21.4,22.3 20.4,20.3 19.5,16.2 C19.2,15 18.6,11.9 17.9,7 C17.2,2.4 15.2,0.3 12.1,0.6 C10.8,0.7 8.8,1.9 6.1,4.2 C4,5.8 2,7.6 0,9.3 L1.9,11.7 C3.7,10.4 4.8,9.8 5.1,9.8 C6.5,9.8 7.8,12 9,16.3 C10.1,20.3 11.2,24.2 12.3,28.2 C13.9,32.5 15.9,34.7 18.3,34.7 C22.1,34.7 26.8,31.2 32.3,24 C37.7,17.3 40.5,12 40.7,8 C40.9,2.8 38.9,0.1 34.7,0 L34.7,0 Z" id="Vimeo_11_" fill="#FFFFFF"></path>
    </g>
</svg>