<svg id="Layer_1" data-name="Layer 1" xmlns="http://www.w3.org/2000/svg" viewBox="0 0 605 132"><defs><style>.cls-1{opacity:0.25;}.cls-2{fill:#281e35;}.cls-3{fill:#2071ff;}.cls-4{fill:#ff3250;}.cls-5{fill:#f2c227;}.cls-6{fill:#f9f4d8;}.cls-7{fill:#9cf;}.cls-8{fill:#f59698;}</style></defs><title>home_graphic</title><g class="cls-1"><ellipse class="cls-2" cx="510.14" cy="76.81" rx="17.62" ry="10.17"/><path class="cls-2" d="M510.14,88.48c-10.73,0-19.13-5.13-19.13-11.67s8.4-11.68,19.13-11.68,19.12,5.13,19.12,11.68S520.86,88.48,510.14,88.48Zm0-20.35c-8.74,0-16.13,4-16.13,8.68s7.39,8.67,16.13,8.67,16.12-4,16.12-8.67S518.88,68.13,510.14,68.13Z"/></g><circle class="cls-3" cx="504.24" cy="63.9" r="17.62"/><path class="cls-2" d="M504.24,83A19.12,19.12,0,1,1,523.36,63.9,19.13,19.13,0,0,1,504.24,83Zm0-35.24A16.12,16.12,0,1,0,520.36,63.9,16.14,16.14,0,0,0,504.24,47.78Z"/><g class="cls-1"><ellipse class="cls-2" cx="201.76" cy="108.59" rx="17.62" ry="10.17"/><path class="cls-2" d="M201.76,120.27c-10.72,0-19.12-5.13-19.12-11.68s8.4-11.67,19.12-11.67,19.12,5.13,19.12,11.67S212.48,120.27,201.76,120.27Zm0-20.35c-8.74,0-16.12,4-16.12,8.67s7.38,8.68,16.12,8.68,16.12-4,16.12-8.68S210.5,99.92,201.76,99.92Z"/></g><circle class="cls-4" cx="195.86" cy="95.69" r="17.62"/><path class="cls-2" d="M195.86,114.81A19.12,19.12,0,1,1,215,95.69,19.15,19.15,0,0,1,195.86,114.81Zm0-35.24A16.12,16.12,0,1,0,212,95.69,16.14,16.14,0,0,0,195.86,79.57Z"/><g class="cls-1"><ellipse class="cls-2" cx="424.01" cy="78.9" rx="17.62" ry="10.17"/><path class="cls-2" d="M424,90.58c-10.73,0-19.13-5.13-19.13-11.68s8.4-11.67,19.13-11.67,19.12,5.13,19.12,11.67S434.73,90.58,424,90.58Zm0-20.35c-8.74,0-16.13,4-16.13,8.67s7.39,8.68,16.13,8.68,16.12-4,16.12-8.68S432.75,70.23,424,70.23Z"/></g><ellipse class="cls-5" cx="416.64" cy="74.04" rx="17.62" ry="10.17"/><path class="cls-2" d="M416.64,85.72c-10.73,0-19.13-5.13-19.13-11.68s8.4-11.67,19.13-11.67S435.76,67.5,435.76,74,427.36,85.72,416.64,85.72Zm0-20.35c-8.74,0-16.13,4-16.13,8.67s7.39,8.68,16.13,8.68,16.12-4,16.12-8.68S425.38,65.37,416.64,65.37Z"/><polyline class="cls-5" points="434.26 74.04 434.26 20.74 399.01 20.74 399.01 74.04"/><path class="cls-2" d="M434.26,75.54a1.5,1.5,0,0,1-1.5-1.5V22.24H400.51V74a1.5,1.5,0,1,1-3,0V20.74a1.5,1.5,0,0,1,1.5-1.5h35.25a1.5,1.5,0,0,1,1.5,1.5V74A1.5,1.5,0,0,1,434.26,75.54Z"/><ellipse class="cls-6" cx="416.64" cy="19.11" rx="17.62" ry="10.17"/><path class="cls-2" d="M416.64,30.78c-10.73,0-19.13-5.13-19.13-11.67s8.4-11.68,19.13-11.68,19.12,5.13,19.12,11.68S427.36,30.78,416.64,30.78Zm0-20.35c-8.74,0-16.13,4-16.13,8.68s7.39,8.67,16.13,8.67,16.12-4,16.12-8.67S425.38,10.43,416.64,10.43Z"/><g class="cls-1"><polygon class="cls-2" points="462.87 85.37 498.11 105.72 462.87 126.07 427.62 105.72 462.87 85.37"/><path class="cls-2" d="M462.87,127.57a1.53,1.53,0,0,1-.75-.2L426.87,107a1.5,1.5,0,0,1,0-2.6l35.25-20.35a1.49,1.49,0,0,1,1.5,0l35.24,20.35a1.5,1.5,0,0,1,0,2.6l-35.24,20.35A1.53,1.53,0,0,1,462.87,127.57Zm-32.25-21.85,32.25,18.61,32.24-18.61L462.87,87.1Z"/></g><polygon class="cls-3" points="444.19 74.66 408.95 54.31 408.95 95.01 444.19 115.36 479.44 95.01 479.44 54.31 444.19 74.66"/><path class="cls-2" d="M444.19,116.86a1.56,1.56,0,0,1-.75-.2L408.2,96.31a1.49,1.49,0,0,1-.75-1.3V54.31A1.47,1.47,0,0,1,408.2,53a1.49,1.49,0,0,1,1.5,0l34.49,19.91L478.69,53a1.5,1.5,0,0,1,2.25,1.29V95a1.51,1.51,0,0,1-.75,1.3l-35.25,20.35A1.53,1.53,0,0,1,444.19,116.86ZM410.45,94.15l33.74,19.48,33.75-19.48V56.91l-33,19a1.49,1.49,0,0,1-1.5,0l-33-19Z"/><polygon class="cls-7" points="444.19 33.97 479.44 54.31 444.19 74.66 408.95 54.31 444.19 33.97"/><path class="cls-2" d="M444.19,76.16a1.46,1.46,0,0,1-.75-.2L408.2,55.61a1.49,1.49,0,0,1,0-2.59l35.24-20.35a1.49,1.49,0,0,1,1.5,0L480.19,53a1.49,1.49,0,0,1,0,2.59L444.94,76A1.43,1.43,0,0,1,444.19,76.16ZM412,54.31l32.24,18.62,32.25-18.62L444.19,35.7Z"/><g class="cls-1"><ellipse class="cls-2" cx="496.94" cy="110.05" rx="17.62" ry="10.17"/><path class="cls-2" d="M496.94,121.72c-10.73,0-19.13-5.13-19.13-11.67s8.4-11.68,19.13-11.68,19.12,5.13,19.12,11.68S507.66,121.72,496.94,121.72Zm0-20.35c-8.74,0-16.13,4-16.13,8.68s7.39,8.67,16.13,8.67,16.12-4,16.12-8.67S505.68,101.37,496.94,101.37Z"/></g><ellipse class="cls-5" cx="489.57" cy="105.19" rx="17.62" ry="10.17"/><path class="cls-2" d="M489.57,116.86c-10.73,0-19.13-5.13-19.13-11.67s8.4-11.68,19.13-11.68,19.12,5.13,19.12,11.68S500.29,116.86,489.57,116.86Zm0-20.35c-8.74,0-16.13,4-16.13,8.68s7.39,8.67,16.13,8.67,16.12-4,16.12-8.67S498.3,96.51,489.57,96.51Z"/><polyline class="cls-5" points="507.19 105.19 507.19 84.84 471.94 84.84 471.94 105.19"/><path class="cls-2" d="M507.19,106.69a1.5,1.5,0,0,1-1.5-1.5V86.34H473.44v18.85a1.5,1.5,0,0,1-3,0V84.84a1.5,1.5,0,0,1,1.5-1.5h35.25a1.5,1.5,0,0,1,1.5,1.5v20.35A1.5,1.5,0,0,1,507.19,106.69Z"/><ellipse class="cls-6" cx="489.57" cy="84.84" rx="17.62" ry="10.17"/><path class="cls-2" d="M489.57,96.51c-10.73,0-19.13-5.13-19.13-11.67s8.4-11.68,19.13-11.68,19.12,5.13,19.12,11.68S500.29,96.51,489.57,96.51Zm0-20.35c-8.74,0-16.13,4-16.13,8.68s7.39,8.67,16.13,8.67,16.12-4,16.12-8.67S498.3,76.16,489.57,76.16Z"/><g class="cls-1"><polygon class="cls-2" points="461.69 44.15 479.31 54.32 461.69 64.49 444.07 54.32 461.69 44.15"/><path class="cls-2" d="M461.69,66a1.43,1.43,0,0,1-.75-.2L443.32,55.62a1.5,1.5,0,0,1,0-2.6l17.62-10.17a1.49,1.49,0,0,1,1.5,0L480.06,53a1.5,1.5,0,0,1,0,2.6L462.44,65.79A1.43,1.43,0,0,1,461.69,66ZM447.07,54.32l14.62,8.44,14.62-8.44-14.62-8.44Z"/></g><polygon class="cls-4" points="452.35 38.79 434.73 28.62 434.73 48.97 452.35 59.14 469.98 48.97 469.98 28.62 452.35 38.79"/><path class="cls-2" d="M452.35,60.64a1.59,1.59,0,0,1-.75-.2L434,50.27a1.52,1.52,0,0,1-.75-1.3V28.62a1.51,1.51,0,0,1,.75-1.3,1.49,1.49,0,0,1,1.5,0l16.87,9.74,16.88-9.74a1.49,1.49,0,0,1,1.5,0,1.51,1.51,0,0,1,.75,1.3V49a1.52,1.52,0,0,1-.75,1.3L453.1,60.44A1.53,1.53,0,0,1,452.35,60.64ZM436.23,48.1l16.12,9.31,16.13-9.31V31.22L453.1,40.09a1.49,1.49,0,0,1-1.5,0l-15.37-8.87Z"/><polygon class="cls-8" points="452.35 18.44 469.98 28.62 452.35 38.79 434.73 28.62 452.35 18.44"/><path class="cls-2" d="M452.35,40.29a1.48,1.48,0,0,1-.75-.2L434,29.92a1.5,1.5,0,0,1,0-2.6L451.6,17.15a1.49,1.49,0,0,1,1.5,0l17.63,10.17a1.5,1.5,0,0,1,0,2.6L453.1,40.09A1.43,1.43,0,0,1,452.35,40.29ZM437.73,28.62l14.62,8.44L467,28.62l-14.63-8.44Z"/><g class="cls-1"><polygon class="cls-2" points="297.01 64.49 314.64 74.67 297.01 84.84 279.39 74.67 297.01 64.49"/><path class="cls-2" d="M297,86.34a1.48,1.48,0,0,1-.75-.2L278.64,76a1.5,1.5,0,0,1,0-2.6l17.62-10.18a1.54,1.54,0,0,1,1.5,0l17.63,10.18a1.5,1.5,0,0,1,0,2.6L297.76,86.14A1.43,1.43,0,0,1,297,86.34ZM282.39,74.67,297,83.11l14.63-8.44L297,66.23Z"/></g><polygon class="cls-5" points="287.68 59.14 270.06 48.97 270.06 69.32 287.68 79.49 305.3 69.32 305.3 48.97 287.68 59.14"/><path class="cls-2" d="M287.68,81a1.53,1.53,0,0,1-.75-.2L269.3,70.61a1.49,1.49,0,0,1-.75-1.29V49a1.51,1.51,0,0,1,.75-1.3,1.49,1.49,0,0,1,1.5,0l16.88,9.74,16.87-9.74a1.49,1.49,0,0,1,1.5,0,1.51,1.51,0,0,1,.75,1.3V69.32a1.49,1.49,0,0,1-.75,1.29L288.43,80.79A1.53,1.53,0,0,1,287.68,81ZM271.55,68.45l16.13,9.31,16.12-9.31V51.57l-15.37,8.87a1.49,1.49,0,0,1-1.5,0l-15.38-8.87Z"/><polygon class="cls-6" points="287.68 38.79 305.3 48.97 287.68 59.14 270.06 48.97 287.68 38.79"/><path class="cls-2" d="M287.68,60.64a1.53,1.53,0,0,1-.75-.2L269.3,50.27a1.5,1.5,0,0,1,0-2.6l17.63-10.18a1.54,1.54,0,0,1,1.5,0l17.62,10.18a1.5,1.5,0,0,1,0,2.6L288.43,60.44A1.53,1.53,0,0,1,287.68,60.64ZM273.05,49l14.63,8.44L302.3,49l-14.62-8.45Z"/><g class="cls-1"><polyline class="cls-2" points="396.56 104.96 405.38 120.22 370.13 113.77"/><path class="cls-2" d="M405.38,121.72l-.27,0-35.25-6.45a1.5,1.5,0,0,1,.54-3l32.06,5.87-7.19-12.45a1.5,1.5,0,1,1,2.59-1.5l8.82,15.26a1.49,1.49,0,0,1-1.3,2.25Z"/></g><path class="cls-4" d="M361.31,104.69l17.62-30.52,17.63,30.52h0c0,5.62-7.89,10.17-17.63,10.17s-17.62-4.55-17.62-10.17Z"/><path class="cls-2" d="M378.93,116.36c-10.72,0-19.12-5.12-19.12-11.67a1.53,1.53,0,0,1,.2-.75l17.62-30.52a1.5,1.5,0,0,1,1.3-.75h0a1.49,1.49,0,0,1,1.3.75l17.62,30.52a1.44,1.44,0,0,1,.21.75C398.06,111.24,389.66,116.36,378.93,116.36Zm-16.1-11.3c.38,4.54,7.6,8.3,16.1,8.3s15.73-3.76,16.11-8.3L378.93,77.17Z"/><g class="cls-1"><polyline class="cls-2" points="122.56 88.67 131.38 103.93 96.13 97.48"/><path class="cls-2" d="M131.38,105.43l-.27,0L95.86,99a1.5,1.5,0,0,1,.54-3l32.06,5.87-7.19-12.45a1.5,1.5,0,1,1,2.59-1.5l8.82,15.26a1.5,1.5,0,0,1-1.3,2.25Z"/></g><path class="cls-3" d="M87.31,88.4l17.62-30.53L122.56,88.4h0c0,5.62-7.89,10.17-17.63,10.17S87.31,94,87.31,88.4Z"/><path class="cls-2" d="M104.93,100.07c-10.72,0-19.12-5.13-19.12-11.67a1.5,1.5,0,0,1,.2-.75l17.62-30.53a1.52,1.52,0,0,1,1.3-.75h0a1.51,1.51,0,0,1,1.3.75l17.62,30.53a1.42,1.42,0,0,1,.21.75C124.06,94.94,115.66,100.07,104.93,100.07Zm-16.1-11.3c.38,4.54,7.6,8.3,16.1,8.3s15.73-3.76,16.11-8.3l-16.11-27.9Z"/></svg>