<svg width="10" height="10" viewBox="0 0 10 10" fill="none" xmlns="http://www.w3.org/2000/svg">
<path d="M6.32115 1.33255C6.66006 1.33255 6.99897 1.33255 7.33678 1.33255C7.87837 1.33255 8.41997 1.33255 8.96157 1.33255C9.08562 1.33255 9.20855 1.33255 9.3326 1.33255C9.11109 1.11094 8.88958 0.889341 8.66807 0.667738C8.66807 1.00679 8.66807 1.34584 8.66807 1.68379C8.66807 2.22561 8.66807 2.76742 8.66807 3.30924C8.66807 3.43334 8.66807 3.55633 8.66807 3.68043C8.66807 3.85106 8.74227 4.02945 8.863 4.15022C8.97818 4.26546 9.16758 4.35188 9.3326 4.34524C9.50427 4.33748 9.68259 4.28097 9.80221 4.15022C9.92182 4.02059 9.99714 3.85993 9.99714 3.68043C9.99714 3.34138 9.99714 3.00232 9.99714 2.66438C9.99714 2.12256 9.99714 1.58074 9.99714 1.03892C9.99714 0.914825 9.99714 0.791835 9.99714 0.667738C9.99714 0.308741 9.69256 0.00292969 9.3326 0.00292969C8.99369 0.00292969 8.65477 0.00292969 8.31697 0.00292969C7.77537 0.00292969 7.23377 0.00292969 6.69218 0.00292969C6.56813 0.00292969 6.44519 0.00292969 6.32115 0.00292969C6.15058 0.00292969 5.97226 0.0771666 5.85154 0.19794C5.73635 0.313174 5.64996 0.502644 5.65661 0.667738C5.66436 0.83948 5.72085 1.01787 5.85154 1.13754C5.98112 1.2572 6.14061 1.33255 6.32115 1.33255Z" fill="#281E35"/>
<path d="M4.80517 6.13715C4.9713 5.97095 5.13633 5.80586 5.30247 5.63965C5.70008 5.24188 6.09769 4.8441 6.49642 4.44521C6.9782 3.96323 7.45889 3.48235 7.94067 3.00036C8.35712 2.58375 8.77245 2.16825 9.18889 1.75163C9.39158 1.54887 9.59537 1.34832 9.79584 1.14444C9.79916 1.14112 9.80137 1.1389 9.8047 1.13558C9.92542 1.0148 9.99963 0.836414 9.99963 0.66578C9.99963 0.502902 9.92764 0.307892 9.8047 0.195982C9.67844 0.0796409 9.5123 -0.00678418 9.33509 0.000971918C9.15899 0.00872801 8.99286 0.0685607 8.86549 0.195982C8.69935 0.362184 8.53433 0.527278 8.36819 0.69348C7.96836 1.09237 7.57075 1.49014 7.17313 1.88792C6.69135 2.36991 6.21066 2.85078 5.72888 3.33277C5.31243 3.74938 4.8971 4.16489 4.48066 4.5815C4.27797 4.78427 4.07418 4.98482 3.87371 5.18869C3.87039 5.19202 3.86818 5.19423 3.86485 5.19756C3.74413 5.31833 3.66992 5.49672 3.66992 5.66735C3.66992 5.83023 3.74191 6.02524 3.86485 6.13715C3.99222 6.25349 4.15836 6.33992 4.33557 6.33216C4.51167 6.32441 4.6778 6.26457 4.80517 6.13715Z" fill="#281E35"/>
<path d="M8.67035 6.11956C8.67035 6.40432 8.67035 6.68797 8.67035 6.97273C8.67035 7.41704 8.67035 7.86136 8.67035 8.30567C8.67035 8.42755 8.67921 8.55387 8.6626 8.67464C8.67035 8.61591 8.6781 8.55719 8.68586 8.49736C8.67589 8.56162 8.65927 8.62256 8.63491 8.6835C8.65706 8.63032 8.67921 8.57713 8.70136 8.52506C8.67478 8.58821 8.64045 8.64583 8.59947 8.70123C8.6338 8.65691 8.66924 8.61148 8.70358 8.56716C8.66149 8.62035 8.61386 8.66799 8.5607 8.7101C8.605 8.67575 8.65041 8.64029 8.69472 8.60594C8.64045 8.64694 8.58175 8.68129 8.51861 8.70788C8.57178 8.68572 8.62494 8.66356 8.677 8.6414C8.61719 8.66578 8.55516 8.68239 8.49093 8.69237C8.54963 8.68461 8.60833 8.67686 8.66813 8.6691C8.57731 8.68129 8.48317 8.67685 8.39124 8.67685C8.21957 8.67685 8.04901 8.67685 7.87734 8.67685C7.30584 8.67685 6.73434 8.67685 6.16283 8.67685C5.46839 8.67685 4.77285 8.67685 4.07841 8.67685C3.48032 8.67685 2.88224 8.67685 2.28416 8.67685C2.00284 8.67685 1.72152 8.67907 1.44131 8.67685C1.40365 8.67685 1.36599 8.67464 1.32833 8.6691C1.38703 8.67686 1.44574 8.68461 1.50554 8.69237C1.44131 8.68239 1.38039 8.66578 1.31947 8.6414C1.37264 8.66356 1.4258 8.68572 1.47785 8.70788C1.41472 8.68129 1.35713 8.64694 1.30175 8.60594C1.34605 8.64029 1.39146 8.67575 1.43577 8.7101C1.3826 8.66799 1.33498 8.62035 1.29289 8.56716C1.32723 8.61148 1.36267 8.65691 1.397 8.70123C1.35602 8.64694 1.32169 8.58821 1.29511 8.52506C1.31726 8.57824 1.33941 8.63143 1.36156 8.6835C1.33719 8.62367 1.32058 8.56162 1.31061 8.49736C1.31837 8.55608 1.32612 8.61481 1.33387 8.67464C1.32169 8.58378 1.32612 8.4896 1.32612 8.39764C1.32612 8.22589 1.32612 8.05526 1.32612 7.88352C1.32612 7.31178 1.32612 6.74005 1.32612 6.16831C1.32612 5.47359 1.32612 4.77775 1.32612 4.08303C1.32612 3.4847 1.32612 2.88638 1.32612 2.28805C1.32612 2.00661 1.3239 1.72518 1.32612 1.44485C1.32612 1.40718 1.32833 1.3695 1.33387 1.33183C1.32612 1.39056 1.31837 1.44928 1.31061 1.50911C1.32058 1.44485 1.33719 1.38391 1.36156 1.32297C1.33941 1.37615 1.31726 1.42934 1.29511 1.48141C1.32169 1.41826 1.35602 1.36064 1.397 1.30524C1.36267 1.34956 1.32723 1.39499 1.29289 1.43931C1.33498 1.38613 1.3826 1.33848 1.43577 1.29638C1.39146 1.33072 1.34605 1.36618 1.30175 1.40053C1.35602 1.35953 1.41472 1.32518 1.47785 1.29859C1.42469 1.32075 1.37153 1.34291 1.31947 1.36507C1.37928 1.3407 1.44131 1.32408 1.50554 1.3141C1.44684 1.32186 1.38814 1.32962 1.32833 1.33737C1.43023 1.32408 1.53656 1.32962 1.63956 1.32962C1.83117 1.32962 2.02277 1.32962 2.21438 1.32962C2.66516 1.32962 3.11704 1.32962 3.56782 1.32962C3.67304 1.32962 3.77715 1.32962 3.88237 1.32962C4.05293 1.32962 4.23125 1.25538 4.35197 1.13461C4.46716 1.01937 4.55355 0.829902 4.5469 0.664808C4.53915 0.493066 4.48267 0.314676 4.35197 0.19501C4.22239 0.0753449 4.06179 0 3.88237 0C3.57004 0 3.2566 0 2.94426 0C2.4957 0 2.04825 0 1.59969 0C1.40586 0 1.20872 0 1.02154 0.0609408C0.890848 0.103045 0.755725 0.159554 0.643862 0.241547C0.572978 0.293624 0.496556 0.349024 0.432318 0.411073C0.363649 0.476446 0.308271 0.556223 0.251785 0.631568C0.0867589 0.853171 0.00812211 1.14569 0.00147675 1.41937C-0.00184593 1.55787 0.00147675 1.69637 0.00147675 1.83487C0.00147675 2.17835 0.00147675 2.52184 0.00147675 2.86643C0.00147675 3.33955 0.00147675 3.81157 0.00147675 4.28469C0.00147675 4.79548 0.00147675 5.30739 0.00147675 5.81818C0.00147675 6.28355 0.00147675 6.74891 0.00147675 7.21428C0.00147675 7.5489 0.00147675 7.88352 0.00147675 8.21703C0.00147675 8.44196 -0.00295348 8.65469 0.0369187 8.87741C0.0446716 8.92173 0.0568548 8.96383 0.0723606 9.00593C0.105587 9.09568 0.142137 9.18654 0.187547 9.27075C0.251785 9.38709 0.337068 9.49679 0.432318 9.58875C0.626141 9.776 0.884202 9.92559 1.15223 9.9688C1.27849 9.98874 1.39479 9.99982 1.51994 9.99982C1.75917 9.99982 1.9973 9.99982 2.23653 9.99982C2.64855 9.99982 3.06056 9.99982 3.47257 9.99982C3.9743 9.99982 4.47491 9.99982 4.97664 9.99982C5.47725 9.99982 5.97787 9.99982 6.4796 9.99982C6.89604 9.99982 7.31248 9.99982 7.72782 9.99982C7.9737 9.99982 8.21957 9.99982 8.46545 9.99982C8.51529 9.99982 8.56624 10.0009 8.61608 9.99761C8.75563 9.98763 8.89962 9.96991 9.03142 9.91783C9.11559 9.88459 9.20309 9.85135 9.28172 9.80592C9.3659 9.75717 9.44453 9.6929 9.51763 9.63196C9.62174 9.54554 9.70703 9.43252 9.78123 9.32061C9.85433 9.2087 9.9086 9.07796 9.94515 8.94943C9.99832 8.76217 9.99832 8.57492 9.99832 8.38434C9.99832 8.18379 9.99832 7.98435 9.99832 7.7838C9.99832 7.31511 9.99832 6.84642 9.99832 6.37773C9.99832 6.29019 9.99832 6.20266 9.99832 6.11513C9.99832 5.94449 9.92411 5.7661 9.80338 5.64533C9.6882 5.5301 9.49881 5.44367 9.33378 5.45032C9.16211 5.45808 8.98379 5.51458 8.86417 5.64533C8.74456 5.7794 8.67035 5.93895 8.67035 6.11956Z" fill="#281E35"/>
</svg>
