<svg width="820" height="312" viewBox="0 0 820 312" fill="none" xmlns="http://www.w3.org/2000/svg">
<g clip-path="url(#clip0)">
<g opacity="0.05">
<path d="M573.814 313.115C573.231 314.311 573.759 315.735 574.991 316.298C576.228 316.861 577.702 316.356 578.285 315.161C578.511 314.698 579.088 314.497 579.567 314.72C579.88 314.863 580.012 315.113 580.062 315.246C580.111 315.384 580.172 315.655 580.023 315.958C580.012 315.979 580.001 316.006 579.99 316.027C579.347 317.387 579.275 318.912 579.798 320.32C580.331 321.755 581.409 322.908 582.834 323.561C584.264 324.215 585.864 324.289 587.355 323.779C588.84 323.264 590.033 322.222 590.71 320.846C590.858 320.543 591.117 320.416 591.254 320.368C591.392 320.32 591.678 320.262 591.991 320.405C592.305 320.549 592.437 320.798 592.486 320.931C592.536 321.064 592.597 321.34 592.453 321.643C591.056 324.491 592.321 327.903 595.27 329.252C598.218 330.602 601.749 329.38 603.146 326.532C603.371 326.069 603.432 325.575 603.349 325.108C603.217 324.364 602.728 323.694 601.969 323.349C600.731 322.786 599.257 323.29 598.674 324.486C598.449 324.948 597.871 325.15 597.393 324.927C597.079 324.784 596.947 324.534 596.898 324.401C596.848 324.268 596.788 323.992 596.936 323.689C596.936 323.684 596.942 323.684 596.942 323.678C597.464 322.605 597.629 321.431 597.426 320.288C597.365 319.964 597.283 319.64 597.162 319.321C596.628 317.887 595.55 316.734 594.125 316.08C591.254 314.768 587.839 315.894 586.37 318.583C586.326 318.652 586.288 318.726 586.249 318.801C586.101 319.103 585.842 319.231 585.705 319.279C585.567 319.327 585.281 319.385 584.968 319.242C584.654 319.098 584.522 318.848 584.473 318.716C584.423 318.583 584.363 318.306 584.506 318.003C585.045 316.904 585.188 315.719 584.99 314.597C584.676 312.823 583.499 311.223 581.695 310.394C578.742 309.05 575.211 310.267 573.814 313.115Z" fill="black"/>
<path d="M564.98 96.9106C565.558 98.1062 567.032 98.6216 568.269 98.0637C569.507 97.5058 570.04 96.0817 569.463 94.8862C569.237 94.4239 569.446 93.866 569.925 93.6481C570.238 93.5046 570.519 93.5684 570.662 93.6162C570.805 93.664 571.058 93.7916 571.206 94.0944C571.217 94.1157 571.234 94.137 571.245 94.1635C571.921 95.5132 573.087 96.5334 574.545 97.0488C576.03 97.5695 577.636 97.5004 579.066 96.8522C580.496 96.2039 581.58 95.0615 582.119 93.6268C582.658 92.1922 582.586 90.6406 581.915 89.2591C581.767 88.9562 581.833 88.6852 581.882 88.5471C581.932 88.4142 582.064 88.1645 582.377 88.021C582.691 87.8776 582.971 87.9413 583.114 87.9892C583.252 88.037 583.51 88.1645 583.659 88.4674C585.039 91.3208 588.565 92.5588 591.518 91.2251C594.472 89.8914 595.754 86.4854 594.373 83.632C594.147 83.1697 593.79 82.8084 593.366 82.5693C592.69 82.192 591.843 82.1336 591.084 82.4737C589.846 83.0316 589.313 84.4556 589.89 85.6512C590.116 86.1134 589.907 86.6714 589.428 86.8892C589.115 87.0327 588.834 86.9689 588.691 86.9211C588.554 86.8733 588.295 86.7458 588.147 86.4429C588.147 86.4376 588.141 86.4376 588.141 86.4323C587.619 85.3589 586.788 84.4875 585.749 83.9136C585.452 83.7489 585.138 83.6054 584.808 83.4939C583.323 82.9731 581.717 83.0422 580.287 83.6905C577.411 84.987 576.129 88.2495 577.339 91.0551C577.367 91.1295 577.4 91.2092 577.433 91.2836C577.581 91.5864 577.515 91.8574 577.466 91.9956C577.416 92.1284 577.284 92.3782 576.971 92.5216C576.657 92.6651 576.377 92.6013 576.234 92.5535C576.096 92.5057 575.838 92.3781 575.689 92.0753C575.156 90.9701 574.303 90.1093 573.286 89.546C571.668 88.648 569.644 88.4993 567.829 89.3175C564.881 90.6513 563.6 94.0572 564.98 96.9106Z" fill="black"/>
<path d="M366.282 -7.05482C365.484 -5.98148 365.743 -4.48836 366.854 -3.71789C367.965 -2.94742 369.511 -3.19715 370.308 -4.27049C370.616 -4.69027 371.221 -4.78591 371.65 -4.48303C371.931 -4.28643 372.013 -4.02076 372.041 -3.87729C372.063 -3.73383 372.074 -3.45753 371.876 -3.18654C371.859 -3.16528 371.848 -3.14401 371.832 -3.12276C370.946 -1.89532 370.594 -0.407529 370.847 1.06965C371.106 2.57339 371.953 3.89116 373.24 4.77853C374.521 5.6659 376.089 6.01659 377.645 5.77217C379.202 5.52243 380.566 4.70413 381.49 3.46076C381.693 3.18976 381.968 3.11006 382.117 3.0835C382.265 3.06224 382.551 3.05161 382.832 3.2429C383.112 3.4395 383.195 3.70519 383.222 3.84865C383.244 3.99212 383.255 4.26842 383.057 4.53941C381.16 7.10056 381.77 10.6766 384.421 12.5098C387.072 14.343 390.774 13.7532 392.672 11.192C392.98 10.7776 393.128 10.2993 393.134 9.82111C393.139 9.06658 392.782 8.32267 392.1 7.85508C390.989 7.08461 389.443 7.33435 388.645 8.4077C388.337 8.82747 387.732 8.92311 387.303 8.62023C387.023 8.42363 386.94 8.15796 386.913 8.0145C386.891 7.87103 386.88 7.59471 387.078 7.32372C387.078 7.31841 387.083 7.31841 387.083 7.3131C387.793 6.35134 388.173 5.21955 388.184 4.06119C388.189 3.73175 388.161 3.39699 388.101 3.06224C387.842 1.55849 386.995 0.240722 385.708 -0.646646C383.129 -2.43201 379.554 -1.91126 377.618 0.479846C377.563 0.538296 377.508 0.607364 377.458 0.671127C377.255 0.94212 376.98 1.02182 376.831 1.04839C376.683 1.07495 376.397 1.08027 376.116 0.888986C375.836 0.692384 375.753 0.426697 375.726 0.28323C375.704 0.139764 375.693 -0.136536 375.891 -0.407528C376.622 -1.39585 376.985 -2.53827 376.996 -3.67538C377.013 -5.47668 376.155 -7.25673 374.527 -8.3779C371.881 -10.2111 368.179 -9.61596 366.282 -7.05482Z" fill="black"/>
<path d="M818.718 152.528C817.866 151.492 816.309 151.322 815.242 152.14C814.17 152.958 813.994 154.467 814.841 155.498C815.171 155.902 815.099 156.486 814.687 156.805C814.417 157.013 814.126 157.018 813.977 157.002C813.829 156.986 813.548 156.917 813.334 156.657C813.317 156.635 813.301 156.619 813.279 156.598C812.3 155.44 810.919 154.701 809.373 154.531C807.806 154.356 806.26 154.781 805.023 155.732C803.785 156.678 803.004 158.038 802.823 159.552C802.641 161.067 803.081 162.56 804.066 163.755C804.28 164.016 804.286 164.297 804.269 164.441C804.253 164.584 804.181 164.855 803.912 165.063C803.642 165.27 803.351 165.275 803.202 165.259C803.054 165.243 802.773 165.174 802.559 164.914C800.535 162.448 796.806 162.034 794.254 163.989C791.702 165.945 791.272 169.547 793.296 172.013C793.627 172.411 794.061 172.682 794.529 172.82C795.277 173.033 796.113 172.905 796.773 172.401C797.845 171.582 798.021 170.073 797.174 169.042C796.844 168.639 796.916 168.054 797.328 167.735C797.598 167.528 797.889 167.523 798.038 167.539C798.186 167.555 798.467 167.624 798.681 167.884C798.681 167.889 798.687 167.889 798.687 167.895C799.451 168.819 800.469 169.483 801.618 169.813C801.948 169.909 802.284 169.972 802.63 170.015C804.198 170.19 805.743 169.765 806.981 168.814C809.467 166.906 809.934 163.447 808.086 160.987C808.042 160.918 807.993 160.854 807.938 160.785C807.723 160.525 807.718 160.243 807.734 160.1C807.751 159.956 807.822 159.685 808.092 159.478C808.361 159.271 808.653 159.265 808.801 159.281C808.95 159.297 809.23 159.366 809.445 159.627C810.226 160.583 811.266 161.226 812.393 161.55C814.181 162.06 816.188 161.752 817.756 160.551C820.319 158.596 820.748 154.999 818.718 152.528Z" fill="black"/>
<path d="M161.787 161.965C160.692 162.757 160.467 164.255 161.286 165.312C162.106 166.37 163.657 166.588 164.751 165.796C165.175 165.488 165.78 165.573 166.099 165.982C166.308 166.253 166.302 166.529 166.28 166.673C166.258 166.816 166.181 167.082 165.906 167.284C165.884 167.3 165.868 167.316 165.846 167.332C164.619 168.245 163.816 169.558 163.596 171.04C163.371 172.549 163.767 174.053 164.713 175.275C165.659 176.497 167.039 177.289 168.601 177.512C170.163 177.73 171.72 177.348 172.985 176.434C173.265 176.232 173.551 176.237 173.7 176.258C173.848 176.28 174.123 176.354 174.332 176.625C174.541 176.896 174.536 177.172 174.514 177.316C174.492 177.459 174.415 177.725 174.14 177.927C171.527 179.813 170.988 183.4 172.941 185.924C174.893 188.448 178.606 188.963 181.219 187.082C181.642 186.774 181.934 186.365 182.088 185.913C182.33 185.196 182.22 184.383 181.719 183.735C180.9 182.677 179.349 182.459 178.254 183.251C177.831 183.559 177.226 183.474 176.907 183.065C176.698 182.794 176.703 182.518 176.725 182.374C176.747 182.231 176.824 181.965 177.099 181.763C177.105 181.763 177.105 181.758 177.11 181.758C178.089 181.046 178.804 180.084 179.178 178.979C179.283 178.665 179.365 178.341 179.415 178.007C179.64 176.497 179.244 174.994 178.298 173.772C176.401 171.317 172.831 170.764 170.235 172.475C170.163 172.518 170.092 172.56 170.026 172.613C169.745 172.815 169.459 172.81 169.311 172.789C169.162 172.767 168.887 172.693 168.678 172.422C168.469 172.151 168.475 171.875 168.497 171.731C168.519 171.588 168.596 171.322 168.871 171.12C169.883 170.392 170.581 169.409 170.944 168.33C171.522 166.62 171.263 164.675 170.064 163.123C168.112 160.599 164.399 160.079 161.787 161.965Z" fill="black"/>
<path d="M605.89 194.277C605.538 194.208 605.203 194.069 604.889 193.862C603.641 193.028 603.322 191.381 604.185 190.175C604.35 189.941 608.371 184.362 615.725 179.925C622.589 175.785 633.749 171.891 647.939 176.843C649.369 177.342 650.106 178.862 649.589 180.244C649.072 181.625 647.493 182.337 646.069 181.838C636.411 178.463 627.236 179.303 618.805 184.324C612.358 188.166 608.75 193.134 608.712 193.182C608.068 194.091 606.941 194.489 605.89 194.277Z" fill="black"/>
<path d="M314.883 160.812C313.926 160.424 313.239 159.526 313.2 158.453C312.408 136.768 295.941 123.595 282.086 118.898C280.65 118.415 279.897 116.895 280.403 115.513C280.903 114.127 282.476 113.399 283.906 113.887C299.395 119.137 317.804 133.904 318.695 158.267C318.75 159.733 317.562 160.966 316.044 161.014C315.631 161.035 315.241 160.96 314.883 160.812Z" fill="black"/>
<path d="M170.438 -24.5312C170.081 -23.5907 169.19 -22.8787 168.084 -22.7937C145.704 -20.9764 132.883 -4.45119 128.698 9.14626C128.263 10.5544 126.734 11.3567 125.277 10.9369C123.819 10.5172 122.989 9.03998 123.423 7.63189C128.098 -7.57026 142.476 -26.0509 167.617 -28.0913C169.129 -28.2135 170.46 -27.1296 170.587 -25.6683C170.625 -25.2645 170.57 -24.8819 170.438 -24.5312Z" fill="black"/>
<path d="M244.528 39.1675L242.941 52.3624L256.6 53.8954L258.186 40.7004L244.528 39.1675Z" fill="black"/>
<path d="M266.28 206.13L255.735 214.656L264.56 224.843L275.105 216.318L266.28 206.13Z" fill="black"/>
<path d="M84.5671 243.293L74.198 252.017L83.2279 262.034L93.597 253.311L84.5671 243.293Z" fill="black"/>
<path d="M689.385 49.8714L685.22 62.531L698.324 66.5547L702.489 53.8951L689.385 49.8714Z" fill="black"/>
<path d="M408.716 100.672L412.879 88.0103L422.147 97.8244L408.716 100.672Z" fill="black"/>
<path d="M98.458 115.349L111.081 110.078L109.497 123.277L98.458 115.349Z" fill="black"/>
<path d="M777.539 282.514L778.226 269.246L789.777 276.457L777.539 282.514Z" fill="black"/>
<path d="M182.566 288.614L195.849 285.176L192.29 298.009L182.566 288.614Z" fill="black"/>
<path d="M469.674 283.3L482.956 279.863L479.398 292.695L469.674 283.3Z" fill="black"/>
<path d="M488.165 21.8084C491.962 21.8084 495.04 18.8347 495.04 15.1664C495.04 11.4981 491.962 8.52441 488.165 8.52441C484.368 8.52441 481.29 11.4981 481.29 15.1664C481.29 18.8347 484.368 21.8084 488.165 21.8084Z" fill="black"/>
<path d="M379.262 252.949C383.059 252.949 386.138 249.976 386.138 246.307C386.138 242.639 383.059 239.665 379.262 239.665C375.465 239.665 372.387 242.639 372.387 246.307C372.387 249.976 375.465 252.949 379.262 252.949Z" fill="black"/>
<path d="M501.915 174.043C505.713 174.043 508.791 171.069 508.791 167.401C508.791 163.733 505.713 160.759 501.915 160.759C498.118 160.759 495.04 163.733 495.04 167.401C495.04 171.069 498.118 174.043 501.915 174.043Z" fill="black"/>
<path d="M686.721 266.233C690.518 266.233 693.596 263.259 693.596 259.591C693.596 255.923 690.518 252.949 686.721 252.949C682.924 252.949 679.845 255.923 679.845 259.591C679.845 263.259 682.924 266.233 686.721 266.233Z" fill="black"/>
<path d="M333.001 299.369C333.072 299.029 333.215 298.704 333.43 298.402C334.293 297.195 335.998 296.887 337.247 297.722C337.489 297.881 343.264 301.765 347.856 308.869C352.141 315.501 356.173 326.282 351.047 339.991C350.53 341.373 348.956 342.085 347.526 341.585C346.096 341.086 345.359 339.561 345.876 338.184C349.369 328.854 348.5 319.991 343.302 311.845C339.331 305.617 334.183 302.132 334.134 302.095C333.193 301.473 332.786 300.384 333.001 299.369Z" fill="black"/>
<path d="M26.6977 152.528C25.8452 151.492 24.2886 151.322 23.2216 152.14C22.1491 152.958 21.9731 154.467 22.8201 155.498C23.1501 155.902 23.0786 156.486 22.6661 156.805C22.3966 157.013 22.1051 157.018 21.9566 157.002C21.8081 156.986 21.5275 156.917 21.313 156.657C21.2965 156.635 21.28 156.619 21.258 156.598C20.279 155.44 18.8985 154.701 17.3529 154.531C15.7854 154.356 14.2399 154.781 13.0023 155.732C11.7648 156.678 10.9838 158.038 10.8023 159.552C10.6208 161.067 11.0608 162.56 12.0453 163.755C12.2598 164.016 12.2653 164.297 12.2488 164.441C12.2323 164.584 12.1608 164.855 11.8913 165.063C11.6218 165.27 11.3303 165.275 11.1818 165.259C11.0333 165.243 10.7528 165.174 10.5383 164.914C8.51421 162.448 4.78511 162.034 2.23304 163.989C-0.319027 165.945 -0.748038 169.547 1.27602 172.013C1.60602 172.411 2.04053 172.682 2.50805 172.82C3.25607 173.033 4.09209 172.905 4.75211 172.401C5.82463 171.582 6.00064 170.073 5.15362 169.042C4.82361 168.639 4.89511 168.054 5.30762 167.735C5.57713 167.528 5.86864 167.523 6.01714 167.539C6.16564 167.555 6.44615 167.624 6.66066 167.884C6.66066 167.889 6.66616 167.889 6.66616 167.895C7.43068 168.819 8.4482 169.483 9.59773 169.813C9.92774 169.909 10.2633 169.972 10.6098 170.015C12.1773 170.19 13.7228 169.765 14.9604 168.814C17.4464 166.906 17.914 163.447 16.0659 160.987C16.0219 160.918 15.9724 160.854 15.9174 160.785C15.7029 160.525 15.6974 160.243 15.7139 160.1C15.7304 159.956 15.8019 159.685 16.0714 159.478C16.3409 159.271 16.6324 159.265 16.7809 159.281C16.9294 159.297 17.2099 159.366 17.4244 159.627C18.2055 160.583 19.245 161.226 20.3725 161.55C22.1601 162.06 24.1676 161.752 25.7352 160.551C28.2982 158.596 28.7272 154.999 26.6977 152.528Z" fill="black"/>
<path d="M333.001 299.369C333.072 299.029 333.215 298.704 333.43 298.402C334.293 297.195 335.998 296.887 337.247 297.722C337.489 297.881 343.264 301.765 347.856 308.869C352.141 315.501 356.173 326.282 351.047 339.991C350.53 341.373 348.956 342.085 347.526 341.585C346.096 341.086 345.359 339.561 345.876 338.184C349.369 328.854 348.5 319.991 343.302 311.845C339.331 305.617 334.183 302.132 334.134 302.095C333.193 301.473 332.786 300.384 333.001 299.369Z" fill="black"/>
<path d="M574.089 312.849C573.506 314.045 574.034 315.469 575.266 316.032C576.503 316.595 577.977 316.091 578.56 314.895C578.786 314.433 579.363 314.231 579.842 314.454C580.155 314.597 580.287 314.847 580.337 314.98C580.386 315.118 580.447 315.389 580.298 315.692C580.287 315.713 580.276 315.74 580.265 315.761C579.622 317.121 579.55 318.646 580.073 320.054C580.606 321.489 581.684 322.642 583.109 323.296C584.539 323.949 586.139 324.024 587.63 323.514C589.115 322.998 590.309 321.957 590.985 320.58C591.134 320.278 591.392 320.15 591.53 320.102C591.667 320.054 591.953 319.996 592.267 320.139C592.58 320.283 592.712 320.533 592.762 320.665C592.811 320.798 592.872 321.075 592.729 321.378C591.332 324.226 592.597 327.637 595.545 328.987C598.493 330.336 602.024 329.114 603.421 326.266C603.646 325.804 603.707 325.31 603.624 324.842C603.492 324.098 603.003 323.429 602.244 323.083C601.006 322.52 599.532 323.025 598.949 324.22C598.724 324.683 598.146 324.884 597.668 324.661C597.354 324.518 597.222 324.268 597.173 324.135C597.123 324.002 597.063 323.726 597.211 323.423C597.211 323.418 597.217 323.418 597.217 323.413C597.739 322.339 597.904 321.165 597.701 320.023C597.64 319.698 597.558 319.374 597.437 319.055C596.903 317.621 595.825 316.468 594.401 315.814C591.53 314.502 588.114 315.628 586.645 318.317C586.601 318.386 586.563 318.46 586.524 318.535C586.376 318.838 586.117 318.965 585.98 319.013C585.842 319.061 585.556 319.119 585.243 318.976C584.929 318.832 584.797 318.583 584.748 318.45C584.698 318.317 584.638 318.041 584.781 317.738C585.32 316.638 585.463 315.453 585.265 314.332C584.951 312.557 583.774 310.958 581.97 310.129C579.017 308.784 575.486 310.001 574.089 312.849Z" fill="black"/>
</g>
<path d="M462.305 206.693C451.83 206.685 441.786 202.523 434.377 195.119C426.967 187.715 422.797 177.674 422.782 167.199V112.513H403.22C397.658 112.447 392.138 113.486 386.981 115.569C381.823 117.651 377.131 120.737 373.174 124.647C369.218 128.557 366.077 133.212 363.934 138.345C361.79 143.478 360.686 148.985 360.686 154.547C360.686 160.109 361.79 165.616 363.934 170.748C366.077 175.881 369.218 180.537 373.174 184.446C377.131 188.356 381.823 191.442 386.981 193.525C392.138 195.608 397.658 196.646 403.22 196.58H415.412V206.223H403.22C396.433 206.223 389.712 204.887 383.443 202.29C377.173 199.692 371.475 195.885 366.676 191.086C361.877 186.287 358.071 180.591 355.474 174.32C352.877 168.05 351.54 161.33 351.54 154.544C351.54 147.757 352.877 141.037 355.474 134.767C358.071 128.497 361.877 122.799 366.676 118C371.475 113.201 377.173 109.395 383.443 106.798C389.712 104.2 396.433 102.864 403.22 102.864H432.425V167.199C432.437 175.117 435.59 182.707 441.191 188.303C446.793 193.9 454.386 197.045 462.305 197.05V206.693ZM526 156C526 90.9364 473.063 38 408 38C342.936 38 290 90.9364 290 156C290 221.063 342.936 274 408 274C473.063 274 526 221.063 526 156ZM516.357 156C516.357 215.749 467.749 264.357 408 264.357C348.251 264.357 299.643 215.749 299.643 156C299.643 96.251 348.251 47.643 408 47.643C467.749 47.643 516.357 96.251 516.357 156Z" fill="black"/>
<path d="M462.305 206.693L462.303 209.193L464.805 209.195V206.693H462.305ZM434.377 195.119L436.144 193.351L436.144 193.35L434.377 195.119ZM422.782 167.199L420.282 167.199L420.282 167.203L422.782 167.199ZM422.782 112.513H425.282V110.013H422.782V112.513ZM403.22 112.513L403.19 115.012L403.205 115.013H403.22V112.513ZM386.981 115.569L387.917 117.887L387.917 117.887L386.981 115.569ZM373.174 124.647L371.417 122.869L371.417 122.869L373.174 124.647ZM363.934 138.345L366.241 139.309L366.241 139.309L363.934 138.345ZM363.934 170.748L366.241 169.785L366.241 169.785L363.934 170.748ZM386.981 193.525L387.917 191.207L387.917 191.207L386.981 193.525ZM403.22 196.58V194.08H403.205L403.19 194.08L403.22 196.58ZM415.412 196.58H417.912V194.08H415.412V196.58ZM415.412 206.223V208.723H417.912V206.223H415.412ZM383.443 202.29L384.4 199.98L384.4 199.98L383.443 202.29ZM383.443 106.798L384.4 109.107L384.4 109.107L383.443 106.798ZM432.425 102.864H434.925V100.364H432.425V102.864ZM432.425 167.199L429.925 167.199L429.925 167.203L432.425 167.199ZM441.191 188.303L439.424 190.072L439.425 190.072L441.191 188.303ZM462.305 197.05H464.805V194.552L462.306 194.55L462.305 197.05ZM462.307 204.193C452.494 204.186 443.085 200.287 436.144 193.351L432.61 196.887C440.487 204.76 451.166 209.185 462.303 209.193L462.307 204.193ZM436.144 193.35C429.202 186.414 425.296 177.008 425.282 167.196L420.282 167.203C420.298 178.34 424.731 189.015 432.61 196.887L436.144 193.35ZM425.282 167.199V112.513H420.282V167.199H425.282ZM422.782 110.013H403.22V115.013H422.782V110.013ZM403.249 110.013C397.356 109.943 391.509 111.044 386.045 113.251L387.917 117.887C392.768 115.928 397.959 114.951 403.19 115.012L403.249 110.013ZM386.045 113.251C380.58 115.457 375.608 118.727 371.417 122.869L374.932 126.425C378.653 122.748 383.066 119.845 387.917 117.887L386.045 113.251ZM371.417 122.869C367.226 127.011 363.898 131.943 361.627 137.382L366.241 139.309C368.256 134.481 371.211 130.103 374.932 126.425L371.417 122.869ZM361.627 137.382C359.356 142.819 358.186 148.654 358.186 154.547H363.186C363.186 149.315 364.224 144.136 366.241 139.309L361.627 137.382ZM358.186 154.547C358.186 160.44 359.356 166.274 361.627 171.712L366.241 169.785C364.224 164.958 363.186 159.778 363.186 154.547H358.186ZM361.627 171.712C363.898 177.149 367.226 182.082 371.417 186.224L374.932 182.668C371.211 178.991 368.256 174.612 366.241 169.785L361.627 171.712ZM371.417 186.224C375.608 190.366 380.58 193.636 386.045 195.843L387.917 191.207C383.066 189.247 378.653 186.345 374.932 182.668L371.417 186.224ZM386.045 195.843C391.509 198.05 397.356 199.15 403.249 199.08L403.19 194.08C397.959 194.142 392.768 193.166 387.917 191.207L386.045 195.843ZM403.22 199.08H415.412V194.08H403.22V199.08ZM412.912 196.58V206.223H417.912V196.58H412.912ZM415.412 203.723H403.22V208.723H415.412V203.723ZM403.22 203.723C396.761 203.723 390.366 202.451 384.4 199.98L382.486 204.599C389.059 207.322 396.105 208.723 403.22 208.723V203.723ZM384.4 199.98C378.433 197.508 373.011 193.885 368.444 189.319L364.909 192.854C369.94 197.885 375.913 201.876 382.486 204.599L384.4 199.98ZM368.444 189.319C363.877 184.752 360.255 179.331 357.783 173.364L353.164 175.277C355.887 181.851 359.878 187.823 364.909 192.854L368.444 189.319ZM357.783 173.364C355.312 167.397 354.04 161.002 354.04 154.544H349.04C349.04 161.659 350.441 168.704 353.164 175.277L357.783 173.364ZM354.04 154.544C354.04 148.085 355.312 141.69 357.783 135.724L353.164 133.81C350.441 140.384 349.04 147.428 349.04 154.544H354.04ZM357.783 135.724C360.255 129.757 363.877 124.335 368.444 119.768L364.909 116.233C359.877 121.264 355.887 127.237 353.164 133.81L357.783 135.724ZM368.444 119.768C373.011 115.201 378.433 111.579 384.4 109.107L382.486 104.488C375.913 107.211 369.94 111.201 364.909 116.233L368.444 119.768ZM384.4 109.107C390.366 106.636 396.761 105.364 403.22 105.364V100.364C396.105 100.364 389.059 101.765 382.486 104.488L384.4 109.107ZM403.22 105.364H432.425V100.364H403.22V105.364ZM429.925 102.864V167.199H434.925V102.864H429.925ZM429.925 167.203C429.938 175.783 433.355 184.008 439.424 190.072L442.958 186.535C437.826 181.406 434.936 174.451 434.925 167.196L429.925 167.203ZM439.425 190.072C445.495 196.136 453.723 199.545 462.303 199.55L462.306 194.55C455.05 194.546 448.092 191.663 442.958 186.535L439.425 190.072ZM459.805 197.05V206.693H464.805V197.05H459.805ZM528.5 156C528.5 89.5557 474.444 35.5 408 35.5V40.5C471.683 40.5 523.5 92.3171 523.5 156H528.5ZM408 35.5C341.556 35.5 287.5 89.5557 287.5 156H292.5C292.5 92.3171 344.317 40.5 408 40.5V35.5ZM287.5 156C287.5 222.444 341.556 276.5 408 276.5V271.5C344.317 271.5 292.5 219.683 292.5 156H287.5ZM408 276.5C474.444 276.5 528.5 222.444 528.5 156H523.5C523.5 219.683 471.683 271.5 408 271.5V276.5ZM513.857 156C513.857 214.368 466.368 261.857 408 261.857V266.857C469.13 266.857 518.857 217.13 518.857 156H513.857ZM408 261.857C349.632 261.857 302.143 214.368 302.143 156H297.143C297.143 217.13 346.87 266.857 408 266.857V261.857ZM302.143 156C302.143 97.6317 349.632 50.143 408 50.143V45.143C346.87 45.143 297.143 94.8703 297.143 156H302.143ZM408 50.143C466.368 50.143 513.857 97.6317 513.857 156H518.857C518.857 94.8703 469.13 45.143 408 45.143V50.143Z" fill="black"/>
<g filter="url(#filter0_d)">
<path d="M239.639 256.168L231.255 225.96L262.531 234.053L239.639 256.168Z" fill="#FF1463"/>
<path d="M239.639 256.168L231.255 225.96L262.531 234.053L239.639 256.168Z" stroke="black" stroke-width="4" stroke-miterlimit="10" stroke-linecap="round" stroke-linejoin="round"/>
</g>
<g filter="url(#filter1_d)">
<path d="M671.756 253.452L642.258 240.566L668.56 222.334L671.756 253.452Z" fill="#386BFF"/>
<path d="M671.756 253.452L642.258 240.566L668.56 222.334L671.756 253.452Z" stroke="black" stroke-width="4" stroke-miterlimit="10" stroke-linecap="round" stroke-linejoin="round"/>
</g>
<g filter="url(#filter2_d)">
<path d="M731.818 249.563L723.44 219.36L754.716 227.453L731.818 249.563Z" fill="#FF1463"/>
<path d="M731.818 249.563L723.44 219.36L754.716 227.453L731.818 249.563Z" stroke="black" stroke-width="4" stroke-miterlimit="10" stroke-linecap="round" stroke-linejoin="round"/>
</g>
<g filter="url(#filter3_d)">
<path d="M590.341 233.707L566.642 219.231L551.655 242.122L575.354 256.597L590.341 233.707Z" fill="#F2C40A"/>
<path d="M590.341 233.707L566.642 219.231L551.655 242.122L575.354 256.597L590.341 233.707Z" stroke="black" stroke-width="4" stroke-miterlimit="10" stroke-linecap="round" stroke-linejoin="round"/>
</g>
<g filter="url(#filter4_d)">
<path d="M589.495 104.476L565.795 90L550.808 112.89L574.507 127.366L589.495 104.476Z" fill="#FF1463"/>
<path d="M589.495 104.476L565.795 90L550.808 112.89L574.507 127.366L589.495 104.476Z" stroke="black" stroke-width="4" stroke-miterlimit="10" stroke-linecap="round" stroke-linejoin="round"/>
</g>
<g filter="url(#filter5_d)">
<path d="M69.7472 220.233L46.0479 205.758L31.0605 228.648L54.7598 243.123L69.7472 220.233Z" fill="#FF1463"/>
<path d="M69.7472 220.233L46.0479 205.758L31.0605 228.648L54.7598 243.123L69.7472 220.233Z" stroke="black" stroke-width="4" stroke-miterlimit="10" stroke-linecap="round" stroke-linejoin="round"/>
</g>
<g filter="url(#filter6_d)">
<path d="M187.919 72.4756L164.219 58L149.232 80.8901L172.931 95.3656L187.919 72.4756Z" fill="#386BFF"/>
<path d="M187.919 72.4756L164.219 58L149.232 80.8901L172.931 95.3656L187.919 72.4756Z" stroke="black" stroke-width="4" stroke-miterlimit="10" stroke-linecap="round" stroke-linejoin="round"/>
</g>
<g filter="url(#filter7_d)">
<path d="M589.51 186.439C597.253 186.439 603.53 180.376 603.53 172.898C603.53 165.419 597.253 159.356 589.51 159.356C581.767 159.356 575.49 165.419 575.49 172.898C575.49 180.376 581.767 186.439 589.51 186.439Z" fill="#386BFF"/>
<path d="M589.51 186.439C597.253 186.439 603.53 180.376 603.53 172.898C603.53 165.419 597.253 159.356 589.51 159.356C581.767 159.356 575.49 165.419 575.49 172.898C575.49 180.376 581.767 186.439 589.51 186.439Z" stroke="black" stroke-width="4" stroke-miterlimit="10" stroke-linecap="round" stroke-linejoin="round"/>
</g>
<g filter="url(#filter8_d)">
<path d="M266.955 97.4877C274.698 97.4877 280.975 91.4251 280.975 83.9465C280.975 76.4679 274.698 70.4053 266.955 70.4053C259.212 70.4053 252.936 76.4679 252.936 83.9465C252.936 91.4251 259.212 97.4877 266.955 97.4877Z" fill="#FF1463"/>
<path d="M266.955 97.4877C274.698 97.4877 280.975 91.4251 280.975 83.9465C280.975 76.4679 274.698 70.4053 266.955 70.4053C259.212 70.4053 252.936 76.4679 252.936 83.9465C252.936 91.4251 259.212 97.4877 266.955 97.4877Z" stroke="black" stroke-width="4" stroke-miterlimit="10" stroke-linecap="round" stroke-linejoin="round"/>
</g>
<g filter="url(#filter9_d)">
<path d="M725.055 94.0824C732.798 94.0824 739.075 88.0198 739.075 80.5412C739.075 73.0626 732.798 67 725.055 67C717.312 67 711.035 73.0626 711.035 80.5412C711.035 88.0198 717.312 94.0824 725.055 94.0824Z" fill="#F2C40A"/>
<path d="M725.055 94.0824C732.798 94.0824 739.075 88.0198 739.075 80.5412C739.075 73.0626 732.798 67 725.055 67C717.312 67 711.035 73.0626 711.035 80.5412C711.035 88.0198 717.312 94.0824 725.055 94.0824Z" stroke="black" stroke-width="4" stroke-miterlimit="10" stroke-linecap="round" stroke-linejoin="round"/>
</g>
<g filter="url(#filter10_d)">
<path d="M654.843 72.2488C652.432 70.9 649.342 71.6963 647.946 74.0254C646.549 76.3544 647.374 79.3389 649.785 80.6876C650.721 81.213 651.041 82.3722 650.503 83.2767C650.149 83.8671 649.605 84.0838 649.308 84.1596C649.017 84.2354 648.433 84.3113 647.817 83.97C647.772 83.9429 647.721 83.9213 647.671 83.8996C644.917 82.4047 641.726 82.0093 638.664 82.8001C635.552 83.6017 632.95 85.53 631.34 88.222C629.725 90.914 629.299 94.0501 630.129 97.0563C630.959 100.062 632.955 102.576 635.743 104.13C636.354 104.471 636.578 104.997 636.657 105.284C636.735 105.566 636.814 106.129 636.46 106.725C636.107 107.315 635.563 107.532 635.266 107.608C634.974 107.683 634.391 107.759 633.78 107.418C628.026 104.206 620.635 106.107 617.304 111.67C613.978 117.227 615.952 124.366 621.706 127.584C622.642 128.104 623.674 128.304 624.672 128.223C626.254 128.087 627.746 127.237 628.604 125.807C630 123.478 629.176 120.493 626.764 119.145C625.828 118.619 625.508 117.46 626.046 116.556C626.4 115.965 626.944 115.749 627.241 115.673C627.532 115.597 628.116 115.521 628.733 115.862C628.738 115.868 628.749 115.868 628.755 115.873C630.92 117.076 633.365 117.596 635.804 117.39C636.5 117.33 637.195 117.211 637.879 117.038C640.992 116.236 643.594 114.308 645.203 111.616C648.445 106.205 646.65 99.3041 641.238 95.9784C641.098 95.8809 640.952 95.7888 640.801 95.7076C640.19 95.3663 639.965 94.8409 639.887 94.5538C639.808 94.2722 639.73 93.7089 640.083 93.1131C640.436 92.5227 640.98 92.306 641.278 92.2302C641.569 92.1543 642.152 92.0785 642.764 92.4197C644.99 93.6601 647.458 94.1422 649.841 93.9364C653.626 93.6114 657.193 91.5802 659.234 88.1678C662.571 82.6051 660.597 75.4661 654.843 72.2488Z" fill="#FF1463"/>
<path d="M654.843 72.2488C652.432 70.9 649.342 71.6963 647.946 74.0254C646.549 76.3544 647.374 79.3389 649.785 80.6876C650.721 81.213 651.041 82.3722 650.503 83.2767C650.149 83.8671 649.605 84.0838 649.308 84.1596C649.017 84.2354 648.433 84.3113 647.817 83.97C647.772 83.9429 647.721 83.9213 647.671 83.8996C644.917 82.4047 641.726 82.0093 638.664 82.8001C635.552 83.6017 632.95 85.53 631.34 88.222C629.725 90.914 629.299 94.0501 630.129 97.0563C630.959 100.062 632.955 102.576 635.743 104.13C636.354 104.471 636.578 104.997 636.657 105.284C636.735 105.566 636.814 106.129 636.46 106.725C636.107 107.315 635.563 107.532 635.266 107.608C634.974 107.683 634.391 107.759 633.78 107.418C628.026 104.206 620.635 106.107 617.304 111.67C613.978 117.227 615.952 124.366 621.706 127.584C622.642 128.104 623.674 128.304 624.672 128.223C626.254 128.087 627.746 127.237 628.604 125.807C630 123.478 629.176 120.493 626.764 119.145C625.828 118.619 625.508 117.46 626.046 116.556C626.4 115.965 626.944 115.749 627.241 115.673C627.532 115.597 628.116 115.521 628.733 115.862C628.738 115.868 628.749 115.868 628.755 115.873C630.92 117.076 633.365 117.596 635.804 117.39C636.5 117.33 637.195 117.211 637.879 117.038C640.992 116.236 643.594 114.308 645.203 111.616C648.445 106.205 646.65 99.3041 641.238 95.9784C641.098 95.8809 640.952 95.7888 640.801 95.7076C640.19 95.3663 639.965 94.8409 639.887 94.5538C639.808 94.2722 639.73 93.7089 640.083 93.1131C640.436 92.5227 640.98 92.306 641.278 92.2302C641.569 92.1543 642.152 92.0785 642.764 92.4197C644.99 93.6601 647.458 94.1422 649.841 93.9364C653.626 93.6114 657.193 91.5802 659.234 88.1678C662.571 82.6051 660.597 75.4661 654.843 72.2488Z" stroke="black" stroke-width="4" stroke-miterlimit="10" stroke-linecap="round" stroke-linejoin="round"/>
</g>
<g filter="url(#filter11_d)">
<path d="M211.296 118.368C209.064 119.982 208.604 123.032 210.275 125.193C211.947 127.349 215.104 127.793 217.341 126.179C218.211 125.55 219.439 125.724 220.089 126.563C220.516 127.11 220.504 127.679 220.46 127.972C220.415 128.264 220.258 128.811 219.691 129.217C219.646 129.25 219.607 129.282 219.568 129.32C217.061 131.178 215.429 133.854 214.975 136.882C214.515 139.958 215.323 143.029 217.252 145.521C219.181 148.013 221.996 149.632 225.181 150.076C228.367 150.52 231.546 149.741 234.126 147.877C234.693 147.471 235.281 147.476 235.579 147.52C235.881 147.563 236.448 147.715 236.868 148.262C237.295 148.809 237.283 149.378 237.239 149.67C237.194 149.963 237.037 150.51 236.476 150.916C231.148 154.762 230.055 162.074 234.031 167.214C238.012 172.36 245.583 173.416 250.905 169.57C251.769 168.947 252.369 168.108 252.677 167.187C253.171 165.73 252.947 164.067 251.926 162.745C250.255 160.59 247.097 160.146 244.86 161.76C243.991 162.388 242.762 162.215 242.112 161.375C241.686 160.828 241.697 160.259 241.742 159.967C241.787 159.68 241.944 159.127 242.51 158.721C242.516 158.716 242.521 158.71 242.527 158.705C244.529 157.253 245.981 155.292 246.744 153.045C246.963 152.405 247.125 151.739 247.226 151.062C247.686 147.986 246.879 144.914 244.95 142.423C241.074 137.413 233.801 136.291 228.501 139.785C228.356 139.872 228.21 139.964 228.07 140.067C227.503 140.478 226.914 140.467 226.611 140.424C226.309 140.381 225.742 140.229 225.322 139.682C224.895 139.135 224.907 138.566 224.951 138.274C224.991 137.987 225.153 137.44 225.714 137.028C227.772 135.544 229.202 133.54 229.948 131.341C231.131 127.858 230.599 123.882 228.159 120.73C224.194 115.584 216.624 114.528 211.296 118.368Z" fill="#386BFF"/>
<path d="M211.296 118.368C209.064 119.982 208.604 123.032 210.275 125.193C211.947 127.349 215.104 127.793 217.341 126.179C218.211 125.55 219.439 125.724 220.089 126.563C220.516 127.11 220.504 127.679 220.46 127.972C220.415 128.264 220.258 128.811 219.691 129.217C219.646 129.25 219.607 129.282 219.568 129.32C217.061 131.178 215.429 133.854 214.975 136.882C214.515 139.958 215.323 143.029 217.252 145.521C219.181 148.013 221.996 149.632 225.181 150.076C228.367 150.52 231.546 149.741 234.126 147.877C234.693 147.471 235.281 147.476 235.579 147.52C235.881 147.563 236.448 147.715 236.868 148.262C237.295 148.809 237.283 149.378 237.239 149.67C237.194 149.963 237.037 150.51 236.476 150.916C231.148 154.762 230.055 162.074 234.031 167.214C238.012 172.36 245.583 173.416 250.905 169.57C251.769 168.947 252.369 168.108 252.677 167.187C253.171 165.73 252.947 164.067 251.926 162.745C250.255 160.59 247.097 160.146 244.86 161.76C243.991 162.388 242.762 162.215 242.112 161.375C241.686 160.828 241.697 160.259 241.742 159.967C241.787 159.68 241.944 159.127 242.51 158.721C242.516 158.716 242.521 158.71 242.527 158.705C244.529 157.253 245.981 155.292 246.744 153.045C246.963 152.405 247.125 151.739 247.226 151.062C247.686 147.986 246.879 144.914 244.95 142.423C241.074 137.413 233.801 136.291 228.501 139.785C228.356 139.872 228.21 139.964 228.07 140.067C227.503 140.478 226.914 140.467 226.611 140.424C226.309 140.381 225.742 140.229 225.322 139.682C224.895 139.135 224.907 138.566 224.951 138.274C224.991 137.987 225.153 137.44 225.714 137.028C227.772 135.544 229.202 133.54 229.948 131.341C231.131 127.858 230.599 123.882 228.159 120.73C224.194 115.584 216.624 114.528 211.296 118.368Z" stroke="black" stroke-width="4" stroke-miterlimit="10" stroke-linecap="round" stroke-linejoin="round"/>
</g>
<g filter="url(#filter12_d)">
<path d="M81.6345 168.302C80.5353 170.777 81.7186 173.643 84.2814 174.704C86.8443 175.766 89.8109 174.623 90.9101 172.148C91.3363 171.189 92.4971 170.739 93.4897 171.151C94.1403 171.422 94.4263 171.92 94.5384 172.191C94.6506 172.462 94.7964 173.014 94.516 173.643C94.4936 173.691 94.4767 173.74 94.4599 173.789C93.2486 176.611 93.2206 179.714 94.3982 182.553C95.5927 185.44 97.8808 187.709 100.836 188.939C103.797 190.168 107.072 190.206 110.061 189.058C113.05 187.904 115.4 185.694 116.673 182.84C116.954 182.211 117.469 181.935 117.75 181.827C118.03 181.719 118.602 181.578 119.253 181.849C119.903 182.119 120.189 182.618 120.301 182.888C120.414 183.159 120.559 183.712 120.285 184.335C117.66 190.233 120.492 197.096 126.605 199.631C132.712 202.166 139.817 199.425 142.442 193.526C142.868 192.568 142.952 191.555 142.745 190.607C142.419 189.107 141.365 187.774 139.795 187.124C137.232 186.063 134.265 187.205 133.166 189.681C132.74 190.639 131.579 191.089 130.587 190.677C129.936 190.407 129.65 189.908 129.538 189.637C129.426 189.367 129.28 188.814 129.56 188.186C129.566 188.18 129.566 188.17 129.566 188.164C130.547 185.943 130.788 183.538 130.289 181.226C130.143 180.565 129.942 179.915 129.678 179.276C128.484 176.389 126.195 174.119 123.24 172.89C117.29 170.42 110.409 172.96 107.633 178.544C107.549 178.691 107.476 178.837 107.403 178.994C107.123 179.622 106.607 179.899 106.326 180.007C106.046 180.115 105.474 180.256 104.823 179.985C104.173 179.714 103.887 179.216 103.775 178.945C103.663 178.674 103.517 178.122 103.792 177.499C104.807 175.219 105.003 172.792 104.515 170.528C103.736 166.937 101.218 163.757 97.4714 162.203C91.3587 159.668 84.259 162.403 81.6345 168.302Z" fill="#F2C40A"/>
<path d="M81.6345 168.302C80.5353 170.777 81.7186 173.643 84.2814 174.704C86.8443 175.766 89.8109 174.623 90.9101 172.148C91.3363 171.189 92.4971 170.739 93.4897 171.151C94.1403 171.422 94.4263 171.92 94.5384 172.191C94.6506 172.462 94.7964 173.014 94.516 173.643C94.4936 173.691 94.4767 173.74 94.4599 173.789C93.2486 176.611 93.2206 179.714 94.3982 182.553C95.5927 185.44 97.8808 187.709 100.836 188.939C103.797 190.168 107.072 190.206 110.061 189.058C113.05 187.904 115.4 185.694 116.673 182.84C116.954 182.211 117.469 181.935 117.75 181.827C118.03 181.719 118.602 181.578 119.253 181.849C119.903 182.119 120.189 182.618 120.301 182.888C120.414 183.159 120.559 183.712 120.285 184.335C117.66 190.233 120.492 197.096 126.605 199.631C132.712 202.166 139.817 199.425 142.442 193.526C142.868 192.568 142.952 191.555 142.745 190.607C142.419 189.107 141.365 187.774 139.795 187.124C137.232 186.063 134.265 187.205 133.166 189.681C132.74 190.639 131.579 191.089 130.587 190.677C129.936 190.407 129.65 189.908 129.538 189.637C129.426 189.367 129.28 188.814 129.56 188.186C129.566 188.18 129.566 188.17 129.566 188.164C130.547 185.943 130.788 183.538 130.289 181.226C130.143 180.565 129.942 179.915 129.678 179.276C128.484 176.389 126.195 174.119 123.24 172.89C117.29 170.42 110.409 172.96 107.633 178.544C107.549 178.691 107.476 178.837 107.403 178.994C107.123 179.622 106.607 179.899 106.326 180.007C106.046 180.115 105.474 180.256 104.823 179.985C104.173 179.714 103.887 179.216 103.775 178.945C103.663 178.674 103.517 178.122 103.792 177.499C104.807 175.219 105.003 172.792 104.515 170.528C103.736 166.937 101.218 163.757 97.4714 162.203C91.3587 159.668 84.259 162.403 81.6345 168.302Z" stroke="black" stroke-width="4" stroke-miterlimit="10" stroke-linecap="round" stroke-linejoin="round"/>
</g>
<g filter="url(#filter13_d)">
<path d="M151.352 258.021C159.095 258.021 165.372 251.958 165.372 244.48C165.372 237.001 159.095 230.938 151.352 230.938C143.609 230.938 137.332 237.001 137.332 244.48C137.332 251.958 143.609 258.021 151.352 258.021Z" fill="#F2C40A"/>
<path d="M151.352 258.021C159.095 258.021 165.372 251.958 165.372 244.48C165.372 237.001 159.095 230.938 151.352 230.938C143.609 230.938 137.332 237.001 137.332 244.48C137.332 251.958 143.609 258.021 151.352 258.021Z" stroke="black" stroke-width="4" stroke-miterlimit="10" stroke-linecap="round" stroke-linejoin="round"/>
</g>
<g filter="url(#filter14_d)">
<path d="M652.864 166.025C652.151 165.884 651.456 165.603 650.822 165.18C648.276 163.485 647.631 160.121 649.381 157.662C649.723 157.18 657.911 145.811 672.918 136.765C686.915 128.326 709.672 120.386 738.61 130.487C741.52 131.506 743.029 134.609 741.98 137.421C740.926 140.232 737.712 141.689 734.802 140.676C715.112 133.802 696.404 135.509 679.199 145.751C666.054 153.578 658.69 163.707 658.617 163.81C657.3 165.646 655 166.453 652.864 166.025Z" fill="#386BFF" stroke="black" stroke-width="4" stroke-miterlimit="10" stroke-linecap="round" stroke-linejoin="round"/>
</g>
<g filter="url(#filter15_d)">
<path d="M176.538 154.251C174.469 154.69 172.231 153.975 170.863 152.236C143.16 117.008 99.6977 113.752 70.8951 121.649C67.9173 122.467 64.8161 120.799 63.9693 117.923C63.1225 115.047 64.8497 112.051 67.8276 111.234C100.023 102.394 148.672 106.104 179.796 145.688C181.67 148.071 181.187 151.467 178.72 153.276C178.058 153.769 177.312 154.089 176.538 154.251Z" fill="#FF1463" stroke="black" stroke-width="4" stroke-miterlimit="10" stroke-linecap="round" stroke-linejoin="round"/>
</g>
<g filter="url(#filter16_d)">
<path d="M666.469 188.167C668.235 189.293 670.59 189.402 672.514 188.253C711.473 164.99 753.241 177.036 777.181 194.407C779.66 196.205 783.171 195.723 785.033 193.334C786.894 190.945 786.395 187.549 783.922 185.751C757.167 166.327 710.385 152.905 666.614 179.04C663.979 180.611 663.165 183.953 664.792 186.493C665.235 187.186 665.812 187.75 666.469 188.167Z" fill="#F2C40A" stroke="black" stroke-width="4" stroke-miterlimit="10" stroke-linecap="round" stroke-linejoin="round"/>
</g>
</g>
<defs>
<filter id="filter0_d" x="229.255" y="223.96" width="39.2758" height="38.2078" filterUnits="userSpaceOnUse" color-interpolation-filters="sRGB">
<feFlood flood-opacity="0" result="BackgroundImageFix"/>
<feColorMatrix in="SourceAlpha" type="matrix" values="0 0 0 0 0 0 0 0 0 0 0 0 0 0 0 0 0 0 127 0"/>
<feOffset dx="4" dy="4"/>
<feColorMatrix type="matrix" values="0 0 0 0 0 0 0 0 0 0 0 0 0 0 0 0 0 0 1 0"/>
<feBlend mode="normal" in2="BackgroundImageFix" result="effect1_dropShadow"/>
<feBlend mode="normal" in="SourceGraphic" in2="effect1_dropShadow" result="shape"/>
</filter>
<filter id="filter1_d" x="640.258" y="220.334" width="37.498" height="39.1178" filterUnits="userSpaceOnUse" color-interpolation-filters="sRGB">
<feFlood flood-opacity="0" result="BackgroundImageFix"/>
<feColorMatrix in="SourceAlpha" type="matrix" values="0 0 0 0 0 0 0 0 0 0 0 0 0 0 0 0 0 0 127 0"/>
<feOffset dx="4" dy="4"/>
<feColorMatrix type="matrix" values="0 0 0 0 0 0 0 0 0 0 0 0 0 0 0 0 0 0 1 0"/>
<feBlend mode="normal" in2="BackgroundImageFix" result="effect1_dropShadow"/>
<feBlend mode="normal" in="SourceGraphic" in2="effect1_dropShadow" result="shape"/>
</filter>
<filter id="filter2_d" x="721.44" y="217.36" width="39.2758" height="38.2024" filterUnits="userSpaceOnUse" color-interpolation-filters="sRGB">
<feFlood flood-opacity="0" result="BackgroundImageFix"/>
<feColorMatrix in="SourceAlpha" type="matrix" values="0 0 0 0 0 0 0 0 0 0 0 0 0 0 0 0 0 0 127 0"/>
<feOffset dx="4" dy="4"/>
<feColorMatrix type="matrix" values="0 0 0 0 0 0 0 0 0 0 0 0 0 0 0 0 0 0 1 0"/>
<feBlend mode="normal" in2="BackgroundImageFix" result="effect1_dropShadow"/>
<feBlend mode="normal" in="SourceGraphic" in2="effect1_dropShadow" result="shape"/>
</filter>
<filter id="filter3_d" x="549.626" y="217.26" width="46.7436" height="45.3092" filterUnits="userSpaceOnUse" color-interpolation-filters="sRGB">
<feFlood flood-opacity="0" result="BackgroundImageFix"/>
<feColorMatrix in="SourceAlpha" type="matrix" values="0 0 0 0 0 0 0 0 0 0 0 0 0 0 0 0 0 0 127 0"/>
<feOffset dx="4" dy="4"/>
<feColorMatrix type="matrix" values="0 0 0 0 0 0 0 0 0 0 0 0 0 0 0 0 0 0 1 0"/>
<feBlend mode="normal" in2="BackgroundImageFix" result="effect1_dropShadow"/>
<feBlend mode="normal" in="SourceGraphic" in2="effect1_dropShadow" result="shape"/>
</filter>
<filter id="filter4_d" x="548.78" y="88.0283" width="46.7436" height="45.3092" filterUnits="userSpaceOnUse" color-interpolation-filters="sRGB">
<feFlood flood-opacity="0" result="BackgroundImageFix"/>
<feColorMatrix in="SourceAlpha" type="matrix" values="0 0 0 0 0 0 0 0 0 0 0 0 0 0 0 0 0 0 127 0"/>
<feOffset dx="4" dy="4"/>
<feColorMatrix type="matrix" values="0 0 0 0 0 0 0 0 0 0 0 0 0 0 0 0 0 0 1 0"/>
<feBlend mode="normal" in2="BackgroundImageFix" result="effect1_dropShadow"/>
<feBlend mode="normal" in="SourceGraphic" in2="effect1_dropShadow" result="shape"/>
</filter>
<filter id="filter5_d" x="29.032" y="203.786" width="46.7436" height="45.3092" filterUnits="userSpaceOnUse" color-interpolation-filters="sRGB">
<feFlood flood-opacity="0" result="BackgroundImageFix"/>
<feColorMatrix in="SourceAlpha" type="matrix" values="0 0 0 0 0 0 0 0 0 0 0 0 0 0 0 0 0 0 127 0"/>
<feOffset dx="4" dy="4"/>
<feColorMatrix type="matrix" values="0 0 0 0 0 0 0 0 0 0 0 0 0 0 0 0 0 0 1 0"/>
<feBlend mode="normal" in2="BackgroundImageFix" result="effect1_dropShadow"/>
<feBlend mode="normal" in="SourceGraphic" in2="effect1_dropShadow" result="shape"/>
</filter>
<filter id="filter6_d" x="147.203" y="56.0283" width="46.7436" height="45.3092" filterUnits="userSpaceOnUse" color-interpolation-filters="sRGB">
<feFlood flood-opacity="0" result="BackgroundImageFix"/>
<feColorMatrix in="SourceAlpha" type="matrix" values="0 0 0 0 0 0 0 0 0 0 0 0 0 0 0 0 0 0 127 0"/>
<feOffset dx="4" dy="4"/>
<feColorMatrix type="matrix" values="0 0 0 0 0 0 0 0 0 0 0 0 0 0 0 0 0 0 1 0"/>
<feBlend mode="normal" in2="BackgroundImageFix" result="effect1_dropShadow"/>
<feBlend mode="normal" in="SourceGraphic" in2="effect1_dropShadow" result="shape"/>
</filter>
<filter id="filter7_d" x="573.49" y="157.356" width="36.0399" height="35.0824" filterUnits="userSpaceOnUse" color-interpolation-filters="sRGB">
<feFlood flood-opacity="0" result="BackgroundImageFix"/>
<feColorMatrix in="SourceAlpha" type="matrix" values="0 0 0 0 0 0 0 0 0 0 0 0 0 0 0 0 0 0 127 0"/>
<feOffset dx="4" dy="4"/>
<feColorMatrix type="matrix" values="0 0 0 0 0 0 0 0 0 0 0 0 0 0 0 0 0 0 1 0"/>
<feBlend mode="normal" in2="BackgroundImageFix" result="effect1_dropShadow"/>
<feBlend mode="normal" in="SourceGraphic" in2="effect1_dropShadow" result="shape"/>
</filter>
<filter id="filter8_d" x="250.936" y="68.4053" width="36.0399" height="35.0824" filterUnits="userSpaceOnUse" color-interpolation-filters="sRGB">
<feFlood flood-opacity="0" result="BackgroundImageFix"/>
<feColorMatrix in="SourceAlpha" type="matrix" values="0 0 0 0 0 0 0 0 0 0 0 0 0 0 0 0 0 0 127 0"/>
<feOffset dx="4" dy="4"/>
<feColorMatrix type="matrix" values="0 0 0 0 0 0 0 0 0 0 0 0 0 0 0 0 0 0 1 0"/>
<feBlend mode="normal" in2="BackgroundImageFix" result="effect1_dropShadow"/>
<feBlend mode="normal" in="SourceGraphic" in2="effect1_dropShadow" result="shape"/>
</filter>
<filter id="filter9_d" x="709.035" y="65" width="36.0399" height="35.0824" filterUnits="userSpaceOnUse" color-interpolation-filters="sRGB">
<feFlood flood-opacity="0" result="BackgroundImageFix"/>
<feColorMatrix in="SourceAlpha" type="matrix" values="0 0 0 0 0 0 0 0 0 0 0 0 0 0 0 0 0 0 127 0"/>
<feOffset dx="4" dy="4"/>
<feColorMatrix type="matrix" values="0 0 0 0 0 0 0 0 0 0 0 0 0 0 0 0 0 0 1 0"/>
<feBlend mode="normal" in2="BackgroundImageFix" result="effect1_dropShadow"/>
<feBlend mode="normal" in="SourceGraphic" in2="effect1_dropShadow" result="shape"/>
</filter>
<filter id="filter10_d" x="613.686" y="69.593" width="53.1729" height="64.6472" filterUnits="userSpaceOnUse" color-interpolation-filters="sRGB">
<feFlood flood-opacity="0" result="BackgroundImageFix"/>
<feColorMatrix in="SourceAlpha" type="matrix" values="0 0 0 0 0 0 0 0 0 0 0 0 0 0 0 0 0 0 127 0"/>
<feOffset dx="4" dy="4"/>
<feColorMatrix type="matrix" values="0 0 0 0 0 0 0 0 0 0 0 0 0 0 0 0 0 0 1 0"/>
<feBlend mode="normal" in2="BackgroundImageFix" result="effect1_dropShadow"/>
<feBlend mode="normal" in="SourceGraphic" in2="effect1_dropShadow" result="shape"/>
</filter>
<filter id="filter11_d" x="207.269" y="114.058" width="51.6595" height="63.826" filterUnits="userSpaceOnUse" color-interpolation-filters="sRGB">
<feFlood flood-opacity="0" result="BackgroundImageFix"/>
<feColorMatrix in="SourceAlpha" type="matrix" values="0 0 0 0 0 0 0 0 0 0 0 0 0 0 0 0 0 0 127 0"/>
<feOffset dx="4" dy="4"/>
<feColorMatrix type="matrix" values="0 0 0 0 0 0 0 0 0 0 0 0 0 0 0 0 0 0 1 0"/>
<feBlend mode="normal" in2="BackgroundImageFix" result="effect1_dropShadow"/>
<feBlend mode="normal" in="SourceGraphic" in2="effect1_dropShadow" result="shape"/>
</filter>
<filter id="filter12_d" x="79.2217" y="159.258" width="69.6315" height="47.3173" filterUnits="userSpaceOnUse" color-interpolation-filters="sRGB">
<feFlood flood-opacity="0" result="BackgroundImageFix"/>
<feColorMatrix in="SourceAlpha" type="matrix" values="0 0 0 0 0 0 0 0 0 0 0 0 0 0 0 0 0 0 127 0"/>
<feOffset dx="4" dy="4"/>
<feColorMatrix type="matrix" values="0 0 0 0 0 0 0 0 0 0 0 0 0 0 0 0 0 0 1 0"/>
<feBlend mode="normal" in2="BackgroundImageFix" result="effect1_dropShadow"/>
<feBlend mode="normal" in="SourceGraphic" in2="effect1_dropShadow" result="shape"/>
</filter>
<filter id="filter13_d" x="135.332" y="228.938" width="36.0399" height="35.0824" filterUnits="userSpaceOnUse" color-interpolation-filters="sRGB">
<feFlood flood-opacity="0" result="BackgroundImageFix"/>
<feColorMatrix in="SourceAlpha" type="matrix" values="0 0 0 0 0 0 0 0 0 0 0 0 0 0 0 0 0 0 127 0"/>
<feOffset dx="4" dy="4"/>
<feColorMatrix type="matrix" values="0 0 0 0 0 0 0 0 0 0 0 0 0 0 0 0 0 0 1 0"/>
<feBlend mode="normal" in2="BackgroundImageFix" result="effect1_dropShadow"/>
<feBlend mode="normal" in="SourceGraphic" in2="effect1_dropShadow" result="shape"/>
</filter>
<filter id="filter14_d" x="646.396" y="123.749" width="101.92" height="48.3877" filterUnits="userSpaceOnUse" color-interpolation-filters="sRGB">
<feFlood flood-opacity="0" result="BackgroundImageFix"/>
<feColorMatrix in="SourceAlpha" type="matrix" values="0 0 0 0 0 0 0 0 0 0 0 0 0 0 0 0 0 0 127 0"/>
<feOffset dx="4" dy="4"/>
<feColorMatrix type="matrix" values="0 0 0 0 0 0 0 0 0 0 0 0 0 0 0 0 0 0 1 0"/>
<feBlend mode="normal" in2="BackgroundImageFix" result="effect1_dropShadow"/>
<feBlend mode="normal" in="SourceGraphic" in2="effect1_dropShadow" result="shape"/>
</filter>
<filter id="filter15_d" x="61.752" y="105.275" width="125.187" height="55.1016" filterUnits="userSpaceOnUse" color-interpolation-filters="sRGB">
<feFlood flood-opacity="0" result="BackgroundImageFix"/>
<feColorMatrix in="SourceAlpha" type="matrix" values="0 0 0 0 0 0 0 0 0 0 0 0 0 0 0 0 0 0 127 0"/>
<feOffset dx="4" dy="4"/>
<feColorMatrix type="matrix" values="0 0 0 0 0 0 0 0 0 0 0 0 0 0 0 0 0 0 1 0"/>
<feBlend mode="normal" in2="BackgroundImageFix" result="effect1_dropShadow"/>
<feBlend mode="normal" in="SourceGraphic" in2="effect1_dropShadow" result="shape"/>
</filter>
<filter id="filter16_d" x="661.953" y="162.515" width="130.206" height="38.9788" filterUnits="userSpaceOnUse" color-interpolation-filters="sRGB">
<feFlood flood-opacity="0" result="BackgroundImageFix"/>
<feColorMatrix in="SourceAlpha" type="matrix" values="0 0 0 0 0 0 0 0 0 0 0 0 0 0 0 0 0 0 127 0"/>
<feOffset dx="4" dy="4"/>
<feColorMatrix type="matrix" values="0 0 0 0 0 0 0 0 0 0 0 0 0 0 0 0 0 0 1 0"/>
<feBlend mode="normal" in2="BackgroundImageFix" result="effect1_dropShadow"/>
<feBlend mode="normal" in="SourceGraphic" in2="effect1_dropShadow" result="shape"/>
</filter>
<clipPath id="clip0">
<rect width="820" height="312" fill="white"/>
</clipPath>
</defs>
</svg>
