<?xml version="1.0" encoding="utf-8"?>
<!-- Generator: Adobe Illustrator 21.1.0, SVG Export Plug-In . SVG Version: 6.00 Build 0)  -->
<svg version="1.1" id="Layer_1" xmlns="http://www.w3.org/2000/svg" xmlns:xlink="http://www.w3.org/1999/xlink" x="0px" y="0px"
	 viewBox="0 0 16 16" style="enable-background:new 0 0 16 16;" xml:space="preserve">
<style type="text/css">
	.st0{fill:#46CCCF;}
</style>
<path class="st0" d="M8,0C5.8,0,5.6,0,4.7,0S3.3,0.2,2.8,0.4s-1,0.5-1.4,0.9c-0.5,0.5-0.8,0.9-1,1.5C0.2,3.3,0.1,3.8,0,4.7
	C0,5.6,0,5.8,0,8s0,2.4,0,3.3c0,0.9,0.2,1.4,0.4,1.9s0.5,1,0.9,1.4s0.9,0.7,1.4,0.9s1.1,0.3,1.9,0.4c0.9,0,1.1,0,3.3,0s2.4,0,3.3,0
	c0.9,0,1.4-0.2,1.9-0.4s1-0.5,1.4-0.9s0.7-0.9,0.9-1.4s0.3-1.1,0.4-1.9c0-0.9,0-1.1,0-3.3s0-2.4,0-3.3s-0.2-1.4-0.4-1.9
	s-0.5-1-0.9-1.4s-0.9-0.7-1.4-0.9S12,0.2,11.2,0.1C10.4,0,10.2,0,8,0z M8,1.4c2.1,0,2.4,0,3.2,0s1.2,0.2,1.5,0.3
	c0.4,0.1,0.6,0.3,0.9,0.6s0.5,0.5,0.6,0.9c0.1,0.3,0.2,0.7,0.3,1.5c0,0.8,0,1.1,0,3.2s0,2.4-0.1,3.2c0,0.8-0.2,1.2-0.3,1.5
	c-0.1,0.4-0.3,0.6-0.6,0.9c-0.3,0.3-0.6,0.5-0.9,0.6c-0.3,0.1-0.7,0.2-1.5,0.3c-0.9,0-1.1,0-3.2,0s-2.4,0-3.2-0.1
	c-0.8,0-1.2-0.2-1.5-0.3c-0.4-0.1-0.6-0.3-0.9-0.6s-0.5-0.6-0.6-0.9c-0.1-0.3-0.2-0.7-0.3-1.5c0-0.8,0-1.1,0-3.2s0-2.4,0-3.2
	s0.2-1.2,0.3-1.5C1.9,2.9,2,2.6,2.3,2.3s0.5-0.5,0.9-0.6c0.3-0.1,0.7-0.2,1.5-0.3C5.6,1.4,5.8,1.4,8,1.4L8,1.4z M8,3.9
	C5.7,3.9,3.9,5.7,3.9,8s1.8,4.1,4.1,4.1s4.1-1.8,4.1-4.1S10.3,3.9,8,3.9z M8,10.7c-1.5,0-2.7-1.2-2.7-2.7S6.5,5.3,8,5.3
	s2.7,1.2,2.7,2.7S9.5,10.7,8,10.7z M13.2,3.7c0,0.5-0.4,1-1,1s-1-0.4-1-1s0.4-1,1-1S13.2,3.2,13.2,3.7z"/>
</svg>
