<svg xmlns="http://www.w3.org/2000/svg" viewBox="0 0 200 200"><defs><style>.cls-1{fill:none;stroke-width:3px;}.cls-1,.cls-2{stroke:#3dccd0;stroke-miterlimit:10;}.cls-2{fill:#3dccd0;stroke-width:0.25px;}</style></defs><title>network</title><g id="Layer_1" data-name="Layer 1"><circle class="cls-1" cx="97.68" cy="96.47" r="22.84"/><path class="cls-2" d="M107.69,106.05a7.22,7.22,0,0,1-7.08-7.35l.19-10-3.57-.07a7.68,7.68,0,1,0-.3,15.35l2.23,0,0,1.76-2.23,0a9.44,9.44,0,1,1,.36-18.87l5.33.1-.23,11.74a5.46,5.46,0,0,0,5.35,5.56Z"/><line class="cls-1" x1="106.8" y1="77.18" x2="120.22" y2="53.62"/><line class="cls-1" x1="102.54" y1="144.96" x2="100.1" y2="117.96"/><circle class="cls-1" cx="125.37" cy="43.18" r="11.49" transform="translate(34.25 139.51) rotate(-65.59)"/><circle class="cls-1" cx="102.93" cy="156.82" r="11.49" transform="translate(-26.65 21.19) rotate(-10.41)"/><line class="cls-1" x1="62.33" y1="63.64" x2="81.01" y2="82.24"/><path class="cls-1" d="M45.45,48.87a11.27,11.27,0,0,1,15.82-1.45,11.15,11.15,0,0,1,1.45,15.75,11.27,11.27,0,0,1-15.82,1.45A11.15,11.15,0,0,1,45.45,48.87Z"/><line class="cls-1" x1="55.67" y1="120.71" x2="77.84" y2="106.05"/><circle class="cls-1" cx="46" cy="126.6" r="11.31" transform="translate(-54.4 36.81) rotate(-28.22)"/><line class="cls-1" x1="141.58" y1="107.31" x2="119.38" y2="100.4"/><circle class="cls-1" cx="153.82" cy="110.7" r="11.49" transform="translate(13.46 238.03) rotate(-77.96)"/></g></svg>