<svg id="Layer_1" data-name="Layer 1" xmlns="http://www.w3.org/2000/svg" viewBox="0 0 170 120"><defs><style>.cls-1{opacity:0.25;}.cls-2{fill:#281e35;}.cls-3{fill:#2071ff;}.cls-4{fill:#f2c227;}.cls-5{fill:#f9f4d8;}.cls-6{fill:#9cf;}.cls-7{fill:#ff3250;}.cls-8{fill:#f59698;}</style></defs><title>home_graphic_mobile</title><g class="cls-1"><ellipse class="cls-2" cx="150.56" cy="69.31" rx="17.62" ry="10.17"/><path class="cls-2" d="M150.56,81c-10.72,0-19.12-5.13-19.12-11.67s8.4-11.68,19.12-11.68,19.12,5.13,19.12,11.68S161.28,81,150.56,81Zm0-20.35c-8.74,0-16.12,4-16.12,8.68S141.82,78,150.56,78s16.12-4,16.12-8.67S159.3,60.63,150.56,60.63Z"/></g><circle class="cls-3" cx="144.66" cy="56.4" r="17.62"/><path class="cls-2" d="M144.66,75.52A19.12,19.12,0,1,1,163.78,56.4,19.14,19.14,0,0,1,144.66,75.52Zm0-35.24A16.12,16.12,0,1,0,160.78,56.4,16.14,16.14,0,0,0,144.66,40.28Z"/><g class="cls-1"><ellipse class="cls-2" cx="64.43" cy="71.47" rx="17.62" ry="10.17"/><path class="cls-2" d="M64.43,83.14c-10.72,0-19.12-5.13-19.12-11.67s8.4-11.68,19.12-11.68,19.12,5.13,19.12,11.68S75.15,83.14,64.43,83.14Zm0-20.35c-8.74,0-16.12,4-16.12,8.68s7.38,8.67,16.12,8.67,16.12-4,16.12-8.67S73.17,62.79,64.43,62.79Z"/></g><ellipse class="cls-4" cx="57.06" cy="66.61" rx="17.62" ry="10.17"/><path class="cls-2" d="M57.06,78.28c-10.72,0-19.12-5.13-19.12-11.67s8.4-11.68,19.12-11.68,19.12,5.13,19.12,11.68S67.78,78.28,57.06,78.28Zm0-20.35c-8.74,0-16.12,4-16.12,8.68s7.38,8.67,16.12,8.67,16.12-4,16.12-8.67S65.8,57.93,57.06,57.93Z"/><polyline class="cls-4" points="74.68 66.61 74.68 13.3 39.44 13.3 39.44 66.61"/><path class="cls-2" d="M74.68,68.11a1.5,1.5,0,0,1-1.5-1.5V14.8H40.94V66.61a1.5,1.5,0,0,1-3,0V13.3a1.5,1.5,0,0,1,1.5-1.5H74.68a1.5,1.5,0,0,1,1.5,1.5V66.61A1.5,1.5,0,0,1,74.68,68.11Z"/><ellipse class="cls-5" cx="57.06" cy="11.67" rx="17.62" ry="10.17"/><path class="cls-2" d="M57.06,23.35c-10.72,0-19.12-5.13-19.12-11.68S46.34,0,57.06,0,76.18,5.13,76.18,11.67,67.78,23.35,57.06,23.35ZM57.06,3c-8.74,0-16.12,4-16.12,8.67s7.38,8.68,16.12,8.68,16.12-4,16.12-8.68S65.8,3,57.06,3Z"/><g class="cls-1"><polygon class="cls-2" points="103.29 77.8 138.54 98.15 103.29 118.5 68.05 98.15 103.29 77.8"/><path class="cls-2" d="M103.29,120a1.53,1.53,0,0,1-.75-.2L67.3,99.45a1.5,1.5,0,0,1,0-2.6L102.54,76.5a1.49,1.49,0,0,1,1.5,0l35.25,20.35a1.5,1.5,0,0,1,0,2.6L104,119.8A1.53,1.53,0,0,1,103.29,120ZM71.05,98.15l32.24,18.62,32.25-18.62L103.29,79.53Z"/></g><polygon class="cls-3" points="84.62 67.1 49.37 46.75 49.37 87.45 84.62 107.8 119.86 87.45 119.86 46.75 84.62 67.1"/><path class="cls-2" d="M84.62,109.29a1.43,1.43,0,0,1-.75-.2L48.62,88.74a1.49,1.49,0,0,1-.75-1.29V46.75a1.51,1.51,0,0,1,.75-1.3,1.49,1.49,0,0,1,1.5,0l34.5,19.92,34.49-19.92a1.5,1.5,0,0,1,2.25,1.3v40.7a1.47,1.47,0,0,1-.75,1.29L85.37,109.09A1.46,1.46,0,0,1,84.62,109.29ZM50.87,86.58l33.75,19.48,33.74-19.48V49.35l-33,19.05a1.54,1.54,0,0,1-1.5,0l-33-19.05Z"/><polygon class="cls-6" points="84.62 26.4 119.86 46.75 84.62 67.1 49.37 46.75 84.62 26.4"/><path class="cls-2" d="M84.62,68.6a1.53,1.53,0,0,1-.75-.2L48.62,48.05a1.5,1.5,0,0,1,0-2.6L83.87,25.1a1.49,1.49,0,0,1,1.5,0l35.24,20.35a1.5,1.5,0,0,1,0,2.6L85.37,68.4A1.56,1.56,0,0,1,84.62,68.6ZM52.37,46.75,84.62,65.37l32.24-18.62L84.62,28.13Z"/><g class="cls-1"><ellipse class="cls-2" cx="137.36" cy="102.55" rx="17.62" ry="10.17"/><path class="cls-2" d="M137.36,114.22c-10.72,0-19.12-5.13-19.12-11.67s8.4-11.68,19.12-11.68,19.12,5.13,19.12,11.68S148.08,114.22,137.36,114.22Zm0-20.35c-8.74,0-16.12,4-16.12,8.68s7.38,8.67,16.12,8.67,16.12-4,16.12-8.67S146.1,93.87,137.36,93.87Z"/></g><ellipse class="cls-4" cx="129.99" cy="97.69" rx="17.62" ry="10.17"/><path class="cls-2" d="M130,109.36c-10.72,0-19.12-5.13-19.12-11.67S119.27,86,130,86s19.12,5.13,19.12,11.68S140.71,109.36,130,109.36ZM130,89c-8.74,0-16.12,4-16.12,8.68s7.38,8.67,16.12,8.67,16.12-4,16.12-8.67S138.73,89,130,89Z"/><polyline class="cls-4" points="147.61 97.69 147.61 77.34 112.37 77.34 112.37 97.69"/><path class="cls-2" d="M147.61,99.19a1.5,1.5,0,0,1-1.5-1.5V78.84H113.87V97.69a1.5,1.5,0,0,1-3,0V77.34a1.5,1.5,0,0,1,1.5-1.5h35.24a1.5,1.5,0,0,1,1.5,1.5V97.69A1.5,1.5,0,0,1,147.61,99.19Z"/><ellipse class="cls-5" cx="129.99" cy="77.34" rx="17.62" ry="10.17"/><path class="cls-2" d="M130,89c-10.72,0-19.12-5.13-19.12-11.67s8.4-11.68,19.12-11.68,19.12,5.13,19.12,11.68S140.71,89,130,89Zm0-20.35c-8.74,0-16.12,4-16.12,8.68S121.25,86,130,86s16.12-4,16.12-8.67S138.73,68.66,130,68.66Z"/><g class="cls-1"><polygon class="cls-2" points="102.11 36.65 119.74 46.82 102.11 56.99 84.49 46.82 102.11 36.65"/><path class="cls-2" d="M102.12,58.49a1.43,1.43,0,0,1-.75-.2L83.74,48.12a1.5,1.5,0,0,1,0-2.6l17.63-10.17a1.49,1.49,0,0,1,1.5,0l17.62,10.17a1.5,1.5,0,0,1,0,2.6L102.87,58.29A1.48,1.48,0,0,1,102.12,58.49ZM87.49,46.82l14.63,8.44,14.62-8.44-14.62-8.44Z"/></g><polygon class="cls-7" points="92.78 31.29 75.16 21.12 75.16 41.47 92.78 51.64 110.4 41.47 110.4 21.12 92.78 31.29"/><path class="cls-2" d="M92.78,53.14a1.53,1.53,0,0,1-.75-.2L74.41,42.77a1.5,1.5,0,0,1-.75-1.3V21.12a1.5,1.5,0,0,1,2.25-1.3l16.87,9.74,16.87-9.74a1.49,1.49,0,0,1,1.5,0,1.51,1.51,0,0,1,.75,1.3V41.47a1.52,1.52,0,0,1-.75,1.3L93.53,52.94A1.53,1.53,0,0,1,92.78,53.14ZM76.66,40.6l16.12,9.31L108.9,40.6V23.72L93.53,32.59a1.49,1.49,0,0,1-1.5,0L76.66,23.72Z"/><polygon class="cls-8" points="92.78 10.94 110.4 21.12 92.78 31.29 75.16 21.12 92.78 10.94"/><path class="cls-2" d="M92.78,32.79a1.43,1.43,0,0,1-.75-.2L74.41,22.42a1.5,1.5,0,0,1,0-2.6L92,9.64a1.54,1.54,0,0,1,1.5,0l17.62,10.18a1.5,1.5,0,0,1,0,2.6L93.53,32.59A1.43,1.43,0,0,1,92.78,32.79ZM78.16,21.12l14.62,8.44,14.62-8.44L92.78,12.68Z"/><g class="cls-1"><polyline class="cls-2" points="36.99 97.46 45.81 112.72 10.55 106.27"/><path class="cls-2" d="M45.81,114.22l-.27,0-35.26-6.45a1.51,1.51,0,0,1,.55-3l32.06,5.87-7.2-12.45a1.5,1.5,0,1,1,2.6-1.5L47.11,112a1.51,1.51,0,0,1-.08,1.62A1.49,1.49,0,0,1,45.81,114.22Z"/></g><path class="cls-7" d="M1.73,97.19,19.36,66.67,37,97.19h0c0,5.62-7.89,10.17-17.62,10.17S1.73,102.81,1.73,97.19Z"/><path class="cls-2" d="M19.36,108.86C8.63,108.86.23,103.74.23,97.19a1.44,1.44,0,0,1,.21-.75L18.06,65.92a1.49,1.49,0,0,1,1.3-.75h0a1.5,1.5,0,0,1,1.3.75L38.28,96.44a1.53,1.53,0,0,1,.2.75C38.48,103.74,30.08,108.86,19.36,108.86ZM3.25,97.56c.38,4.54,7.6,8.3,16.11,8.3s15.72-3.76,16.1-8.3L19.36,69.67Z"/></svg>