<svg id="Layer_1" data-name="Layer 1" xmlns="http://www.w3.org/2000/svg" viewBox="0 0 443.45 120"><defs><style>.cls-1{opacity:0.25;}.cls-2{fill:#281e35;}.cls-3{fill:#ff3250;}.cls-4{fill:#2071ff;}.cls-5{fill:#bcd4ff;}.cls-6{fill:#f2c227;}.cls-7{fill:#f9f4d8;}.cls-8{fill:#f0c125;}.cls-9{fill:#f99;}</style></defs><title>speaker_graphic</title><g class="cls-1"><ellipse class="cls-2" cx="25.02" cy="85.7" rx="17.62" ry="10.17"/><path class="cls-2" d="M25,97.38C14.3,97.38,5.9,92.25,5.9,85.7S14.3,74,25,74,44.14,79.15,44.14,85.7,35.74,97.38,25,97.38ZM25,77C16.28,77,8.9,81,8.9,85.7S16.28,94.38,25,94.38s16.12-4,16.12-8.68S33.76,77,25,77Z"/></g><circle class="cls-3" cx="19.12" cy="72.79" r="17.62"/><path class="cls-2" d="M19.12,91.92A19.13,19.13,0,1,1,38.25,72.79,19.15,19.15,0,0,1,19.12,91.92Zm0-35.25A16.13,16.13,0,1,0,35.25,72.79,16.14,16.14,0,0,0,19.12,56.67Z"/><g class="cls-1"><ellipse class="cls-2" cx="337.77" cy="36.83" rx="17.62" ry="10.17"/><path class="cls-2" d="M337.77,48.5c-10.72,0-19.12-5.13-19.12-11.67s8.4-11.68,19.12-11.68,19.12,5.13,19.12,11.68S348.49,48.5,337.77,48.5Zm0-20.35c-8.74,0-16.12,4-16.12,8.68S329,45.5,337.77,45.5s16.12-4,16.12-8.67S346.51,28.15,337.77,28.15Z"/></g><ellipse class="cls-4" cx="330.4" cy="31.96" rx="17.62" ry="10.17"/><path class="cls-2" d="M330.4,43.64c-10.72,0-19.12-5.13-19.12-11.68s8.4-11.67,19.12-11.67S349.52,25.42,349.52,32,341.12,43.64,330.4,43.64Zm0-20.35c-8.74,0-16.12,4-16.12,8.67s7.38,8.68,16.12,8.68,16.12-4,16.12-8.68S339.14,23.29,330.4,23.29Z"/><polyline class="cls-4" points="348.02 31.96 348.02 11.62 312.78 11.62 312.78 31.96"/><path class="cls-2" d="M348,33.46a1.5,1.5,0,0,1-1.5-1.5V13.12H314.28V32a1.5,1.5,0,0,1-3,0V11.62a1.5,1.5,0,0,1,1.5-1.5H348a1.5,1.5,0,0,1,1.5,1.5V32A1.5,1.5,0,0,1,348,33.46Z"/><ellipse class="cls-5" cx="330.4" cy="11.62" rx="17.62" ry="10.17"/><path class="cls-2" d="M330.4,23.29c-10.72,0-19.12-5.13-19.12-11.67S319.68-.06,330.4-.06s19.12,5.13,19.12,11.68S341.12,23.29,330.4,23.29Zm0-20.35c-8.74,0-16.12,4-16.12,8.68s7.38,8.67,16.12,8.67,16.12-4,16.12-8.67S339.14,2.94,330.4,2.94Z"/><g class="cls-1"><polygon class="cls-2" points="424.32 81.92 441.95 92.09 424.32 102.27 406.7 92.09 424.32 81.92"/><path class="cls-2" d="M424.33,103.77a1.53,1.53,0,0,1-.75-.2L406,93.39a1.49,1.49,0,0,1,0-2.59l17.63-10.18a1.49,1.49,0,0,1,1.5,0L442.7,90.8a1.49,1.49,0,0,1,0,2.59l-17.62,10.18A1.59,1.59,0,0,1,424.33,103.77ZM409.7,92.09l14.63,8.45L439,92.09l-14.62-8.44Z"/></g><polygon class="cls-6" points="414.99 76.57 397.37 66.39 397.37 86.74 414.99 96.92 432.61 86.74 432.61 66.39 414.99 76.57"/><path class="cls-2" d="M415,98.42a1.44,1.44,0,0,1-.75-.21L396.62,88a1.49,1.49,0,0,1-.75-1.3V66.39a1.5,1.5,0,0,1,.75-1.3,1.54,1.54,0,0,1,1.5,0L415,74.84l16.87-9.75a1.54,1.54,0,0,1,1.5,0,1.52,1.52,0,0,1,.75,1.3V86.74a1.51,1.51,0,0,1-.75,1.3L415.74,98.21A1.44,1.44,0,0,1,415,98.42ZM398.87,85.88,415,95.18l16.12-9.3V69l-15.37,8.88a1.54,1.54,0,0,1-1.5,0L398.87,69Z"/><polygon class="cls-7" points="414.99 56.22 432.61 66.39 414.99 76.57 397.37 66.39 414.99 56.22"/><path class="cls-2" d="M415,78.07a1.53,1.53,0,0,1-.75-.2L396.62,67.69a1.5,1.5,0,0,1,0-2.6l17.62-10.17a1.49,1.49,0,0,1,1.5,0l17.62,10.17a1.5,1.5,0,0,1,0,2.6L415.74,77.87A1.53,1.53,0,0,1,415,78.07ZM400.37,66.39,415,74.84l14.62-8.45L415,58Z"/><g class="cls-1"><polyline class="cls-2" points="159.88 50.21 122.07 72.03 140.97 82.95 178.78 61.12 159.88 50.21"/><path class="cls-2" d="M141,84.45a1.56,1.56,0,0,1-.75-.2l-18.9-10.92a1.5,1.5,0,0,1,0-2.6l37.81-21.82a1.49,1.49,0,0,1,1.5,0l18.9,10.91a1.5,1.5,0,0,1,0,2.6L141.72,84.25A1.53,1.53,0,0,1,141,84.45ZM125.07,72,141,81.22l34.81-20.1-15.9-9.18Z"/></g><polygon class="cls-8" points="133.59 56.96 171.4 35.13 171.4 56.96 133.59 78.79 114.69 67.87 114.69 46.05 133.59 56.96"/><path class="cls-2" d="M133.59,80.29a1.56,1.56,0,0,1-.75-.2l-18.9-10.92a1.5,1.5,0,0,1-.75-1.3V46.05a1.51,1.51,0,0,1,.75-1.3,1.49,1.49,0,0,1,1.5,0l18.15,10.48,37.06-21.4a1.54,1.54,0,0,1,1.5,0,1.52,1.52,0,0,1,.75,1.3V57a1.51,1.51,0,0,1-.75,1.3L134.34,80.09A1.53,1.53,0,0,1,133.59,80.29ZM116.19,67l17.4,10,36.31-21V37.73L134.34,58.26a1.49,1.49,0,0,1-1.5,0l-16.65-9.61Z"/><polyline class="cls-7" points="152.5 24.22 114.69 46.05 133.59 56.96 171.4 35.13 152.5 24.22"/><path class="cls-2" d="M133.59,58.46a1.56,1.56,0,0,1-.75-.2l-18.9-10.91a1.5,1.5,0,0,1,0-2.6l37.81-21.83a1.49,1.49,0,0,1,1.5,0l18.9,10.92a1.49,1.49,0,0,1,0,2.59L134.34,58.26A1.53,1.53,0,0,1,133.59,58.46Zm-15.9-12.41,15.9,9.18,34.81-20.1L152.5,26Z"/><g class="cls-1"><ellipse class="cls-2" cx="204.34" cy="69.07" rx="35.25" ry="20.35"/><path class="cls-2" d="M204.34,90.92c-20.26,0-36.74-9.8-36.74-21.85s16.48-21.85,36.74-21.85,36.75,9.8,36.75,21.85S224.6,90.92,204.34,90.92Zm0-40.7c-18.61,0-33.74,8.46-33.74,18.85s15.13,18.85,33.74,18.85,33.75-8.46,33.75-18.85S223,50.22,204.34,50.22Z"/></g><circle class="cls-4" cx="192.55" cy="43.26" r="35.25"/><path class="cls-2" d="M192.55,80a36.75,36.75,0,1,1,36.74-36.74A36.79,36.79,0,0,1,192.55,80Zm0-70.49a33.75,33.75,0,1,0,33.74,33.75A33.79,33.79,0,0,0,192.55,9.51Z"/><g class="cls-1"><polygon class="cls-2" points="237.99 71.75 255.61 81.92 237.99 92.09 220.37 81.92 237.99 71.75"/><path class="cls-2" d="M238,93.59a1.43,1.43,0,0,1-.75-.2L219.62,83.22a1.5,1.5,0,0,1,0-2.6l17.62-10.17a1.49,1.49,0,0,1,1.5,0l17.62,10.17a1.5,1.5,0,0,1,0,2.6L238.74,93.39A1.43,1.43,0,0,1,238,93.59ZM223.37,81.92,238,90.36l14.62-8.44L238,73.48Z"/></g><polygon class="cls-3" points="228.65 66.39 211.03 56.22 211.03 76.57 228.65 86.74 246.27 76.57 246.27 56.22 228.65 66.39"/><path class="cls-2" d="M228.65,88.24a1.53,1.53,0,0,1-.75-.2L210.28,77.87a1.52,1.52,0,0,1-.75-1.3V56.22a1.51,1.51,0,0,1,.75-1.3,1.49,1.49,0,0,1,1.5,0l16.87,9.74,16.87-9.74a1.5,1.5,0,0,1,2.25,1.3V76.57a1.5,1.5,0,0,1-.75,1.3L229.4,88A1.53,1.53,0,0,1,228.65,88.24ZM212.53,75.7,228.65,85l16.12-9.31V58.82L229.4,67.69a1.49,1.49,0,0,1-1.5,0l-15.37-8.87Z"/><polygon class="cls-9" points="228.65 46.04 246.27 56.22 228.65 66.39 211.03 56.22 228.65 46.04"/><path class="cls-2" d="M228.65,67.89a1.43,1.43,0,0,1-.75-.2L210.28,57.52a1.5,1.5,0,0,1,0-2.6L227.9,44.74a1.54,1.54,0,0,1,1.5,0L247,54.92a1.5,1.5,0,0,1,0,2.6L229.4,67.69A1.43,1.43,0,0,1,228.65,67.89ZM214,56.22l14.62,8.44,14.62-8.44-14.62-8.44Z"/><g class="cls-1"><polyline class="cls-2" points="209.97 90.71 218.79 105.98 183.54 99.52"/><path class="cls-2" d="M218.79,107.48a1.24,1.24,0,0,1-.27,0L183.27,101a1.5,1.5,0,1,1,.54-3l32.06,5.87-7.2-12.46a1.5,1.5,0,0,1,2.6-1.5l8.82,15.26a1.5,1.5,0,0,1-1.3,2.26Z"/></g><path class="cls-6" d="M174.72,90.44l17.62-30.52L210,90.44h0c0,5.62-7.89,10.18-17.62,10.18s-17.62-4.56-17.62-10.18Z"/><path class="cls-2" d="M192.34,102.12c-10.72,0-19.12-5.13-19.12-11.68a1.53,1.53,0,0,1,.2-.75L191,59.17a1.5,1.5,0,0,1,2.6,0l17.62,30.52a1.53,1.53,0,0,1,.2.75C211.46,97,203.06,102.12,192.34,102.12Zm-16.11-11.3c.38,4.53,7.6,8.3,16.11,8.3s15.73-3.77,16.11-8.3l-16.11-27.9Z"/></svg>