<svg width="202" height="202" viewBox="0 0 202 202" fill="none" xmlns="http://www.w3.org/2000/svg">
<path d="M146.101 143.101C137.401 143.095 129.059 139.638 122.906 133.489C116.752 127.339 113.289 119.001 113.276 110.301V64.8834H97.03C92.4106 64.8287 87.8267 65.6916 83.5436 67.4216C79.26 69.151 75.3627 71.714 72.0771 74.9609C68.7915 78.2083 66.1827 82.0747 64.4027 86.3377C62.6222 90.6001 61.7056 95.1736 61.7056 99.7931C61.7056 104.412 62.6222 108.986 64.4027 113.248C66.1827 117.511 68.7915 121.378 72.0771 124.625C75.3627 127.872 79.26 130.435 83.5436 132.165C87.8267 133.894 92.4106 134.757 97.03 134.702H107.155V142.711H97.03C91.3934 142.711 85.8121 141.601 80.6052 139.444C75.3978 137.287 70.6659 134.125 66.6804 130.14C62.6949 126.154 59.5336 121.423 57.3766 116.215C55.2196 111.008 54.1096 105.427 54.1096 99.7905C54.1096 94.1539 55.2196 88.5731 57.3766 83.3657C59.5336 78.1583 62.6949 73.4264 66.6804 69.4409C70.6659 65.4554 75.3978 62.2941 80.6052 60.1371C85.8121 57.9801 91.3934 56.8701 97.03 56.8701H121.285V110.301C121.295 116.877 123.914 123.18 128.566 127.828C133.218 132.476 139.524 135.089 146.101 135.093V143.101ZM199 101C199 46.9641 155.036 3 101 3C46.9641 3 3 46.9641 3 101C3 155.036 46.9641 199 101 199C155.036 199 199 155.036 199 101ZM190.991 101C190.991 150.622 150.622 190.991 101 190.991C51.378 190.991 11.0086 150.622 11.0086 101C11.0086 51.378 51.378 11.0086 101 11.0086C150.622 11.0086 190.991 51.378 190.991 101Z" fill="black"/>
<path d="M146.101 143.101L146.099 145.601L148.601 145.603V143.101H146.101ZM122.906 133.489L124.673 131.72L124.673 131.72L122.906 133.489ZM113.276 110.301H110.776L110.776 110.305L113.276 110.301ZM113.276 64.8834H115.776V62.3834H113.276V64.8834ZM97.03 64.8834L97.0004 67.3832L97.0152 67.3834H97.03V64.8834ZM83.5436 67.4216L84.4796 69.7398L84.4799 69.7396L83.5436 67.4216ZM72.0771 74.9609L70.3198 73.1827L70.3197 73.1828L72.0771 74.9609ZM64.4027 86.3377L66.7095 87.3013L66.7096 87.3009L64.4027 86.3377ZM64.4027 113.248L66.7096 112.285L66.7095 112.285L64.4027 113.248ZM83.5436 132.165L84.4799 129.846L84.4798 129.846L83.5436 132.165ZM97.03 134.702V132.202H97.0152L97.0004 132.202L97.03 134.702ZM107.155 134.702H109.655V132.202H107.155V134.702ZM107.155 142.711V145.211H109.655V142.711H107.155ZM80.6052 139.444L81.562 137.134L81.5619 137.134L80.6052 139.444ZM80.6052 60.1371L81.5619 62.4468L81.562 62.4467L80.6052 60.1371ZM121.285 56.8701H123.785V54.3701H121.285V56.8701ZM121.285 110.301H118.785L118.785 110.305L121.285 110.301ZM128.566 127.828L126.799 129.597L126.799 129.597L128.566 127.828ZM146.101 135.093H148.601V132.594L146.102 132.593L146.101 135.093ZM146.102 140.601C138.065 140.595 130.358 137.401 124.673 131.72L121.139 135.257C127.761 141.874 136.737 145.594 146.099 145.601L146.102 140.601ZM124.673 131.72C118.988 126.039 115.788 118.335 115.776 110.298L110.776 110.305C110.79 119.666 114.517 128.64 121.139 135.257L124.673 131.72ZM115.776 110.301V64.8834H110.776V110.301H115.776ZM113.276 62.3834H97.03V67.3834H113.276V62.3834ZM97.0596 62.3836C92.1093 62.325 87.1971 63.2497 82.6074 65.1035L84.4799 69.7396C88.4563 68.1336 92.7119 67.3325 97.0004 67.3832L97.0596 62.3836ZM82.6077 65.1034C78.0171 66.9568 73.8406 69.7033 70.3198 73.1827L73.8344 76.7391C76.8847 73.7246 80.5029 71.3453 84.4796 69.7398L82.6077 65.1034ZM70.3197 73.1828C66.7991 76.6626 64.0033 80.8058 62.0957 85.3744L66.7096 87.3009C68.362 83.3435 70.784 79.754 73.8345 76.7389L70.3197 73.1828ZM62.0958 85.3741C60.1878 89.9419 59.2056 94.8429 59.2056 99.7931H64.2056C64.2056 95.5044 65.0565 91.2584 66.7095 87.3013L62.0958 85.3741ZM59.2056 99.7931C59.2056 104.743 60.1878 109.644 62.0958 114.212L66.7095 112.285C65.0565 108.328 64.2056 104.082 64.2056 99.7931H59.2056ZM62.0957 114.212C64.0033 118.78 66.799 122.924 70.3198 126.403L73.8344 122.846C70.784 119.832 68.3621 116.242 66.7096 112.285L62.0957 114.212ZM70.3198 126.403C73.8406 129.882 78.017 132.629 82.6075 134.483L84.4798 129.846C80.503 128.24 76.8847 125.861 73.8344 122.846L70.3198 126.403ZM82.6074 134.483C87.1973 136.336 92.1094 137.261 97.0596 137.202L97.0004 132.202C92.7117 132.253 88.4562 131.452 84.4799 129.846L82.6074 134.483ZM97.03 137.202H107.155V132.202H97.03V137.202ZM104.655 134.702V142.711H109.655V134.702H104.655ZM107.155 140.211H97.03V145.211H107.155V140.211ZM97.03 140.211C91.7216 140.211 86.4654 139.166 81.562 137.134L79.6484 141.754C85.1587 144.036 91.0652 145.211 97.03 145.211V140.211ZM81.5619 137.134C76.6578 135.103 72.2015 132.125 68.4482 128.372L64.9126 131.907C69.1303 136.125 74.1377 139.471 79.6484 141.754L81.5619 137.134ZM68.4482 128.372C64.6948 124.618 61.7177 120.163 59.6863 115.259L55.0669 117.172C57.3496 122.683 60.695 127.69 64.9126 131.907L68.4482 128.372ZM59.6863 115.259C57.6549 110.354 56.6096 105.099 56.6096 99.7905H51.6096C51.6096 105.755 52.7842 111.661 55.0669 117.172L59.6863 115.259ZM56.6096 99.7905C56.6096 94.4822 57.6549 89.2265 59.6863 84.3224L55.0669 82.4089C52.7842 87.9197 51.6096 93.8257 51.6096 99.7905H56.6096ZM59.6863 84.3224C61.7177 79.4182 64.6949 74.9619 68.4482 71.2087L64.9126 67.6731C60.6949 71.8909 57.3495 76.8983 55.0669 82.4089L59.6863 84.3224ZM68.4482 71.2087C72.2014 67.4554 76.6577 64.4782 81.5619 62.4468L79.6484 57.8274C74.1378 60.11 69.1304 63.4554 64.9126 67.6731L68.4482 71.2087ZM81.562 62.4467C86.4654 60.4154 91.7216 59.3701 97.03 59.3701V54.3701C91.0652 54.3701 85.1587 55.5447 79.6484 57.8274L81.562 62.4467ZM97.03 59.3701H121.285V54.3701H97.03V59.3701ZM118.785 56.8701V110.301H123.785V56.8701H118.785ZM118.785 110.305C118.796 117.543 121.679 124.481 126.799 129.597L130.333 126.06C126.149 121.88 123.794 116.211 123.785 110.297L118.785 110.305ZM126.799 129.597C131.92 134.713 138.861 137.588 146.099 137.593L146.102 132.593C140.188 132.589 134.517 130.239 130.333 126.06L126.799 129.597ZM143.601 135.093V143.101H148.601V135.093H143.601ZM201.5 101C201.5 45.5834 156.416 0.5 101 0.5V5.5C153.655 5.5 196.5 48.3449 196.5 101H201.5ZM101 0.5C45.5834 0.5 0.5 45.5834 0.5 101H5.5C5.5 48.3448 48.3448 5.5 101 5.5V0.5ZM0.5 101C0.5 156.416 45.5834 201.5 101 201.5V196.5C48.3449 196.5 5.5 153.655 5.5 101H0.5ZM101 201.5C156.416 201.5 201.5 156.416 201.5 101H196.5C196.5 153.655 153.655 196.5 101 196.5V201.5ZM188.491 101C188.491 149.241 149.241 188.491 101 188.491V193.491C152.003 193.491 193.491 152.003 193.491 101H188.491ZM101 188.491C52.7587 188.491 13.5086 149.241 13.5086 101H8.50856C8.50856 152.003 49.9972 193.491 101 193.491V188.491ZM13.5086 101C13.5086 52.7587 52.7587 13.5086 101 13.5086V8.50856C49.9972 8.50856 8.50856 49.9972 8.50856 101H13.5086ZM101 13.5086C149.241 13.5086 188.491 52.7587 188.491 101H193.491C193.491 49.9972 152.003 8.50856 101 8.50856V13.5086Z" fill="black"/>
</svg>
