<svg id="Layer_1" data-name="Layer 1" xmlns="http://www.w3.org/2000/svg" viewBox="0 0 170 120"><defs><style>.cls-1{opacity:0.25;}.cls-2{fill:#281e35;}.cls-3{fill:#f0c125;}.cls-4{fill:#f8f3d7;}.cls-5{fill:#2071ff;}.cls-6{fill:#ff3250;}</style></defs><title>get_info_graphic_mobile</title><g class="cls-1"><polygon class="cls-2" points="125.92 83.86 143.55 73.68 125.92 63.51 108.3 73.68 113.98 76.96 63.71 93.71 134.22 106.62 118.63 79.65 125.92 83.86"/><path class="cls-2" d="M134.22,108.12a1.24,1.24,0,0,1-.27,0L63.44,95.19a1.5,1.5,0,0,1-.2-2.9l47.1-15.7L107.55,75a1.5,1.5,0,0,1,0-2.6l17.63-10.17a1.49,1.49,0,0,1,1.5,0L144.3,72.38a1.5,1.5,0,0,1,0,2.6L126.68,85.16a1.54,1.54,0,0,1-1.5,0l-2.45-1.41,12.79,22.12a1.51,1.51,0,0,1-.07,1.61A1.53,1.53,0,0,1,134.22,108.12ZM69.73,93.29l61.57,11.27-14-24.16a1.5,1.5,0,0,1,2-2.05l6.55,3.77,14.62-8.44-14.62-8.44L111.3,73.68l3.43,2a1.5,1.5,0,0,1-.28,2.72Z"/></g><polygon class="cls-3" points="116.59 34.85 98.97 24.68 98.97 68.33 116.59 78.5 134.21 68.33 134.21 24.68 116.59 34.85"/><path class="cls-2" d="M116.59,80a1.43,1.43,0,0,1-.75-.2L98.22,69.63a1.49,1.49,0,0,1-.75-1.3V24.68a1.5,1.5,0,0,1,2.25-1.3l16.87,9.74,16.87-9.74a1.49,1.49,0,0,1,1.5,0,1.51,1.51,0,0,1,.75,1.3V68.33a1.51,1.51,0,0,1-.75,1.3L117.34,79.8A1.43,1.43,0,0,1,116.59,80ZM100.47,67.46l16.12,9.31,16.12-9.31V27.28l-15.37,8.87a1.49,1.49,0,0,1-1.5,0l-15.37-8.87Z"/><polygon class="cls-4" points="116.59 14.5 134.21 24.68 116.59 34.85 98.97 24.68 116.59 14.5"/><path class="cls-2" d="M116.59,36.35a1.53,1.53,0,0,1-.75-.2L98.22,26a1.5,1.5,0,0,1,0-2.6L115.84,13.2a1.54,1.54,0,0,1,1.5,0L135,23.38a1.5,1.5,0,0,1,0,2.6L117.34,36.15A1.53,1.53,0,0,1,116.59,36.35ZM102,24.68l14.62,8.44,14.62-8.44-14.62-8.45Z"/><path class="cls-5" d="M46.07,75.55l35.25-61,35.24,61.05h0c0,11.24-15.78,20.35-35.24,20.35S46.07,86.79,46.07,75.55Z"/><path class="cls-2" d="M81.32,97.4c-20.27,0-36.75-9.8-36.75-21.85a1.53,1.53,0,0,1,.2-.75L80,13.75a1.49,1.49,0,0,1,2.59,0L117.86,74.8a1.53,1.53,0,0,1,.2.75C118.06,87.6,101.58,97.4,81.32,97.4ZM47.58,75.94C48,86.15,62.94,94.4,81.32,94.4s33.36-8.25,33.73-18.46L81.32,17.5Z"/><g class="cls-1"><ellipse class="cls-2" cx="46.46" cy="97.78" rx="17.62" ry="10.17"/><path class="cls-2" d="M46.46,109.45c-10.73,0-19.13-5.13-19.13-11.67S35.73,86.1,46.46,86.1s19.12,5.13,19.12,11.68S57.18,109.45,46.46,109.45Zm0-20.35c-8.74,0-16.13,4-16.13,8.68s7.39,8.67,16.13,8.67,16.12-4,16.12-8.67S55.2,89.1,46.46,89.1Z"/></g><circle class="cls-6" cx="40.56" cy="84.87" r="17.62"/><path class="cls-2" d="M40.56,104A19.12,19.12,0,1,1,59.68,84.87,19.14,19.14,0,0,1,40.56,104Zm0-35.24A16.12,16.12,0,1,0,56.68,84.87,16.14,16.14,0,0,0,40.56,68.75Z"/></svg>