<svg id="Layer_1" data-name="Layer 1" xmlns="http://www.w3.org/2000/svg" viewBox="0 0 443.45 120"><defs><style>.cls-1{opacity:0.25;}.cls-2{fill:#281e35;}.cls-3{fill:#2071ff;}.cls-4{fill:#ff3250;}.cls-5{fill:#f99;}.cls-6{fill:#bcd4ff;}.cls-7{fill:#f2c227;}.cls-8{fill:#f9f4d8;}</style></defs><title>schedule_graphic</title><g class="cls-1"><polyline class="cls-2" points="433.13 70.25 441.95 85.51 406.69 79.06"/><path class="cls-2" d="M442,87l-.27,0-35.26-6.46a1.5,1.5,0,0,1,.54-3L439,83.45,431.83,71a1.5,1.5,0,0,1,2.6-1.5l8.82,15.26a1.49,1.49,0,0,1-.08,1.61A1.47,1.47,0,0,1,442,87Z"/></g><path class="cls-3" d="M397.87,70,415.5,39.45,433.12,70h0c0,5.62-7.89,10.17-17.62,10.17S397.87,75.6,397.87,70Z"/><path class="cls-2" d="M415.5,81.65c-10.73,0-19.13-5.13-19.13-11.67a1.48,1.48,0,0,1,.2-.75L414.2,38.7a1.49,1.49,0,0,1,2.59,0l17.63,30.53a1.48,1.48,0,0,1,.2.75C434.62,76.52,426.22,81.65,415.5,81.65Zm-16.11-11.3c.38,4.54,7.6,8.3,16.11,8.3s15.72-3.76,16.1-8.3l-16.1-27.9Z"/><g class="cls-1"><path class="cls-2" d="M62.57,57c-19.46,0-35.24,9.11-35.24,20.35,0,4,2,7.75,5.49,10.9a29,29,0,0,0-6.33-.69c-9.73,0-17.62,4.56-17.62,10.18s7.89,10.17,17.62,10.17,17.63-4.55,17.63-10.17a6.52,6.52,0,0,0-1.06-3.45,54.89,54.89,0,0,0,19.51,3.41c19.47,0,35.25-9.11,35.25-20.35S82,57,62.57,57Z"/><path class="cls-2" d="M26.49,109.37c-10.72,0-19.12-5.13-19.12-11.67S15.77,86,26.49,86q1.22,0,2.4.09a14.83,14.83,0,0,1-3.06-8.8c0-12,16.48-21.85,36.74-21.85s36.75,9.8,36.75,21.85S82.83,99.16,62.57,99.16a58.2,58.2,0,0,1-17-2.46,8.26,8.26,0,0,1,.07,1C45.62,104.24,37.22,109.37,26.49,109.37Zm0-20.35c-8.73,0-16.12,4-16.12,8.68s7.39,8.67,16.12,8.67,16.13-4,16.13-8.67a5,5,0,0,0-.83-2.65,1.5,1.5,0,0,1,1.81-2.2,53.24,53.24,0,0,0,19,3.31c18.61,0,33.75-8.46,33.75-18.85S81.18,58.46,62.57,58.46,28.83,66.92,28.83,77.31c0,3.43,1.72,6.82,5,9.79a1.49,1.49,0,0,1-1.33,2.57A27.78,27.78,0,0,0,26.49,89Z"/></g><g class="cls-1"><ellipse class="cls-2" cx="200.56" cy="54.93" rx="17.62" ry="10.17"/><path class="cls-2" d="M200.56,66.61c-10.72,0-19.12-5.13-19.12-11.68s8.4-11.67,19.12-11.67,19.12,5.12,19.12,11.67S211.28,66.61,200.56,66.61Zm0-20.35c-8.74,0-16.12,4-16.12,8.67s7.38,8.68,16.12,8.68,16.12-4,16.12-8.68S209.3,46.26,200.56,46.26Z"/></g><circle class="cls-4" cx="194.66" cy="42.02" r="17.62"/><path class="cls-2" d="M194.66,61.15A19.13,19.13,0,1,1,213.79,42,19.15,19.15,0,0,1,194.66,61.15Zm0-35.25A16.13,16.13,0,1,0,210.79,42,16.14,16.14,0,0,0,194.66,25.9Z"/><g class="cls-1"><ellipse class="cls-2" cx="312.01" cy="92.9" rx="17.62" ry="10.17"/><path class="cls-2" d="M312,104.57c-10.72,0-19.12-5.12-19.12-11.67s8.4-11.67,19.12-11.67,19.12,5.12,19.12,11.67S322.73,104.57,312,104.57Zm0-20.34c-8.74,0-16.12,4-16.12,8.67s7.38,8.67,16.12,8.67,16.12-4,16.12-8.67S320.75,84.23,312,84.23Z"/></g><ellipse class="cls-4" cx="304.64" cy="88.04" rx="17.62" ry="10.17"/><path class="cls-2" d="M304.64,99.71c-10.72,0-19.12-5.12-19.12-11.67s8.4-11.68,19.12-11.68S323.76,81.49,323.76,88,315.36,99.71,304.64,99.71Zm0-20.35c-8.74,0-16.12,4-16.12,8.68s7.38,8.67,16.12,8.67,16.12-4,16.12-8.67S313.38,79.36,304.64,79.36Z"/><polyline class="cls-4" points="322.26 88.04 322.26 67.69 287.01 67.69 287.01 88.04"/><path class="cls-2" d="M322.26,89.54a1.5,1.5,0,0,1-1.5-1.5V69.19H288.52V88a1.5,1.5,0,1,1-3,0V67.69a1.5,1.5,0,0,1,1.5-1.5h35.24a1.5,1.5,0,0,1,1.5,1.5V88A1.5,1.5,0,0,1,322.26,89.54Z"/><ellipse class="cls-5" cx="304.64" cy="67.69" rx="17.62" ry="10.17"/><path class="cls-2" d="M304.64,79.36c-10.72,0-19.12-5.12-19.12-11.67S293.92,56,304.64,56s19.12,5.12,19.12,11.67S315.36,79.36,304.64,79.36Zm0-20.34c-8.74,0-16.12,4-16.12,8.67s7.38,8.67,16.12,8.67,16.12-4,16.12-8.67S313.38,59,304.64,59Z"/><ellipse class="cls-4" cx="47.83" cy="67.59" rx="35.25" ry="20.35"/><path class="cls-2" d="M47.83,89.44c-20.26,0-36.75-9.81-36.75-21.85S27.57,45.74,47.83,45.74s36.74,9.8,36.74,21.85S68.09,89.44,47.83,89.44Zm0-40.7c-18.61,0-33.75,8.45-33.75,18.85S29.22,86.44,47.83,86.44,81.57,78,81.57,67.59,66.44,48.74,47.83,48.74Z"/><polyline class="cls-4" points="83.07 67.59 83.07 26.89 12.58 26.89 12.58 67.59"/><path class="cls-2" d="M83.07,69.09a1.5,1.5,0,0,1-1.5-1.5V28.39H14.08v39.2a1.5,1.5,0,0,1-3,0V26.89a1.5,1.5,0,0,1,1.5-1.5H83.07a1.5,1.5,0,0,1,1.5,1.5v40.7A1.5,1.5,0,0,1,83.07,69.09Z"/><ellipse class="cls-5" cx="47.83" cy="26.89" rx="35.25" ry="20.35"/><path class="cls-2" d="M47.83,48.74c-20.26,0-36.75-9.8-36.75-21.85S27.57,5,47.83,5s36.74,9.8,36.74,21.85S68.09,48.74,47.83,48.74Zm0-40.7C29.22,8,14.08,16.5,14.08,26.89S29.22,45.74,47.83,45.74s33.74-8.46,33.74-18.85S66.44,8,47.83,8Z"/><g class="cls-1"><polygon class="cls-2" points="100.38 82.66 118 92.83 100.38 103.01 82.76 92.83 100.38 82.66"/><path class="cls-2" d="M100.38,104.51a1.53,1.53,0,0,1-.75-.2L82,94.13a1.49,1.49,0,0,1,0-2.59L99.63,81.36a1.49,1.49,0,0,1,1.5,0l17.62,10.18a1.49,1.49,0,0,1,0,2.59l-17.62,10.18A1.53,1.53,0,0,1,100.38,104.51ZM85.76,92.84l14.62,8.44L115,92.84l-14.62-8.45Z"/></g><polygon class="cls-3" points="91.04 77.31 73.42 67.13 73.42 87.48 91.04 97.66 108.67 87.48 108.67 67.13 91.04 77.31"/><path class="cls-2" d="M91,99.16a1.56,1.56,0,0,1-.75-.2L72.67,88.78a1.51,1.51,0,0,1-.75-1.3V67.13a1.5,1.5,0,0,1,2.25-1.29L91,75.58l16.88-9.74a1.5,1.5,0,0,1,2.25,1.29V87.48a1.51,1.51,0,0,1-.75,1.3L91.79,99A1.53,1.53,0,0,1,91,99.16ZM74.92,86.62,91,95.93l16.13-9.31V69.73L91.79,78.61a1.49,1.49,0,0,1-1.5,0L74.92,69.73Z"/><polygon class="cls-6" points="91.04 56.96 108.67 67.13 91.04 77.31 73.42 67.13 91.04 56.96"/><path class="cls-2" d="M91,78.81a1.56,1.56,0,0,1-.75-.2L72.67,68.43a1.49,1.49,0,0,1,0-2.59L90.29,55.66a1.49,1.49,0,0,1,1.5,0l17.63,10.18a1.49,1.49,0,0,1,0,2.59L91.79,78.61A1.53,1.53,0,0,1,91,78.81ZM76.42,67.13,91,75.58l14.63-8.45L91,58.69Z"/><ellipse class="cls-7" cx="19.12" cy="92.84" rx="17.62" ry="10.17"/><path class="cls-2" d="M19.12,104.51C8.4,104.51,0,99.38,0,92.84S8.4,81.16,19.12,81.16s19.13,5.13,19.13,11.68S29.85,104.51,19.12,104.51Zm0-20.35c-8.74,0-16.12,4-16.12,8.68s7.38,8.67,16.12,8.67,16.13-4,16.13-8.67S27.86,84.16,19.12,84.16Z"/><polyline class="cls-7" points="36.74 92.83 36.74 72.49 1.5 72.49 1.5 92.83"/><path class="cls-2" d="M36.75,94.34a1.5,1.5,0,0,1-1.5-1.5V74H3V92.84a1.5,1.5,0,0,1-3,0V72.49A1.5,1.5,0,0,1,1.5,71H36.75a1.5,1.5,0,0,1,1.5,1.5V92.84A1.51,1.51,0,0,1,36.75,94.34Z"/><ellipse class="cls-8" cx="19.12" cy="72.49" rx="17.62" ry="10.17"/><path class="cls-2" d="M19.12,84.16C8.4,84.16,0,79,0,72.49S8.4,60.81,19.12,60.81s19.13,5.13,19.13,11.68S29.85,84.16,19.12,84.16Zm0-20.35c-8.74,0-16.12,4-16.12,8.68s7.38,8.67,16.12,8.67,16.13-4,16.13-8.67S27.86,63.81,19.12,63.81Z"/><g class="cls-1"><polygon class="cls-2" points="284.96 98.22 302.58 108.39 284.96 118.57 267.34 108.39 284.96 98.22"/><path class="cls-2" d="M285,120.07a1.44,1.44,0,0,1-.75-.21l-17.62-10.17a1.5,1.5,0,0,1,0-2.6l17.62-10.17a1.49,1.49,0,0,1,1.5,0l17.62,10.17a1.5,1.5,0,0,1,0,2.6l-17.62,10.17A1.44,1.44,0,0,1,285,120.07Zm-14.62-11.68L285,116.83l14.62-8.44L285,100Z"/></g><polygon class="cls-7" points="275.62 92.86 258 82.69 258 103.04 275.62 113.21 293.25 103.04 293.25 82.69 275.62 92.86"/><path class="cls-2" d="M275.62,114.71a1.48,1.48,0,0,1-.75-.2l-17.62-10.17a1.51,1.51,0,0,1-.75-1.3V82.69a1.51,1.51,0,0,1,.75-1.3,1.49,1.49,0,0,1,1.5,0l16.87,9.74,16.88-9.74a1.49,1.49,0,0,1,1.5,0,1.51,1.51,0,0,1,.75,1.3V103a1.52,1.52,0,0,1-.75,1.3l-17.63,10.17A1.43,1.43,0,0,1,275.62,114.71ZM259.5,102.17l16.12,9.31,16.13-9.31V85.29l-15.38,8.87a1.49,1.49,0,0,1-1.5,0L259.5,85.29Z"/><polygon class="cls-8" points="275.62 72.52 293.25 82.69 275.62 92.86 258 82.69 275.62 72.52"/><path class="cls-2" d="M275.62,94.36a1.48,1.48,0,0,1-.75-.2L257.25,84a1.5,1.5,0,0,1,0-2.6l17.62-10.17a1.49,1.49,0,0,1,1.5,0L294,81.39a1.5,1.5,0,0,1,0,2.6L276.37,94.16A1.43,1.43,0,0,1,275.62,94.36ZM261,82.69l14.62,8.44,14.63-8.44-14.63-8.44Z"/></svg>