<svg width="31" height="31" viewBox="0 0 31 31" version="1.1" xmlns="http://www.w3.org/2000/svg" xmlns:xlink="http://www.w3.org/1999/xlink">
<g id="Canvas" fill="none">
<g id="@ Symbol">
<g id="Mask">
<path fill-rule="evenodd" clip-rule="evenodd" d="M 12.5005 0C 5.5989 0 0 5.59787 0 12.5005C 0 19.4021 5.5989 25 12.5005 25C 19.4021 25 25.0005 19.4021 25.0005 12.5005C 25.0005 5.59787 19.4021 0 12.5005 0" transform="translate(3 3.00002)" fill="#281E34"/>
<path d="M 12.5005 0C 5.5989 0 0 5.59787 0 12.5005C 0 19.4021 5.5989 25 12.5005 25C 19.4021 25 25.0005 19.4021 25.0005 12.5005C 25.0005 5.59787 19.4021 0 12.5005 0" stroke-width="5" transform="translate(3 3.00002)" stroke="#281E35"/>
</g>
<mask id="mask0" mask-type="alpha" maskUnits="userSpaceOnUse" x="0" y="0" width="31" height="31">
<g id="Mask_2">
<path fill-rule="evenodd" clip-rule="evenodd" d="M 12.5005 0C 5.5989 0 0 5.59787 0 12.5005C 0 19.4021 5.5989 25 12.5005 25C 19.4021 25 25.0005 19.4021 25.0005 12.5005C 25.0005 5.59787 19.4021 0 12.5005 0" transform="translate(3 3.00002)" fill="white"/>
<path d="M 12.5005 0C 5.5989 0 0 5.59787 0 12.5005C 0 19.4021 5.5989 25 12.5005 25C 19.4021 25 25.0005 19.4021 25.0005 12.5005C 25.0005 5.59787 19.4021 0 12.5005 0" stroke-width="5" transform="translate(3 3.00002)" stroke="white"/>
</g>
</mask>
<g mask="url(#mask0)">
<g id="Stroke 119">
<path d="M 6.54224 10.8333L 5.19387 10.8333C 2.32564 10.8333 0 8.40803 0 5.41689C 0 2.42619 2.32564 0 5.19387 0L 7.89488 0L 7.89488 5.41689C 7.89488 7.63044 9.61437 9.42717 11.7361 9.42717" stroke-width="2.5" transform="translate(9.66666 10.0833)" stroke="white"/>
</g>
</g>
</g>
</g>
</svg>

