<svg xmlns="http://www.w3.org/2000/svg" viewBox="0 0 120.05 143.9"><defs><style>.cls-1,.cls-2{fill:none;stroke:#3dccd0;stroke-miterlimit:10;}.cls-1{stroke-width:1.5px;}.cls-2{stroke-width:3px;}.cls-3{fill:#3dccd0;}</style></defs><title>food</title><g id="Layer_1" data-name="Layer 1"><path class="cls-1" d="M89.09,62.7H85L88,49.43a2.78,2.78,0,0,1,2-2.08L98.48,45l.9,3.53-6.2,1.69a2.78,2.78,0,0,0-2,2.13Z"/><line class="cls-2" x1="6.21" y1="96.57" x2="68.17" y2="96.57"/><path class="cls-2" d="M87.93,71.54H64.7l8.82,63.7a3.93,3.93,0,0,0,3.89,3.39h21a3.93,3.93,0,0,0,3.89-3.39l8.82-63.7Z"/><path class="cls-2" d="M78.54,62.7l.21-54.85a2.59,2.59,0,0,0-2.59-2.6H51.55a9.07,9.07,0,0,1-18.14,0H8.79A2.59,2.59,0,0,0,6.21,7.85V130.49a2.59,2.59,0,0,0,2.59,2.59H73.22"/><polygon class="cls-2" points="108.44 91.16 67.42 91.16 70.57 113.89 105.29 113.89 108.44 91.16"/><rect class="cls-3" x="62.01" y="66.87" width="51.84" height="4.67" rx="0.33" ry="0.33"/><path class="cls-2" d="M65.45,62.7h45a.75.75,0,0,1,.75.75v4.76a0,0,0,0,1,0,0H64.7a0,0,0,0,1,0,0V63.45A.75.75,0,0,1,65.45,62.7Z"/></g></svg>