<svg xmlns="http://www.w3.org/2000/svg" viewBox="0 0 131.73 136.01"><defs><style>.cls-1{fill:none;stroke-width:3px;}.cls-1,.cls-2{stroke:#3dccd0;stroke-miterlimit:10;}.cls-2{fill:#3dccd0;stroke-width:0.37px;}</style></defs><title>network</title><g id="Layer_1" data-name="Layer 1"><circle class="cls-1" cx="19.4" cy="69.56" r="14.19"/><circle class="cls-1" cx="112.33" cy="69.56" r="14.19" transform="translate(-5.89 10.56) rotate(-5.25)"/><circle class="cls-1" cx="65.36" cy="117.03" r="14.19" transform="translate(-10.43 6.47) rotate(-5.25)"/><circle class="cls-1" cx="65.36" cy="23.55" r="18.76"/><path class="cls-2" d="M74.32,32.13A6.47,6.47,0,0,1,68,25.55l.17-8.94L65,16.54a6.87,6.87,0,1,0-.26,13.74l2,0,0,1.58-2,0A8.45,8.45,0,1,1,65,15l4.77.09-.2,10.52a4.89,4.89,0,0,0,4.79,5Z"/><path class="cls-1" d="M98.37,70.92a14.35,14.35,0,0,1,13-15.43,7,7,0,0,1,1.5-.05V40.22c0-9.57-8.58-16.7-18.15-16.7H84.12c0,9-8.4,18.76-18.76,18.76S46.6,32.52,46.6,23.52H36c-9.57,0-16,7.13-16,16.7V55.43c6,0,14.19,6.35,14.19,14.19S25.91,83.81,19.91,83.81V99c0,9.57,6.47,17.49,16,17.49H51.17a14.19,14.19,0,0,1,28.32-1.34,4.76,4.76,0,0,1,.05,1.34H94.76c9.57,0,18.15-7.92,18.15-17.49V83.81A14.41,14.41,0,0,1,98.37,70.92Z"/></g></svg>