<svg xmlns="http://www.w3.org/2000/svg" viewBox="0 0 200 200"><defs><style>.cls-1{fill:none;stroke-width:3px;}.cls-1,.cls-2{stroke:#3dccd0;stroke-miterlimit:10;}.cls-2{fill:#3dccd0;stroke-width:0.38px;}</style></defs><title>network</title><g id="Layer_1" data-name="Layer 1"><circle class="cls-1" cx="53.53" cy="101.56" r="14.19"/><circle class="cls-1" cx="146.47" cy="101.56" r="14.19" transform="translate(-8.67 13.82) rotate(-5.25)"/><circle class="cls-1" cx="99.49" cy="149.03" r="14.19" transform="translate(-13.21 9.72) rotate(-5.25)"/><circle class="cls-1" cx="99.49" cy="55.54" r="18.76"/><path class="cls-2" d="M108.45,64.12a6.47,6.47,0,0,1-6.34-6.58l.17-8.94-3.2-.06a6.87,6.87,0,1,0-.26,13.74l2,0,0,1.58-2,0A8.45,8.45,0,1,1,99.12,47l4.77.09-.2,10.52a4.89,4.89,0,0,0,4.79,5Z"/><path class="cls-1" d="M132.5,102.91a14.35,14.35,0,0,1,13-15.43,7,7,0,0,1,1.5-.05V72.21c0-9.57-8.58-16.7-18.15-16.7H118.25c0,9-8.4,18.76-18.76,18.76S80.73,64.51,80.73,55.51H70.09c-9.57,0-16,7.13-16,16.7V87.42c6,0,14.19,6.35,14.19,14.19S60,115.81,54,115.81V131c0,9.57,6.47,17.49,16,17.49H85.31a14.19,14.19,0,0,1,28.32-1.34,4.76,4.76,0,0,1,.05,1.34H128.9c9.57,0,18.15-7.92,18.15-17.49V115.8A14.41,14.41,0,0,1,132.5,102.91Z"/></g></svg>