<svg xmlns="http://www.w3.org/2000/svg" viewBox="0 0 140.39 108.98"><defs><style>.cls-1{fill:#3dc1ce;}.cls-2,.cls-3{fill:none;stroke:#3dc1ce;stroke-width:3px;}.cls-2{stroke-miterlimit:10;}.cls-3{stroke-linecap:round;stroke-linejoin:round;}</style></defs><title>party</title><g id="Layer_1" data-name="Layer 1"><path class="cls-1" d="M106.17,63.94c-2.7,0-4.05-2-5-3.49-.79-1.19-1.41-2-2-2a1.65,1.65,0,0,1-1.82-1.37A1.58,1.58,0,0,1,99,55.58c2.87-.08,4.21,2,5.22,3.49.8,1.19,1.45,2,2,2s1.13-.9,1.81-2.13c.86-1.57,2-3.73,4.87-3.82s4.21,2,5.22,3.49c.79,1.19,1.38,2,2,2s1.14-.9,1.82-2.13c.86-1.57,2-3.73,4.87-3.82s4.21,2,5.23,3.49c.8,1.19,1.54,2,2,2a1.67,1.67,0,0,1,1.82,1.37A1.58,1.58,0,0,1,134.21,63c-2.83.12-4.21-2-5.23-3.49-.8-1.19-1.4-2-2-2s-1.14.9-1.82,2.13c-.86,1.57-2,3.73-4.87,3.82s-4.21-2-5.22-3.49c-.79-1.19-1.34-2-2-2s-1.14.9-1.81,2.13c-.86,1.57-2,3.73-4.87,3.82Z"/><path class="cls-1" d="M44,22c-1,1.21-3.08.52-4.61,0-1.23-.41-2.11-.67-2.32-.39a1.27,1.27,0,0,1-1.75-.07c-.64-.49-.89-1.26-.56-1.71,1-1.34,3.11-.61,4.68-.09,1.23.41,2.1.62,2.32.39s-.29-1.09-1-2.19c-.93-1.4-2.2-3.32-1.24-4.65s3.11-.61,4.67-.09c1.23.41,2.1.68,2.33.39s-.29-1.09-1-2.19c-.93-1.4-2.2-3.32-1.24-4.65s3.11-.61,4.68-.09c1.23.41,2.16.62,2.33.39.3-.44,1.11-.42,1.75.07s.89,1.26.56,1.71c-.94,1.34-3.11.61-4.68.09-1.23-.41-2.08-.65-2.33-.39s.29,1.09,1,2.19c.93,1.4,2.2,3.33,1.24,4.65s-3.11.61-4.68.09c-1.23-.41-2.07-.68-2.32-.39s.29,1.09,1,2.19c.93,1.4,2.2,3.32,1.24,4.65Z"/><path class="cls-2" d="M4.69,100.81l24-57.46a2.32,2.32,0,0,1,3.21-1.17C38,45.33,54.86,55.74,65.17,78.56a2.32,2.32,0,0,1-1.28,3.1L7.69,103.87A2.32,2.32,0,0,1,4.69,100.81Z"/><path class="cls-2" d="M12.37,82.45S23.92,84.13,28,95.83"/><path class="cls-2" d="M65.17,78.56s-24.33-26.48-41.54-23"/><path class="cls-2" d="M46.67,88.46S37.09,68.65,17.56,70.05"/><path class="cls-3" d="M68.87,30c1.64,20.62-8.64,36.89-8.64,36.89s21.62-25.42,39.63-25"/><path class="cls-2" d="M56.81,29.61l1.76,3a.73.73,0,0,1,0,.73l-1.76,3a.73.73,0,0,1-.63.36H52.67a.73.73,0,0,1-.63-.36l-1.76-3a.73.73,0,0,1,0-.73l1.76-3a.73.73,0,0,1,.63-.36h3.52A.73.73,0,0,1,56.81,29.61Z"/><path class="cls-2" d="M88.11,29.61l1.76,3a.73.73,0,0,1,0,.73l-1.76,3a.73.73,0,0,1-.63.36H84a.73.73,0,0,1-.63-.36l-1.76-3a.73.73,0,0,1,0-.73l1.76-3a.73.73,0,0,1,.63-.36h3.52A.73.73,0,0,1,88.11,29.61Z"/><rect class="cls-2" x="77.71" y="63.36" width="7.06" height="7.06" rx="0.68" ry="0.68" transform="translate(71.09 -37.85) rotate(45)"/><circle class="cls-2" cx="94.83" cy="10.46" r="5.53"/></g></svg>