<svg xmlns="http://www.w3.org/2000/svg" viewBox="0 0 200 200"><defs><style>.cls-1,.cls-3{fill:#3dccd0;}.cls-2{fill:none;stroke-width:3px;}.cls-2,.cls-3{stroke:#3dccd0;stroke-miterlimit:10;}.cls-3{stroke-width:0.38px;}</style></defs><title>swag</title><g id="Layer_1" data-name="Layer 1"><path class="cls-1" d="M110.47,26.67a1.49,1.49,0,0,1-1.58-1.78A7.68,7.68,0,0,1,114.21,19c2.69-.88,4-3.67,4.54-5.3a1.49,1.49,0,0,1,1.68-1h0a1.49,1.49,0,0,1,1.16,1.93c-.73,2.19-2.53,5.93-6.45,7.22a4.64,4.64,0,0,0-3.31,3.58,1.52,1.52,0,0,1-1.37,1.24Z"/><path class="cls-1" d="M97.61,52a1.17,1.17,0,0,1-1.83.23,6.06,6.06,0,0,1-1.38-6.14c.66-2.12-.51-4.22-1.32-5.33a1.19,1.19,0,0,1,.12-1.55h0a1.18,1.18,0,0,1,1.78.15c1.07,1.48,2.63,4.33,1.67,7.43a3.66,3.66,0,0,0,.83,3.81,1.15,1.15,0,0,1,.13,1.4Z"/><path class="cls-1" d="M128.31,46.43l0-.09a1.48,1.48,0,0,1,.8-1.65,5.88,5.88,0,0,0,3.35-5.41c.1-5,4-8.37,6.13-9.86a1.46,1.46,0,0,1,2.13.53l0,.07a1.47,1.47,0,0,1-.48,1.88c-1.69,1.17-4.75,3.79-4.82,7.43a8.92,8.92,0,0,1-5.11,8.09A1.45,1.45,0,0,1,128.31,46.43Z"/><path class="cls-1" d="M85.85,28.7a1.48,1.48,0,0,1-2.07.91c-1.77-.88-4.45-2.72-5.11-6a3.51,3.51,0,0,0-2.2-2.73,1.51,1.51,0,0,1-1-1.47h0a1.49,1.49,0,0,1,2-1.34,6.5,6.5,0,0,1,4.11,4.94c.41,2,2.26,3.25,3.49,3.86a1.48,1.48,0,0,1,.76,1.77Z"/><path class="cls-1" d="M65.93,44.4a1.5,1.5,0,0,1-1.82,1.37c-2.63-.61-5.88-2.29-5.91-5.91,0-2.19-2-3.8-3.3-4.63a1.49,1.49,0,0,1-.55-1.86h0a1.5,1.5,0,0,1,2.17-.66c1.82,1.16,4.64,3.54,4.67,7.12,0,1.88,2.16,2.68,3.58,3a1.49,1.49,0,0,1,1.15,1.56Z"/><path class="cls-1" d="M129.17,32.34a1.16,1.16,0,0,1-.31,0l-3.25-.87a1.18,1.18,0,0,1-.84-.84l-.87-3.24a1.19,1.19,0,0,1,.3-1.14l2.38-2.38a1.18,1.18,0,0,1,1.15-.31l3.25.87a1.18,1.18,0,0,1,.84.84l.87,3.24a1.19,1.19,0,0,1-.31,1.15L130,32A1.19,1.19,0,0,1,129.17,32.34Zm.08-1.49h0ZM126.17,30l2.9.77,2.12-2.13-.78-2.9-2.9-.77-2.12,2.12Zm0,.17h0Zm5.1-1.65h0Zm-6-1.59h0Zm5.24-1.13h0Zm-.22-.22h0Zm-3-.64h0Z"/><path class="cls-1" d="M106.27,40.66l-.21,0-2.25-.6a.82.82,0,0,1-.58-.58l-.6-2.25a.82.82,0,0,1,.21-.79l1.65-1.65a.82.82,0,0,1,.79-.21l2.25.6a.82.82,0,0,1,.58.58l.61,2.25a.82.82,0,0,1-.21.79l-1.65,1.65A.82.82,0,0,1,106.27,40.66Zm.05-1h0Zm-2.13-.57,2,.54,1.47-1.47-.54-2-2-.54-1.47,1.47Zm0,.12h0ZM107.77,38h0Zm-4.14-1.1h0Zm3.63-.78h0ZM107.1,36h0Zm-2.1-.45h0Z"/><path class="cls-1" d="M96,30.13a4.28,4.28,0,1,1,4.28-4.28A4.28,4.28,0,0,1,96,30.13Zm0-7.05a2.78,2.78,0,1,0,2.78,2.78A2.78,2.78,0,0,0,96,23.08Z"/><path class="cls-1" d="M62.38,56.25a3,3,0,1,1,3-3A3,3,0,0,1,62.38,56.25Zm0-4.44a1.47,1.47,0,1,0,1.47,1.47A1.47,1.47,0,0,0,62.38,51.81Z"/><path class="cls-1" d="M117.65,51a3,3,0,1,1,3-3A3,3,0,0,1,117.65,51Zm0-4.44A1.47,1.47,0,1,0,119.12,48,1.47,1.47,0,0,0,117.65,46.57Z"/><path class="cls-1" d="M78.06,45.92a1.93,1.93,0,0,1-.9-.22h0l-3.08-1.61a2,2,0,0,1-.83-2.63l1.61-3.08a1.95,1.95,0,0,1,2.63-.83l3.08,1.6a2,2,0,0,1,.83,2.63L79.8,44.87A2,2,0,0,1,78.06,45.92Zm-.2-1.55a.45.45,0,0,0,.61-.19l1.61-3.08a.45.45,0,0,0-.19-.6l-3.08-1.6a.46.46,0,0,0-.34,0,.45.45,0,0,0-.26.22l-1.61,3.08a.45.45,0,0,0,.19.6Z"/><path class="cls-1" d="M142.22,54.09a1.89,1.89,0,0,1-.88-.22h0l-3.14-1.64a1.92,1.92,0,0,1-.81-2.58L139,46.51a1.91,1.91,0,0,1,2.58-.81l3.14,1.64a1.92,1.92,0,0,1,.81,2.58l-1.64,3.14A1.92,1.92,0,0,1,142.22,54.09ZM142,52.55a.42.42,0,0,0,.56-.18l1.64-3.14a.4.4,0,0,0,0-.31.41.41,0,0,0-.2-.24L140.91,47a.41.41,0,0,0-.56.18l-1.64,3.14a.42.42,0,0,0,.18.56Z"/><path class="cls-1" d="M131.72,160.61H72.59a7.41,7.41,0,0,1-7.4-7.4V64.65a4.57,4.57,0,0,1,4.57-4.57H97.15v1.5a5.77,5.77,0,0,0,11.53,0v-1.5h25.87a4.57,4.57,0,0,1,4.57,4.57v88.56A7.41,7.41,0,0,1,131.72,160.61Zm-62-97.52a1.57,1.57,0,0,0-1.57,1.57v88.56a4.41,4.41,0,0,0,4.4,4.4h59.12a4.41,4.41,0,0,0,4.4-4.4V64.65a1.57,1.57,0,0,0-1.57-1.57h-23a8.77,8.77,0,0,1-17.27,0Z"/><circle class="cls-2" cx="102.6" cy="110.35" r="17.46"/><path class="cls-3" d="M110.94,118.33a6,6,0,0,1-5.9-6.12l.16-8.32-3-.06a6.4,6.4,0,1,0-.25,12.79l1.86,0,0,1.47-1.86,0a7.86,7.86,0,1,1,.3-15.72l4.44.09-.19,9.79a4.55,4.55,0,0,0,4.46,4.63Z"/></g></svg>