<svg xmlns="http://www.w3.org/2000/svg" viewBox="0 0 102.1 154.87"><defs><style>.cls-1,.cls-3{fill:#3dccd0;}.cls-2{fill:none;stroke-width:3px;}.cls-2,.cls-3{stroke:#3dccd0;stroke-miterlimit:10;}.cls-3{stroke-width:0.37px;}</style></defs><title>swag</title><g id="Layer_1" data-name="Layer 1"><path class="cls-1" d="M61.52,16.58a1.49,1.49,0,0,1-1.58-1.78,7.68,7.68,0,0,1,5.32-5.89c2.69-.88,4-3.67,4.54-5.3a1.49,1.49,0,0,1,1.68-1h0a1.49,1.49,0,0,1,1.16,1.93c-.73,2.19-2.53,5.93-6.45,7.22a4.64,4.64,0,0,0-3.31,3.58,1.52,1.52,0,0,1-1.37,1.24Z"/><path class="cls-1" d="M48.66,41.92a1.17,1.17,0,0,1-1.83.23A6.06,6.06,0,0,1,45.45,36c.66-2.12-.51-4.22-1.32-5.33a1.19,1.19,0,0,1,.12-1.55h0a1.18,1.18,0,0,1,1.78.15c1.07,1.48,2.63,4.33,1.67,7.43a3.66,3.66,0,0,0,.83,3.81,1.15,1.15,0,0,1,.13,1.4Z"/><path class="cls-1" d="M79.36,36.35l0-.09a1.48,1.48,0,0,1,.8-1.65A5.88,5.88,0,0,0,83.5,29.2c.1-5,4-8.37,6.13-9.86a1.46,1.46,0,0,1,2.13.53l0,.07a1.47,1.47,0,0,1-.48,1.88c-1.69,1.17-4.75,3.79-4.82,7.43a8.92,8.92,0,0,1-5.11,8.09A1.45,1.45,0,0,1,79.36,36.35Z"/><path class="cls-1" d="M36.9,18.62a1.48,1.48,0,0,1-2.07.91c-1.77-.88-4.45-2.72-5.11-6a3.51,3.51,0,0,0-2.2-2.73,1.51,1.51,0,0,1-1-1.47h0a1.49,1.49,0,0,1,2-1.34A6.5,6.5,0,0,1,32.66,13c.41,2,2.26,3.25,3.49,3.86a1.48,1.48,0,0,1,.76,1.77Z"/><path class="cls-1" d="M17,34.32a1.5,1.5,0,0,1-1.82,1.37c-2.63-.61-5.88-2.29-5.91-5.91,0-2.19-2-3.8-3.3-4.63a1.49,1.49,0,0,1-.55-1.86h0a1.5,1.5,0,0,1,2.17-.66c1.82,1.16,4.64,3.54,4.67,7.12,0,1.88,2.16,2.68,3.58,3A1.49,1.49,0,0,1,17,34.31Z"/><path class="cls-1" d="M80.22,22.25a1.16,1.16,0,0,1-.31,0l-3.25-.87a1.18,1.18,0,0,1-.84-.84l-.87-3.24a1.19,1.19,0,0,1,.3-1.14l2.38-2.38a1.18,1.18,0,0,1,1.15-.31l3.25.87a1.18,1.18,0,0,1,.84.84l.87,3.24a1.19,1.19,0,0,1-.31,1.15l-2.38,2.38A1.19,1.19,0,0,1,80.22,22.25Zm.08-1.49h0Zm-3.07-.82,2.9.77,2.12-2.13-.78-2.9-2.9-.77L76.44,17Zm0,.17h0Zm5.1-1.65h0Zm-6-1.59h0Zm5.24-1.13h0Zm-.22-.22h0Zm-3-.64h0Z"/><path class="cls-1" d="M57.32,30.57l-.21,0-2.25-.6a.82.82,0,0,1-.58-.58l-.6-2.25a.82.82,0,0,1,.21-.79l1.65-1.65a.82.82,0,0,1,.79-.21l2.25.6a.82.82,0,0,1,.58.58l.61,2.25a.82.82,0,0,1-.21.79L57.9,30.33A.82.82,0,0,1,57.32,30.57Zm.05-1h0ZM55.25,29l2,.54L58.73,28l-.54-2-2-.54L54.71,27Zm0,.12h0Zm3.53-1.14h0Zm-4.14-1.1h0Zm3.63-.78h0Zm-.15-.15h0Zm-2.1-.45h0Z"/><path class="cls-1" d="M47,20a4.28,4.28,0,1,1,4.28-4.28A4.28,4.28,0,0,1,47,20ZM47,13a2.78,2.78,0,1,0,2.78,2.78A2.78,2.78,0,0,0,47,13Z"/><path class="cls-1" d="M13.43,46.16a3,3,0,1,1,3-3A3,3,0,0,1,13.43,46.16Zm0-4.44A1.47,1.47,0,1,0,14.9,43.2,1.47,1.47,0,0,0,13.43,41.73Z"/><path class="cls-1" d="M68.7,40.92a3,3,0,1,1,3-3A3,3,0,0,1,68.7,40.92Zm0-4.44A1.47,1.47,0,1,0,70.17,38,1.47,1.47,0,0,0,68.7,36.48Z"/><path class="cls-1" d="M29.11,35.83a1.93,1.93,0,0,1-.9-.22h0L25.14,34a2,2,0,0,1-.83-2.63l1.61-3.08a1.95,1.95,0,0,1,2.63-.83l3.08,1.6a2,2,0,0,1,.83,2.63l-1.61,3.08A2,2,0,0,1,29.11,35.83Zm-.2-1.55a.45.45,0,0,0,.61-.19L31.12,31a.45.45,0,0,0-.19-.6l-3.08-1.6a.46.46,0,0,0-.34,0,.45.45,0,0,0-.26.22l-1.61,3.08a.45.45,0,0,0,.19.6Z"/><path class="cls-1" d="M93.27,44a1.89,1.89,0,0,1-.88-.22h0l-3.14-1.64a1.92,1.92,0,0,1-.81-2.58l1.64-3.15a1.91,1.91,0,0,1,2.58-.81l3.14,1.64a1.92,1.92,0,0,1,.81,2.58L95,43A1.92,1.92,0,0,1,93.27,44Zm-.18-1.55a.42.42,0,0,0,.56-.18l1.64-3.14a.4.4,0,0,0,0-.31.41.41,0,0,0-.2-.24L92,36.94a.41.41,0,0,0-.56.18l-1.64,3.14a.42.42,0,0,0,.18.56Z"/><path class="cls-1" d="M82.77,150.52H23.64a7.41,7.41,0,0,1-7.4-7.4V54.57A4.57,4.57,0,0,1,20.81,50H48.2v1.5a5.77,5.77,0,0,0,11.53,0V50H85.6a4.57,4.57,0,0,1,4.57,4.57v88.56A7.41,7.41,0,0,1,82.77,150.52ZM20.81,53a1.57,1.57,0,0,0-1.57,1.57v88.56a4.41,4.41,0,0,0,4.4,4.4H82.77a4.41,4.41,0,0,0,4.4-4.4V54.57A1.57,1.57,0,0,0,85.6,53h-23a8.77,8.77,0,0,1-17.27,0Z"/><circle class="cls-2" cx="53.65" cy="100.26" r="17.46"/><path class="cls-3" d="M62,108.25a6,6,0,0,1-5.9-6.12l.16-8.32-3-.06A6.4,6.4,0,1,0,53,106.54l1.86,0,0,1.47L53,108a7.86,7.86,0,1,1,.3-15.72l4.44.09-.19,9.79A4.55,4.55,0,0,0,62,106.78Z"/></g></svg>