<svg id="Layer_1" data-name="Layer 1" xmlns="http://www.w3.org/2000/svg" viewBox="0 0 45 45"><defs><style>.cls-1,.cls-2{fill:none;stroke:#f8f8f8;stroke-miterlimit:10;stroke-width:2px;}.cls-2{stroke-linecap:round;}</style></defs><title>ticket</title><g id="TicketIcon"><path class="cls-1" d="M42.56,16.37,40.24,14l-.4-.4a5.16,5.16,0,0,1-8.72-3.73,4.87,4.87,0,0,1,1.31-3.51l.09-.08L32,5.81,29.85,3.66a1.81,1.81,0,0,0-2.55,0L3.44,27.52a1.81,1.81,0,0,0,0,2.55l2.87,2.87a5.16,5.16,0,0,1,7.29,7.29l2.55,2.55a1.81,1.81,0,0,0,2.55,0L42.56,18.92A1.81,1.81,0,0,0,42.56,16.37Z"/><line class="cls-2" x1="16.05" y1="26.56" x2="19.14" y2="29.65"/><line class="cls-2" x1="22.23" y1="32.4" x2="25.32" y2="35.48"/><line class="cls-2" x1="10.57" y1="21.08" x2="13.65" y2="24.16"/></g></svg>