<svg id="Layer_1" data-name="Layer 1" xmlns="http://www.w3.org/2000/svg" viewBox="0 0 45 45"><defs><style>.cls-1,.cls-2{fill:none;stroke:#f8f8f8;stroke-miterlimit:10;stroke-width:2px;}.cls-2{stroke-linecap:round;}</style></defs><title>Artboard 1</title><g id="TicketIcon"><path class="cls-1" d="M42.06,15.87l-2.32-2.32-.4-.4a5.16,5.16,0,0,1-8.72-3.73,4.87,4.87,0,0,1,1.31-3.51L32,5.82l-.51-.51L29.35,3.16a1.81,1.81,0,0,0-2.55,0L2.94,27a1.81,1.81,0,0,0,0,2.55l2.87,2.87a5.16,5.16,0,0,1,7.29,7.29l2.55,2.55a1.81,1.81,0,0,0,2.55,0L42.06,18.42A1.81,1.81,0,0,0,42.06,15.87Z"/><line class="cls-2" x1="15.55" y1="26.06" x2="18.64" y2="29.15"/><line class="cls-2" x1="21.73" y1="31.9" x2="24.82" y2="34.98"/><line class="cls-2" x1="10.07" y1="20.58" x2="13.15" y2="23.66"/></g></svg>