<svg xmlns="http://www.w3.org/2000/svg" viewBox="50 140 511 512"><path fill="#FFF" d="M306 141C165.2 141 51 255.2 51 396s114.2 255 255 255 255-114.2 255-255-114.2-255-255-255zm0 476.8c-122.5 0-221.9-99.3-221.9-221.8S183.5 174.1 306 174.1 527.8 273.5 527.8 396 428.5 617.8 306 617.8z"/><path fill="#FFF" d="M356.1 396.2V268.7h-66.3c-70.4 0-127.5 57.1-127.5 127.5s57.1 127.5 127.5 127.5h33.1v-33.1h-33.1c-52.1 0-94.3-42.2-94.3-94.4s42.2-94.4 94.3-94.4h33.1v94.4c0 70.4 57.1 127.5 127.5 127.5v-33.1c-52.1 0-94.3-42.3-94.3-94.4z"/></svg>