<?xml version="1.0" encoding="utf-8"?>
<!-- Generator: Adobe Illustrator 21.1.0, SVG Export Plug-In . SVG Version: 6.00 Build 0)  -->
<svg version="1.1" id="Layer_1" xmlns="http://www.w3.org/2000/svg" xmlns:xlink="http://www.w3.org/1999/xlink" x="0px" y="0px"
	 viewBox="0 0 190 50" style="enable-background:new 0 0 190 50;" xml:space="preserve">
<style type="text/css">
	.st0{fill:#4D4D4D;}
</style>
<title>sponsor</title>
<g>
	<path class="st0" d="M43.7,31.6c0.1-0.5,0.2-1,0.4-1.5c0.9-3.6,2.6-6.8,4.7-9.8c3-4.4,6.7-8.2,11.3-11c0.1-0.1,0.3-0.1,0.4-0.3
		c0.8-0.7,1.6-0.5,2.5,0.1c2,1.4,3.8,2.9,5.3,4.7c0.5,0.6,0.8,1.2,1.2,1.9c0.4,0.7,0.4,1.5,0.2,2.3c-0.6,1.9-1.7,3.7-3.1,5.1
		c-1.3,1.4-2.8,1.3-4.5,0.9c-0.4-0.1-0.4-0.3-0.2-0.6c0.9-1.8,1.6-3.7,1.8-5.8c0-0.2,0-0.4,0-0.8c-0.7,0.5-1.4,1-2,1.5
		c-4.5,3.7-8.4,8-11.2,13.1c-0.5,1-0.8,2-1.2,3.1c-0.1,0.3-0.1,0.7-0.1,1.1c0.8,0.2,1.6,0.1,2.4-0.1c3.8-0.8,7.2-2.4,10.5-4.3
		c1.1-0.6,2.2-1.4,3.5-2.1c0.1,0.4,0.3,0.7,0.4,1.1c0.4,1.9,0,3.6-1.5,5.1c-3.1,3.1-6.6,5.6-10.8,7.2c-0.6,0.2-1.2,0.4-1.8,0.6
		c-0.3,0-0.6,0-0.9,0c-0.5-0.3-1.1-0.6-1.6-1c-1.4-1.1-2.5-2.4-3.5-3.9c-1-1.4-1.7-2.9-2.1-4.5C43.7,33,43.7,32.3,43.7,31.6z"/>
	<path class="st0" d="M126.5,7c0.7,1.5,1.5,3,2.2,4.4c0.2,0.4,0.2,0.8,0,1.2c-1.3,2.7-2.6,5.5-3.9,8.2c-0.2,0.3-0.2,0.5,0.1,0.8
		c0.4,0.5,0.7,0.9,1.1,1.4c0.1,0.2,0.2,0.4,0.3,0.7c-1.1,0.3-2.1,0.5-3,0.8c-0.3,0.1-0.5,0.3-0.7,0.5c-1.9,3.2-3.9,6.4-6.2,9.3
		c-0.6,0.8-1.3,1.3-2.3,1.4c-1.1,0.2-2.1,0.4-3.2,0.6c-0.3,0-0.6,0-1-0.1c0.1-0.2,0.2-0.4,0.3-0.5c1.9-2.7,3.5-5.7,5.1-8.7
		c0.1-0.3,0.1-0.4-0.1-0.7c-0.7-0.9-1.4-1.8-2.2-2.8c1.2-0.4,2.4-0.9,3.5-1.1c0.9-0.2,1.3-0.6,1.6-1.4c0.8-2.1,1.6-4.2,2.4-6.2
		c0.1-0.2,0.1-0.3,0.2-0.6c-3.5,0.5-6.9,1.5-10.3,2.6c0.1-0.9,0.2-1.8,0.4-2.6c0.2-1.1,0.5-2.2,0.7-3.3c0.1-0.4,0.3-0.5,0.6-0.7
		c4-1.6,8.1-2.8,12.3-3.3c0.1,0,0.2-0.1,0.2-0.1C125.2,7,125.8,7,126.5,7z"/>
	<path class="st0" d="M146.3,14.8c-0.5,1.2-1,2.4-1.6,3.6c-0.5,1.1-1.1,2.2-1.7,3.3c-0.2,0.3-0.2,0.5,0.1,0.8c0.4,0.5,0.8,1,1.1,1.5
		c0.1,0.2,0.2,0.5,0.3,0.8c-1.1,0.3-2.1,0.5-3.2,0.7c-0.4,0.1-0.6,0.3-0.9,0.6c-1.9,3.2-3.9,6.3-6.2,9.2c-0.8,1-1.7,1.8-3.1,1.9
		c-0.9,0.1-1.9,0.3-2.8,0.4c-0.2,0-0.5,0-0.8-0.1c0.1-0.2,0.2-0.3,0.2-0.4c2.1-3,3.8-6.1,5.6-9.3c0.2-0.3,0.1-0.5-0.1-0.8
		c-0.7-0.9-1.3-1.9-2.1-3c1.2-0.3,2.3-0.7,3.5-0.9c0.8-0.1,1.3-0.5,1.6-1.3c0.7-1.8,1.5-3.6,2.2-5.4c0.1-0.2,0.1-0.3,0.2-0.6
		c-3.3,0.2-6.5,0.8-9.8,1.5c0.1-0.7,0.2-1.4,0.4-2c0.3-1.2,0.6-2.4,0.9-3.7c0.1-0.3,0.3-0.5,0.6-0.6c2.9-1,5.9-1.6,8.9-2
		c1.2-0.1,2.4-0.2,3.6-0.3c0.4,0,0.6,0.1,0.7,0.4c0.9,1.5,1.7,3,2.2,4.7c0,0.1,0.1,0.2,0.1,0.3C146.3,14.5,146.3,14.6,146.3,14.8z"
		/>
	<path class="st0" d="M85.2,17.2c-1.9,0.4-3.4,1.2-4.8,2c0.5,1.4,1,2.6,1.3,3.9c0.9,3.1,0.3,5.8-2,8.1c-0.5,0.5-1,1-1.5,1.4
		c-1.9,1.6-3.9,2.9-6.3,3.7c-0.4,0.1-0.6,0.1-1-0.1c-1.8-1.1-3.3-2.5-3.9-4.6c-0.4-1.6-0.2-3.1,0.3-4.6c0.8-2.5,2.2-4.8,4-6.7
		c0.2-0.2,0.5-0.4,0.9-0.5c0.8-0.3,1.6-0.5,2.4-0.7c-0.3-0.6-0.6-1.3-1-1.9c-0.4-0.7-0.4-0.8,0.3-1.1c1.7-0.7,3.3-1.4,5-2
		c1.5-0.5,3.1-0.8,4.6-1.2c0.6-0.1,1.2-0.1,1.8-0.1c1,0,1.7,0.5,2.2,1.3c0.8,1.3,1.5,2.6,2.2,3.8c0.8-0.9,1.7-1.9,2.7-2.9
		c1-1,2.1-1.8,3.5-2.3c-0.1,2.5-0.2,4.8-0.3,7.2c-2.1,0.4-3.9,1.1-5.6,2.1c-0.5,0.3-0.7,0.6-0.8,1.2c-0.6,2.7-1.2,5.5-1.8,8.2
		c-0.1,0.4-0.3,0.6-0.6,0.8c-1.6,0.9-3.3,1.6-5.1,2.1c-0.3,0.1-0.7,0.1-1,0.1c0.9-2.9,1.7-5.7,2.5-8.6C84.2,23.1,85,20.3,85.2,17.2z
		 M75.2,20.8C75.1,20.9,75.1,21,75,21c-1.4,2.3-2.2,4.8-2.5,7.5c-0.1,0.8-0.1,1.6,0.3,2.4c0.7-0.4,1.4-0.7,2-1.1
		c1-0.6,1.5-1.5,1.5-2.6C76.5,25,75.9,22.9,75.2,20.8z"/>
	<path class="st0" d="M101.1,20.7c1.2,0.7,2.4,1.1,3.7,1.4c0.4,0.1,0.5,0.3,0.4,0.6c-0.1,0.5-0.2,1-0.4,1.4
		c-0.1,0.2-0.2,0.3-0.4,0.5c-1.4,1.1-2.7,2.2-3.7,3.6c-0.4,0.6-0.7,1.2-1,1.8c3.7-1,6.9-2.8,10-5.2c0.1,0.3,0.2,0.5,0.3,0.7
		c0.3,1.6,0.1,3-1.1,4.2c-2.8,3-6,5.3-9.8,6.8c-1.7,0.7-1.5,0.7-2.6-0.8c-1-1.3-1.7-2.8-2.2-4.4c-0.6-1.7-0.2-3.2,1.2-4.3
		c1.3-1.1,2.8-2.1,4.2-3.2c0.1-0.1,0.3-0.2,0.5-0.3c-0.7-0.2-1.4-0.3-2-0.5c-0.6-0.2-1.3-0.5-1.9-0.7c-0.3-0.1-0.3-0.3-0.3-0.6
		c0.4-1.5,0.8-2.9,1.7-4.2c0.4-0.6,0.9-1.1,1.4-1.5c2.7-1.9,5.6-3.3,8.7-4.2c0.2-0.1,0.4-0.1,0.7-0.2c-0.2,1.1-0.3,2.1-0.5,3.1
		c-0.2,1.1-0.4,2.1-0.7,3.2c-0.1,0.4-0.2,0.6-0.6,0.6c-1.8,0.4-3.5,1.1-5.1,2C101.4,20.5,101.3,20.6,101.1,20.7z"/>
</g>
</svg>
