<svg width="200" height="71" viewBox="0 0 200 71" fill="none" xmlns="http://www.w3.org/2000/svg">
<path d="M0 48.3431C0.194932 47.3684 0.389859 46.3938 0.779723 45.4191C2.53411 38.4016 5.84795 32.1637 9.94152 26.3158C15.7895 17.7388 23.0019 10.3314 31.9688 4.87329C32.1637 4.67836 32.5536 4.67836 32.7485 4.2885C34.308 2.92398 35.8674 3.31384 37.6218 4.48343C41.5205 7.21247 45.0292 10.1365 47.9532 13.6452C48.9279 14.8148 49.5127 15.9844 50.2924 17.3489C51.0721 18.7134 51.0721 20.2729 50.6823 21.8324C49.5127 25.5361 47.3684 29.0448 44.6394 31.7739C42.1053 34.5029 39.1813 34.308 35.8674 33.5283C35.0877 33.3333 35.0877 32.9435 35.4776 32.3587C37.232 28.8499 38.5965 25.1462 38.9864 21.0526C38.9864 20.6628 38.9864 20.2729 38.9864 19.4932C37.6218 20.4678 36.2573 21.4425 35.0877 22.4172C26.3158 29.6296 18.7134 38.0117 13.2554 47.9532C12.2807 49.9025 11.6959 51.8518 10.9162 53.9961C10.7212 54.5809 10.7212 55.3606 10.7212 56.1403C12.2807 56.5302 13.8402 56.3353 15.3996 55.9454C22.807 54.386 29.4347 51.2671 35.8674 47.5634C38.0117 46.3938 40.1559 44.8343 42.6901 43.4698C42.885 44.2495 43.2749 44.8343 43.4698 45.614C44.2495 49.3177 43.4698 52.6316 40.5458 55.5556C34.5029 61.5984 27.6803 66.4717 19.4932 69.5906C18.3236 69.9805 17.154 70.3704 15.9844 70.7602C15.3996 70.7602 14.8148 70.7602 14.23 70.7602C13.2554 70.1754 12.0858 69.5906 11.1111 68.8109C8.38207 66.6667 6.23782 64.1326 4.2885 61.2086C2.33918 58.4795 0.974656 55.5556 0.194929 52.4366C-2.97733e-06 51.0721 0 49.7076 0 48.3431V48.3431Z" fill="#281E35"/>
<path d="M161.404 0.389863C162.768 3.31384 164.328 6.23782 165.692 8.96686C166.082 9.74659 166.082 10.5263 165.692 11.306C163.158 16.5692 160.624 22.0273 158.09 27.2904C157.7 27.8752 157.7 28.2651 158.285 28.8499C159.064 29.8246 159.649 30.6043 160.429 31.5789C160.624 31.9688 160.819 32.3587 161.014 32.9435C158.869 33.5283 156.92 33.9181 155.166 34.5029C154.581 34.6979 154.191 35.0877 153.801 35.4776C150.097 41.7154 146.199 47.9532 141.715 53.6062C140.546 55.1657 139.181 56.1403 137.232 56.3353C135.088 56.7251 133.138 57.115 130.994 57.5049C130.409 57.5049 129.825 57.5049 129.045 57.3099C129.24 56.9201 129.435 56.5302 129.63 56.3353C133.333 51.0721 136.452 45.2242 139.571 39.3762C139.766 38.7914 139.766 38.5965 139.376 38.0117C138.012 36.2573 136.647 34.5029 135.088 32.5536C137.427 31.7739 139.766 30.7992 141.91 30.4094C143.665 30.0195 144.444 29.2398 145.029 27.6803C146.589 23.5867 148.148 19.4932 149.708 15.5945C149.903 15.2047 149.903 15.0097 150.097 14.4249C143.275 15.3996 136.647 17.3489 130.02 19.4932C130.214 17.7388 130.409 15.9844 130.799 14.4249C131.189 12.2807 131.774 10.1365 132.164 7.9922C132.359 7.21247 132.749 7.01754 133.333 6.62768C141.131 3.50877 149.123 1.16959 157.31 0.194932C157.505 0.194932 157.7 0 157.7 0C158.869 0.389864 160.039 0.389863 161.404 0.389863V0.389863Z" fill="#281E35"/>
<path d="M200 15.5945C199.025 17.9337 198.051 20.2729 196.881 22.6121C195.906 24.7563 194.737 26.9006 193.567 29.0448C193.177 29.6296 193.177 30.0195 193.762 30.6043C194.542 31.5789 195.322 32.5536 195.906 33.5283C196.101 33.9181 196.296 34.5029 196.491 35.0877C194.347 35.6725 192.398 36.0624 190.253 36.4522C189.474 36.6472 189.084 37.037 188.499 37.6218C184.795 43.8597 180.897 49.9025 176.413 55.5556C174.854 57.5049 173.099 59.0643 170.37 59.2593C168.616 59.4542 166.667 59.844 164.912 60.039C164.522 60.039 163.938 60.039 163.353 59.8441C163.548 59.4542 163.743 59.2593 163.743 59.0643C167.836 53.2164 171.15 47.1735 174.659 40.9357C175.049 40.3509 174.854 39.961 174.464 39.3762C173.099 37.6218 171.93 35.6725 170.37 33.5283C172.71 32.9435 174.854 32.1637 177.193 31.7739C178.752 31.5789 179.727 30.7992 180.312 29.2398C181.676 25.731 183.236 22.2222 184.6 18.7134C184.795 18.3236 184.795 18.1287 184.99 17.5439C178.557 17.9337 172.32 19.1033 165.887 20.4678C166.082 19.1033 166.277 17.7388 166.667 16.5692C167.251 14.23 167.836 11.8908 168.421 9.35673C168.616 8.77193 169.006 8.38207 169.591 8.18713C175.244 6.23782 181.092 5.06823 186.94 4.2885C189.279 4.09357 191.618 3.89863 193.957 3.7037C194.737 3.7037 195.127 3.89864 195.322 4.48343C197.076 7.40741 198.635 10.3314 199.61 13.6452C199.61 13.8402 199.805 14.0351 199.805 14.23C200 15.0097 200 15.2047 200 15.5945V15.5945Z" fill="#281E35"/>
<path d="M80.8967 20.2729C77.193 21.0526 74.269 22.6121 71.54 24.1715C72.5146 26.9006 73.4893 29.2398 74.0741 31.7739C75.8285 37.8168 74.6589 43.0799 70.1755 47.5634C69.2008 48.538 68.2261 49.5127 67.2515 50.2924C63.5478 53.4113 59.6491 55.9454 54.9708 57.5049C54.1911 57.6998 53.8012 57.6998 53.0215 57.3099C49.5127 55.1657 46.5887 52.4366 45.4191 48.3431C44.6394 45.2242 45.0293 42.3002 46.0039 39.3762C47.5634 34.5029 50.2924 30.0195 53.8012 26.3158C54.1911 25.9259 54.7758 25.5361 55.5556 25.3411C57.115 24.7563 58.6745 24.3665 60.2339 23.9766C59.6491 22.807 59.0643 21.4425 58.2846 20.2729C57.5049 18.9084 57.5049 18.7134 58.8694 18.1287C62.1833 16.7641 65.3022 15.3996 68.616 14.23C71.54 13.2554 74.6589 12.6706 77.5829 11.8908C78.7525 11.6959 79.9221 11.6959 81.0916 11.6959C83.041 11.6959 84.4055 12.6706 85.3801 14.23C86.9396 16.7641 88.3041 19.2982 89.6686 21.6374C91.2281 19.883 92.9825 17.9337 94.9318 15.9844C96.8811 14.0351 99.0254 12.4756 101.754 11.501C101.559 16.3743 101.365 20.8577 101.17 25.5361C97.076 26.3158 93.5673 27.6803 90.2534 29.6296C89.2788 30.2144 88.8889 30.7992 88.694 31.9688C87.5244 37.232 86.3548 42.6901 85.1852 47.9532C84.9903 48.7329 84.6004 49.1228 84.0156 49.5127C80.8967 51.2671 77.5829 52.6316 74.0741 53.6062C73.4893 53.8012 72.7096 53.8012 72.1248 53.8012C73.8792 48.1481 75.4386 42.6901 76.9981 37.037C78.9474 31.7739 80.5068 26.3158 80.8967 20.2729V20.2729ZM61.4035 27.2904C61.2086 27.4854 61.2086 27.6803 61.0137 27.6803C58.2846 32.1637 56.7252 37.037 56.1404 42.3002C55.9454 43.8596 55.9454 45.4191 56.7252 46.9786C58.0897 46.1988 59.4542 45.614 60.6238 44.8343C62.5731 43.6647 63.5478 41.9103 63.5478 39.7661C63.9376 35.4776 62.768 31.384 61.4035 27.2904V27.2904Z" fill="#281E35"/>
<path d="M111.891 27.0955C114.23 28.46 116.569 29.2398 119.103 29.8246C119.883 30.0195 120.078 30.4094 119.883 30.9941C119.688 31.9688 119.493 32.9435 119.103 33.7232C118.908 34.1131 118.713 34.308 118.324 34.6979C115.595 36.8421 113.06 38.9864 111.111 41.7154C110.331 42.885 109.747 44.0546 109.162 45.2242C116.374 43.2748 122.612 39.7661 128.655 35.0877C128.85 35.6725 129.045 36.0624 129.24 36.4522C129.825 39.5711 129.435 42.3002 127.096 44.6394C121.637 50.4873 115.4 54.9708 107.992 57.8947C104.678 59.2593 105.068 59.2593 102.924 56.3353C100.975 53.8012 99.6102 50.8772 98.6355 47.7583C97.4659 44.4444 98.2456 41.5205 100.975 39.3762C103.509 37.232 106.433 35.2826 109.162 33.1384C109.357 32.9435 109.747 32.7485 110.136 32.5536C108.772 32.1637 107.407 31.9688 106.238 31.5789C105.068 31.1891 103.704 30.6043 102.534 30.2144C101.949 30.0195 101.949 29.6296 101.949 29.0448C102.729 26.1209 103.509 23.3918 105.263 20.8577C106.043 19.6881 107.018 18.7134 107.992 17.9337C113.255 14.23 118.908 11.501 124.951 9.74659C125.341 9.55166 125.731 9.55166 126.316 9.35672C125.926 11.501 125.731 13.4503 125.341 15.3996C124.951 17.5439 124.561 19.4932 123.977 21.6374C123.782 22.4172 123.587 22.807 122.807 22.807C119.298 23.5867 115.984 24.9513 112.866 26.7056C112.476 26.7056 112.281 26.9006 111.891 27.0955V27.0955Z" fill="#281E35"/>
</svg>
