<?xml version="1.0" encoding="utf-8"?>
<!-- Generator: Adobe Illustrator 19.0.0, SVG Export Plug-In . SVG Version: 6.00 Build 0)  -->
<svg version="1.1" id="blocked" xmlns="http://www.w3.org/2000/svg" xmlns:xlink="http://www.w3.org/1999/xlink" x="0px" y="0px"
	 viewBox="0 0 54.4 54.4" style="enable-background:new 0 0 54.4 54.4;" xml:space="preserve">
<style type="text/css">
	.st0{fill:#39BEB7;}
</style>
<g>
	<g>
		<g>
			<path class="st0" d="M39.5,39.1c-5.2,0-9.4-4.2-9.4-9.4v-12h-4c-5,0-9.1,4.1-9.1,9.1s4.1,9.1,9.1,9.1h2.8v3h-2.8
				C19.4,39,14,33.5,14,26.9s5.4-12.1,12.1-12.1h7v15c0,3.5,2.9,6.4,6.4,6.4V39.1z"/>
		</g>
		<g>
			<rect x="-6735.3" y="101.4" class="st0" width="16383" height="3"/>
		</g>
	</g>
	<g>
		<g>
			<path class="st0" d="M27.2,54.4C12.2,54.4,0,42.2,0,27.2S12.2,0,27.2,0c15,0,27.2,12.2,27.2,27.2S42.2,54.4,27.2,54.4z M27.2,3
				C13.8,3,3,13.8,3,27.2s10.8,24.2,24.2,24.2c13.3,0,24.2-10.8,24.2-24.2S40.5,3,27.2,3z"/>
		</g>
	</g>
</g>
</svg>
