<svg xmlns="http://www.w3.org/2000/svg" viewBox="0 0 200 200"><defs><style>.cls-1,.cls-2{fill:none;stroke:#3dccd0;stroke-miterlimit:10;}.cls-1{stroke-width:1.5px;}.cls-2{stroke-width:3px;}.cls-3{fill:#3dccd0;}</style></defs><title>food</title><g id="Layer_1" data-name="Layer 1"><path class="cls-1" d="M127.82,99.11h-3.46l2.49-11.33A2.37,2.37,0,0,1,128.54,86l7.3-2,.77,3-5.29,1.45a2.37,2.37,0,0,0-1.7,1.82Z"/><line class="cls-2" x1="57.04" y1="128.03" x2="109.95" y2="128.03"/><path class="cls-2" d="M126.83,106.65H107L114.53,161a3.36,3.36,0,0,0,3.33,2.9H135.8a3.36,3.36,0,0,0,3.33-2.9l7.53-54.39Z"/><path class="cls-2" d="M118.81,99.11,119,52.27a2.21,2.21,0,0,0-2.21-2.22h-21a7.75,7.75,0,0,1-15.49,0h-21A2.21,2.21,0,0,0,57,52.27V157a2.21,2.21,0,0,0,2.21,2.21h55"/><polygon class="cls-2" points="144.34 123.4 109.31 123.4 112 142.82 141.65 142.82 144.34 123.4"/><rect class="cls-3" x="104.69" y="102.66" width="44.26" height="3.99" rx="0.28" ry="0.28"/><path class="cls-2" d="M107.63,99.11H146a.64.64,0,0,1,.64.64v4.07a0,0,0,0,1,0,0H107a0,0,0,0,1,0,0V99.74A.64.64,0,0,1,107.63,99.11Z"/></g></svg>