<svg xmlns="http://www.w3.org/2000/svg" viewBox="0 0 200 200"><defs><style>.cls-1,.cls-2{fill:none;stroke:#46cccf;stroke-miterlimit:10;stroke-width:3px;}.cls-2{stroke-linecap:round;}</style></defs><title>ticket_teal</title><g id="Layer_1" data-name="Layer 1"><g id="TicketIcon"><path class="cls-1" d="M150.68,82.25l-6-6-1-1A13.36,13.36,0,0,1,121,65.53a12.61,12.61,0,0,1,3.39-9.08l.23-.22-1.32-1.32-5.58-5.58a4.68,4.68,0,0,0-6.62,0L49.32,111.13a4.68,4.68,0,0,0,0,6.62l7.43,7.43a13.36,13.36,0,0,1,18.88,18.88l6.62,6.62a4.68,4.68,0,0,0,6.62,0l61.81-61.81A4.68,4.68,0,0,0,150.68,82.25Z"/><line class="cls-2" x1="82.01" y1="108.66" x2="90" y2="116.66"/><line class="cls-2" x1="98" y1="123.77" x2="106" y2="131.77"/><line class="cls-2" x1="67.79" y1="94.45" x2="75.78" y2="102.44"/></g></g></svg>