<svg id="Layer_1" data-name="Layer 1" xmlns="http://www.w3.org/2000/svg" viewBox="0 0 443.45 120"><defs><style>.cls-1{opacity:0.25;}.cls-2{fill:#281e35;}.cls-3{fill:#ee3b55;}.cls-4{fill:#2071ff;}.cls-5{fill:#bcd4ff;}.cls-6{fill:#f2c227;}.cls-7{fill:#f9f4d8;}.cls-8{fill:#ff3250;}</style></defs><title>contact_us_graphic</title><g class="cls-1"><path class="cls-2" d="M99.8,61.71c-19.46,0-35.24,9.11-35.24,20.35,0,4.92,3,9.43,8.06,13l-18.45,6.15,35.25,6.45-4-7a57.73,57.73,0,0,0,14.41,1.78c19.47,0,35.25-9.11,35.25-20.35S119.27,61.71,99.8,61.71Z"/><path class="cls-2" d="M89.42,109.11a1.15,1.15,0,0,1-.26,0L53.9,102.63a1.5,1.5,0,0,1-.2-2.9l15.79-5.26c-4.17-3.61-6.43-7.94-6.43-12.41,0-12,16.48-21.85,36.74-21.85s36.75,9.8,36.75,21.85-16.48,21.85-36.75,21.85a60.05,60.05,0,0,1-11.4-1.07l2.32,4a1.47,1.47,0,0,1-.07,1.61A1.5,1.5,0,0,1,89.42,109.11Zm-29.23-8.38,26.31,4.82-2.41-4.17a1.5,1.5,0,0,1,1.68-2.2,56.35,56.35,0,0,0,14,1.73c18.61,0,33.75-8.46,33.75-18.85S118.41,63.21,99.8,63.21,66.06,71.67,66.06,82.06c0,4.21,2.63,8.38,7.42,11.72a1.5,1.5,0,0,1-.39,2.65Z"/></g><g class="cls-1"><polyline class="cls-2" points="424.67 91.32 433.49 106.58 398.24 100.13"/><path class="cls-2" d="M433.49,108.08l-.27,0L398,101.61a1.5,1.5,0,1,1,.54-3l32.06,5.86-7.2-12.45a1.5,1.5,0,0,1,2.6-1.5l8.82,15.26a1.49,1.49,0,0,1-1.3,2.25Z"/></g><path class="cls-3" d="M389.42,91.05,407,60.53l17.62,30.52h0c0,5.62-7.89,10.17-17.62,10.17s-17.62-4.55-17.62-10.17Z"/><path class="cls-2" d="M407,102.72c-10.72,0-19.12-5.13-19.12-11.67a1.53,1.53,0,0,1,.2-.75l17.62-30.52a1.5,1.5,0,0,1,2.6,0L426,90.3a1.44,1.44,0,0,1,.21.75C426.17,97.59,417.77,102.72,407,102.72Zm-16.1-11.3c.37,4.54,7.6,8.3,16.1,8.3s15.73-3.76,16.11-8.3L407,63.53Z"/><g class="cls-1"><ellipse class="cls-2" cx="305.4" cy="72.6" rx="17.62" ry="10.17"/><path class="cls-2" d="M305.4,84.28c-10.72,0-19.12-5.13-19.12-11.68s8.4-11.67,19.12-11.67,19.12,5.13,19.12,11.67S316.13,84.28,305.4,84.28Zm0-20.35c-8.74,0-16.12,4-16.12,8.67s7.38,8.68,16.12,8.68,16.12-4,16.12-8.68S314.14,63.93,305.4,63.93Z"/></g><ellipse class="cls-4" cx="298.03" cy="67.74" rx="17.62" ry="10.17"/><path class="cls-2" d="M298,79.42c-10.72,0-19.12-5.13-19.12-11.68s8.4-11.67,19.12-11.67,19.12,5.13,19.12,11.67S308.75,79.42,298,79.42Zm0-20.35c-8.74,0-16.12,4-16.12,8.67s7.38,8.68,16.12,8.68,16.12-4,16.12-8.68S306.77,59.07,298,59.07Z"/><polyline class="cls-4" points="315.65 67.74 315.65 47.4 280.41 47.4 280.41 67.74"/><path class="cls-2" d="M315.65,69.24a1.5,1.5,0,0,1-1.5-1.5V48.9H281.91V67.74a1.5,1.5,0,1,1-3,0V47.4a1.5,1.5,0,0,1,1.5-1.5h35.24a1.5,1.5,0,0,1,1.5,1.5V67.74A1.5,1.5,0,0,1,315.65,69.24Z"/><ellipse class="cls-5" cx="298.03" cy="47.4" rx="17.62" ry="10.17"/><path class="cls-2" d="M298,59.07c-10.72,0-19.12-5.13-19.12-11.67s8.4-11.68,19.12-11.68,19.12,5.13,19.12,11.68S308.75,59.07,298,59.07Zm0-20.35c-8.74,0-16.12,4-16.12,8.68s7.38,8.67,16.12,8.67,16.12-4,16.12-8.67S306.77,38.72,298,38.72Z"/><g class="cls-1"><polygon class="cls-2" points="226.39 90.25 244.01 100.43 226.39 110.6 208.77 100.43 226.39 90.25"/><path class="cls-2" d="M226.39,112.1a1.46,1.46,0,0,1-.75-.2L208,101.73a1.5,1.5,0,0,1,0-2.6L225.64,89a1.49,1.49,0,0,1,1.5,0l17.63,10.17a1.5,1.5,0,0,1,0,2.6L227.14,111.9A1.43,1.43,0,0,1,226.39,112.1Zm-14.62-11.67,14.62,8.44L241,100.43,226.39,92Z"/></g><polygon class="cls-6" points="217.06 84.9 199.43 74.73 199.43 95.08 217.06 105.25 234.68 95.08 234.68 74.73 217.06 84.9"/><path class="cls-2" d="M217.06,106.75a1.43,1.43,0,0,1-.75-.2L198.68,96.38a1.52,1.52,0,0,1-.75-1.3V74.73a1.51,1.51,0,0,1,.75-1.3,1.49,1.49,0,0,1,1.5,0l16.88,9.74,16.87-9.74a1.49,1.49,0,0,1,1.5,0,1.51,1.51,0,0,1,.75,1.3V95.08a1.52,1.52,0,0,1-.75,1.3l-17.62,10.17A1.48,1.48,0,0,1,217.06,106.75ZM200.93,94.21l16.13,9.31,16.12-9.31V77.33L217.81,86.2a1.49,1.49,0,0,1-1.5,0l-15.38-8.87Z"/><polygon class="cls-7" points="217.06 64.55 234.68 74.73 217.06 84.9 199.43 74.73 217.06 64.55"/><path class="cls-2" d="M217.06,86.4a1.43,1.43,0,0,1-.75-.2L198.68,76a1.5,1.5,0,0,1,0-2.6l17.63-10.17a1.49,1.49,0,0,1,1.5,0l17.62,10.17a1.5,1.5,0,0,1,0,2.6L217.81,86.2A1.48,1.48,0,0,1,217.06,86.4ZM202.43,74.73l14.63,8.44,14.62-8.44-14.62-8.44Z"/><g class="cls-1"><ellipse class="cls-2" cx="54.18" cy="75.91" rx="17.62" ry="10.17"/><path class="cls-2" d="M54.17,87.59c-10.72,0-19.12-5.13-19.12-11.68s8.4-11.67,19.12-11.67S73.3,69.37,73.3,75.91,64.9,87.59,54.17,87.59Zm0-20.35c-8.73,0-16.12,4-16.12,8.67s7.39,8.68,16.12,8.68,16.13-4,16.13-8.68S62.91,67.24,54.17,67.24Z"/></g><ellipse class="cls-4" cx="46.8" cy="71.05" rx="17.62" ry="10.17"/><path class="cls-2" d="M46.8,82.73c-10.72,0-19.12-5.13-19.12-11.68s8.4-11.67,19.12-11.67S65.93,64.5,65.93,71.05,57.53,82.73,46.8,82.73Zm0-20.35c-8.74,0-16.12,4-16.12,8.67s7.38,8.68,16.12,8.68,16.13-4,16.13-8.68S55.54,62.38,46.8,62.38Z"/><polyline class="cls-4" points="64.43 71.05 64.43 50.7 29.18 50.7 29.18 71.05"/><path class="cls-2" d="M64.43,72.55a1.5,1.5,0,0,1-1.5-1.5V52.2H30.68V71.05a1.5,1.5,0,0,1-3,0V50.7a1.5,1.5,0,0,1,1.5-1.5H64.43a1.5,1.5,0,0,1,1.5,1.5V71.05A1.5,1.5,0,0,1,64.43,72.55Z"/><polyline class="cls-4" points="64.43 71.05 64.43 25.48 29.18 25.48 29.18 71.05"/><path class="cls-2" d="M64.43,72.55a1.5,1.5,0,0,1-1.5-1.5V27H30.68V71.05a1.5,1.5,0,0,1-3,0V25.48a1.5,1.5,0,0,1,1.5-1.5H64.43a1.5,1.5,0,0,1,1.5,1.5V71.05A1.5,1.5,0,0,1,64.43,72.55Z"/><ellipse class="cls-5" cx="46.8" cy="25.48" rx="17.62" ry="10.17"/><path class="cls-2" d="M46.8,37.15c-10.72,0-19.12-5.12-19.12-11.67S36.08,13.8,46.8,13.8s19.13,5.13,19.13,11.68S57.53,37.15,46.8,37.15Zm0-20.35c-8.74,0-16.12,4-16.12,8.68s7.38,8.67,16.12,8.67,16.13-4,16.13-8.67S55.54,16.8,46.8,16.8Z"/><circle class="cls-8" cx="88.01" cy="56.25" r="35.25"/><path class="cls-2" d="M88,93a36.75,36.75,0,1,1,36.74-36.74A36.79,36.79,0,0,1,88,93ZM88,22.5a33.75,33.75,0,1,0,33.74,33.75A33.79,33.79,0,0,0,88,22.5Z"/><path class="cls-6" d="M45.35,92.07,63,61.55,80.6,92.07h0c0,5.62-7.89,10.18-17.63,10.18S45.35,97.69,45.35,92.07Z"/><path class="cls-2" d="M63,103.75c-10.72,0-19.12-5.13-19.12-11.68a1.53,1.53,0,0,1,.2-.75L61.67,60.8a1.5,1.5,0,0,1,2.6,0L81.89,91.32a1.44,1.44,0,0,1,.21.75C82.1,98.62,73.7,103.75,63,103.75Zm-16.1-11.3c.38,4.54,7.6,8.3,16.1,8.3S78.7,97,79.08,92.45L63,64.55Z"/><g class="cls-1"><ellipse class="cls-2" cx="126.2" cy="96.26" rx="17.62" ry="10.17"/><path class="cls-2" d="M126.2,107.94c-10.72,0-19.12-5.13-19.12-11.68s8.4-11.67,19.12-11.67,19.13,5.13,19.13,11.67S136.93,107.94,126.2,107.94Zm0-20.35c-8.74,0-16.12,4-16.12,8.67s7.38,8.68,16.12,8.68,16.13-4,16.13-8.68S134.94,87.59,126.2,87.59Z"/></g><circle class="cls-4" cx="120.31" cy="83.36" r="17.62"/><path class="cls-2" d="M120.31,102.48a19.13,19.13,0,1,1,19.12-19.12A19.15,19.15,0,0,1,120.31,102.48Zm0-35.25a16.13,16.13,0,1,0,16.12,16.13A16.15,16.15,0,0,0,120.31,67.23Z"/></svg>