<svg id="Layer_1" data-name="Layer 1" xmlns="http://www.w3.org/2000/svg" viewBox="0 0 170 120"><defs><style>.cls-1{opacity:0.25;}.cls-2{fill:#281e35;}.cls-3{fill:#2071ff;}.cls-4{fill:#bcd4ff;}.cls-5{fill:#ff3250;}.cls-6{fill:#f2c227;}</style></defs><title>contact_us_graphic_mobile</title><g class="cls-1"><path class="cls-2" d="M98.3,60.25c-19.46,0-35.24,9.11-35.24,20.35,0,4.92,3,9.43,8,13L52.67,99.7l35.25,6.45-4-7A57.68,57.68,0,0,0,98.3,101c19.47,0,35.25-9.11,35.25-20.35S117.77,60.25,98.3,60.25Z"/><path class="cls-2" d="M87.92,107.65l-.27,0L52.4,101.18a1.51,1.51,0,0,1-1.23-1.37,1.49,1.49,0,0,1,1-1.53L68,93c-4.16-3.62-6.42-8-6.42-12.42,0-12,16.48-21.85,36.74-21.85s36.75,9.81,36.75,21.85-16.49,21.85-36.75,21.85a60.88,60.88,0,0,1-11.4-1.06l2.32,4a1.49,1.49,0,0,1-1.3,2.25ZM58.68,99.28,85,104.09l-2.41-4.17a1.49,1.49,0,0,1,1.67-2.2,56,56,0,0,0,14,1.73c18.61,0,33.75-8.45,33.75-18.85S116.91,61.75,98.3,61.75,64.56,70.21,64.56,80.6c0,4.22,2.63,8.38,7.41,11.72A1.5,1.5,0,0,1,71.59,95Z"/></g><g class="cls-1"><ellipse class="cls-2" cx="52.67" cy="74.46" rx="17.62" ry="10.17"/><path class="cls-2" d="M52.67,86.13C42,86.13,33.55,81,33.55,74.46S42,62.78,52.67,62.78s19.12,5.13,19.12,11.68S63.39,86.13,52.67,86.13Zm0-20.35c-8.74,0-16.12,4-16.12,8.68s7.38,8.67,16.12,8.67,16.12-4,16.12-8.67S61.41,65.78,52.67,65.78Z"/></g><ellipse class="cls-3" cx="45.3" cy="69.59" rx="17.62" ry="10.17"/><path class="cls-2" d="M45.3,81.27c-10.72,0-19.12-5.13-19.12-11.68s8.4-11.67,19.12-11.67,19.12,5.13,19.12,11.67S56,81.27,45.3,81.27Zm0-20.35c-8.74,0-16.12,4-16.12,8.67s7.38,8.68,16.12,8.68,16.12-4,16.12-8.68S54,60.92,45.3,60.92Z"/><polyline class="cls-3" points="62.92 69.59 62.92 49.25 27.68 49.25 27.68 69.59"/><path class="cls-2" d="M62.92,71.09a1.5,1.5,0,0,1-1.5-1.5V50.75H29.18V69.59a1.5,1.5,0,0,1-3,0V49.25a1.5,1.5,0,0,1,1.5-1.5H62.92a1.5,1.5,0,0,1,1.5,1.5V69.59A1.5,1.5,0,0,1,62.92,71.09Z"/><polyline class="cls-3" points="62.92 69.59 62.92 24.02 27.68 24.02 27.68 69.59"/><path class="cls-2" d="M62.92,71.09a1.5,1.5,0,0,1-1.5-1.5V25.52H29.18V69.59a1.5,1.5,0,0,1-3,0V24a1.5,1.5,0,0,1,1.5-1.5H62.92a1.5,1.5,0,0,1,1.5,1.5V69.59A1.5,1.5,0,0,1,62.92,71.09Z"/><ellipse class="cls-4" cx="45.3" cy="24.02" rx="17.62" ry="10.17"/><path class="cls-2" d="M45.3,35.7C34.58,35.7,26.18,30.57,26.18,24s8.4-11.67,19.12-11.67S64.42,17.48,64.42,24,56,35.7,45.3,35.7Zm0-20.35c-8.74,0-16.12,4-16.12,8.67S36.56,32.7,45.3,32.7s16.12-4,16.12-8.68S54,15.35,45.3,15.35Z"/><circle class="cls-5" cx="86.51" cy="54.79" r="35.25"/><path class="cls-2" d="M86.51,91.54a36.75,36.75,0,1,1,36.74-36.75A36.79,36.79,0,0,1,86.51,91.54Zm0-70.49a33.75,33.75,0,1,0,33.74,33.74A33.78,33.78,0,0,0,86.51,21.05Z"/><path class="cls-6" d="M43.85,90.62,61.47,60.09,79.09,90.62h0c0,5.62-7.89,10.17-17.62,10.17S43.85,96.24,43.85,90.62Z"/><path class="cls-2" d="M61.47,102.29c-10.72,0-19.12-5.13-19.12-11.67a1.5,1.5,0,0,1,.2-.75L60.17,59.34a1.51,1.51,0,0,1,1.3-.75h0a1.51,1.51,0,0,1,1.3.75L80.39,89.87a1.5,1.5,0,0,1,.2.75C80.59,97.16,72.19,102.29,61.47,102.29ZM45.36,91c.38,4.54,7.6,8.3,16.11,8.3S77.2,95.53,77.58,91L61.47,63.09Z"/><g class="cls-1"><ellipse class="cls-2" cx="124.7" cy="94.81" rx="17.62" ry="10.17"/><path class="cls-2" d="M124.7,106.48c-10.72,0-19.12-5.13-19.12-11.67S114,83.13,124.7,83.13s19.12,5.13,19.12,11.68S135.42,106.48,124.7,106.48Zm0-20.35c-8.74,0-16.12,4-16.12,8.68s7.38,8.67,16.12,8.67,16.12-4,16.12-8.67S133.44,86.13,124.7,86.13Z"/></g><circle class="cls-3" cx="118.8" cy="81.9" r="17.62"/><path class="cls-2" d="M118.8,101A19.12,19.12,0,1,1,137.93,81.9,19.14,19.14,0,0,1,118.8,101Zm0-35.24A16.12,16.12,0,1,0,134.93,81.9,16.14,16.14,0,0,0,118.8,65.78Z"/></svg>