<svg id="Layer_1" data-name="Layer 1" xmlns="http://www.w3.org/2000/svg" viewBox="0 0 443.45 120"><defs><style>.cls-1{opacity:0.25;}.cls-2{fill:#281e35;}.cls-3{fill:#2071ff;}.cls-4{fill:#ff3250;}.cls-5{fill:#f99;}.cls-6{fill:#bcd4ff;}.cls-7{fill:#f2c227;}.cls-8{fill:#f9f4d8;}</style></defs><title>get_tickets_graphic</title><g class="cls-1"><path class="cls-2" d="M431.11,91.44l-8.82-15.26-18.58,6.19c-6.25-5.68-17.23-9.44-29.74-9.44-19.47,0-35.25,9.11-35.25,20.35S354.5,113.62,374,113.62s35.24-9.11,35.24-20.34a12.62,12.62,0,0,0-1.64-6.15Z"/><path class="cls-2" d="M374,115.12c-20.26,0-36.75-9.8-36.75-21.84S353.71,71.43,374,71.43c12.07,0,23.23,3.44,30.08,9.24l17.76-5.92a1.5,1.5,0,0,1,1.77.68l8.83,15.26a1.49,1.49,0,0,1-.08,1.61,1.47,1.47,0,0,1-1.49.61l-20.78-3.8a13.85,13.85,0,0,1,.65,4.17C410.71,105.32,394.23,115.12,374,115.12Zm0-40.69c-18.61,0-33.75,8.45-33.75,18.85s15.14,18.84,33.75,18.84,33.74-8.45,33.74-18.84a11.28,11.28,0,0,0-1.45-5.43,1.5,1.5,0,0,1,.1-1.6,1.47,1.47,0,0,1,1.48-.59l20.34,3.72L421.6,78l-17.41,5.8a1.5,1.5,0,0,1-1.48-.31C396.46,77.81,385.71,74.43,374,74.43Z"/></g><path class="cls-3" d="M387,75.91l17.62-30.53,17.63,30.53h0c0,5.61-7.89,10.17-17.63,10.17S387,81.52,387,75.91Z"/><path class="cls-2" d="M404.65,87.58c-10.72,0-19.12-5.13-19.12-11.67a1.48,1.48,0,0,1,.2-.75l17.63-30.53a1.49,1.49,0,0,1,2.59,0l17.63,30.53a1.48,1.48,0,0,1,.2.75C423.78,82.45,415.38,87.58,404.65,87.58Zm-16.1-11.3c.38,4.54,7.6,8.3,16.1,8.3s15.73-3.76,16.11-8.3l-16.11-27.9Z"/><g class="cls-1"><ellipse class="cls-2" cx="317.73" cy="98.94" rx="17.62" ry="10.17"/><path class="cls-2" d="M317.73,110.61c-10.72,0-19.12-5.12-19.12-11.67s8.4-11.68,19.12-11.68,19.13,5.13,19.13,11.68S328.46,110.61,317.73,110.61Zm0-20.35c-8.74,0-16.12,4-16.12,8.68s7.38,8.67,16.12,8.67,16.13-4,16.13-8.67S326.47,90.26,317.73,90.26Z"/></g><g class="cls-1"><polygon class="cls-2" points="194.76 77.81 212.39 87.98 194.76 98.16 177.14 87.98 194.76 77.81"/><path class="cls-2" d="M194.77,99.66a1.53,1.53,0,0,1-.75-.2L176.39,89.28a1.49,1.49,0,0,1,0-2.59L194,76.51a1.49,1.49,0,0,1,1.5,0l17.62,10.18a1.49,1.49,0,0,1,0,2.59L195.52,99.46A1.59,1.59,0,0,1,194.77,99.66ZM180.14,88l14.63,8.45L209.39,88l-14.62-8.44Z"/></g><polygon class="cls-4" points="185.43 72.46 167.81 62.28 167.81 82.63 185.43 92.81 203.05 82.63 203.05 62.28 185.43 72.46"/><path class="cls-2" d="M185.43,94.31a1.53,1.53,0,0,1-.75-.2L167.06,83.93a1.49,1.49,0,0,1-.75-1.3V62.28a1.5,1.5,0,0,1,.75-1.3,1.54,1.54,0,0,1,1.5,0l16.87,9.75L202.3,61a1.54,1.54,0,0,1,1.5,0,1.52,1.52,0,0,1,.75,1.3V82.63a1.51,1.51,0,0,1-.75,1.3L186.18,94.11A1.53,1.53,0,0,1,185.43,94.31ZM169.31,81.77l16.12,9.3,16.12-9.3V64.88l-15.37,8.88a1.49,1.49,0,0,1-1.5,0l-15.37-8.88Z"/><polygon class="cls-5" points="185.43 52.11 203.05 62.28 185.43 72.46 167.81 62.28 185.43 52.11"/><path class="cls-2" d="M185.43,74a1.53,1.53,0,0,1-.75-.2L167.06,63.58a1.5,1.5,0,0,1,0-2.6l17.62-10.17a1.49,1.49,0,0,1,1.5,0L203.8,61a1.5,1.5,0,0,1,0,2.6L186.18,73.76A1.53,1.53,0,0,1,185.43,74ZM170.81,62.28l14.62,8.45,14.62-8.45-14.62-8.44Z"/><g class="cls-1"><ellipse class="cls-2" cx="72.36" cy="75.13" rx="17.62" ry="10.17"/><path class="cls-2" d="M72.36,86.81c-10.72,0-19.12-5.13-19.12-11.68s8.4-11.67,19.12-11.67,19.12,5.13,19.12,11.67S83.08,86.81,72.36,86.81Zm0-20.35c-8.74,0-16.12,4-16.12,8.67s7.38,8.68,16.12,8.68,16.12-4,16.12-8.68S81.1,66.46,72.36,66.46Z"/></g><ellipse class="cls-3" cx="64.99" cy="70.27" rx="17.62" ry="10.17"/><path class="cls-2" d="M65,82c-10.72,0-19.12-5.13-19.12-11.68S54.27,58.6,65,58.6s19.12,5.13,19.12,11.67S75.71,82,65,82ZM65,61.6c-8.74,0-16.12,4-16.12,8.67S56.25,79,65,79s16.12-4,16.12-8.68S73.73,61.6,65,61.6Z"/><polyline class="cls-3" points="82.61 70.27 82.61 49.92 47.37 49.92 47.37 70.27"/><path class="cls-2" d="M82.61,71.77a1.5,1.5,0,0,1-1.5-1.5V51.42H48.87V70.27a1.5,1.5,0,0,1-3,0V49.92a1.5,1.5,0,0,1,1.5-1.5H82.61a1.5,1.5,0,0,1,1.5,1.5V70.27A1.5,1.5,0,0,1,82.61,71.77Z"/><ellipse class="cls-6" cx="64.99" cy="49.92" rx="17.62" ry="10.17"/><path class="cls-2" d="M65,61.6c-10.72,0-19.12-5.13-19.12-11.68S54.27,38.25,65,38.25s19.12,5.13,19.12,11.67S75.71,61.6,65,61.6Zm0-20.35c-8.74,0-16.12,4-16.12,8.67S56.25,58.6,65,58.6s16.12-4,16.12-8.68S73.73,41.25,65,41.25Z"/><ellipse class="cls-7" cx="359.23" cy="83.55" rx="35.25" ry="20.35"/><path class="cls-2" d="M359.22,105.4c-20.26,0-36.74-9.8-36.74-21.85S339,61.7,359.22,61.7,396,71.51,396,83.55,379.49,105.4,359.22,105.4Zm0-40.7c-18.6,0-33.74,8.46-33.74,18.85s15.14,18.85,33.74,18.85S393,94,393,83.55,377.83,64.7,359.22,64.7Z"/><polyline class="cls-7" points="394.47 83.55 394.47 42.86 323.98 42.86 323.98 83.55"/><path class="cls-2" d="M394.47,85.05a1.5,1.5,0,0,1-1.5-1.5V44.36H325.48V83.55a1.5,1.5,0,1,1-3,0V42.86a1.5,1.5,0,0,1,1.5-1.5h70.49a1.5,1.5,0,0,1,1.5,1.5V83.55A1.5,1.5,0,0,1,394.47,85.05Z"/><ellipse class="cls-8" cx="359.23" cy="42.86" rx="35.25" ry="20.35"/><path class="cls-2" d="M359.22,64.7c-20.26,0-36.74-9.8-36.74-21.84S339,21,359.22,21,396,30.81,396,42.86,379.49,64.7,359.22,64.7Zm0-40.69c-18.6,0-33.74,8.45-33.74,18.85S340.62,61.7,359.22,61.7,393,53.25,393,42.86,377.83,24,359.22,24Z"/><g class="cls-1"><polyline class="cls-2" points="369.17 36.91 378 52.17 342.74 45.72"/><path class="cls-2" d="M378,53.67l-.28,0L342.47,47.2a1.5,1.5,0,1,1,.54-3l32.06,5.87-7.19-12.45a1.5,1.5,0,1,1,2.59-1.5l8.82,15.26A1.49,1.49,0,0,1,378,53.67Z"/></g><path class="cls-4" d="M333.92,36.64,351.54,6.11l17.63,30.53h0c0,5.62-7.89,10.17-17.63,10.17s-17.62-4.55-17.62-10.17Z"/><path class="cls-2" d="M351.54,48.31c-10.72,0-19.12-5.13-19.12-11.67a1.5,1.5,0,0,1,.2-.75L350.24,5.36a1.52,1.52,0,0,1,1.3-.75h0a1.51,1.51,0,0,1,1.3.75l17.62,30.53a1.42,1.42,0,0,1,.21.75C370.67,43.18,362.27,48.31,351.54,48.31ZM335.44,37c.37,4.54,7.6,8.3,16.1,8.3s15.73-3.76,16.11-8.3L351.54,9.11Z"/><g class="cls-1"><ellipse class="cls-2" cx="41.38" cy="91.5" rx="17.62" ry="10.17"/><path class="cls-2" d="M41.38,103.18c-10.72,0-19.12-5.13-19.12-11.68s8.4-11.67,19.12-11.67S60.5,85,60.5,91.5,52.1,103.18,41.38,103.18Zm0-20.35c-8.74,0-16.12,4-16.12,8.67s7.38,8.68,16.12,8.68,16.12-4,16.12-8.68S50.12,82.83,41.38,82.83Z"/></g><circle class="cls-7" cx="35.48" cy="78.6" r="17.62"/><path class="cls-2" d="M35.48,97.72A19.12,19.12,0,1,1,54.6,78.6,19.15,19.15,0,0,1,35.48,97.72Zm0-35.24A16.12,16.12,0,1,0,51.6,78.6,16.14,16.14,0,0,0,35.48,62.48Z"/><circle class="cls-3" cx="311.84" cy="86.03" r="17.62"/><path class="cls-2" d="M311.84,105.16A19.13,19.13,0,1,1,331,86,19.15,19.15,0,0,1,311.84,105.16Zm0-35.25A16.13,16.13,0,1,0,328,86,16.15,16.15,0,0,0,311.84,69.91Z"/></svg>