<svg id="Layer_1" data-name="Layer 1" xmlns="http://www.w3.org/2000/svg" viewBox="0 0 170 120"><defs><style>.cls-1{opacity:0.25;}.cls-2{fill:#281e35;}.cls-3{fill:#2071ff;}.cls-4{fill:#f2c227;}.cls-5{fill:#f9f4d8;}.cls-6{fill:#ff3250;}</style></defs><title>get_tickets_graphic_mobile</title><g class="cls-1"><path class="cls-2" d="M154.61,91.57l-8.83-15.26L127.21,82.5C121,76.82,110,73.06,97.47,73.06c-19.47,0-35.25,9.11-35.25,20.35S78,113.75,97.47,113.75s35.24-9.11,35.24-20.34a12.62,12.62,0,0,0-1.64-6.15Z"/><path class="cls-2" d="M97.47,115.25c-20.26,0-36.75-9.8-36.75-21.84S77.21,71.56,97.47,71.56c12.07,0,23.23,3.44,30.08,9.24l17.76-5.92a1.51,1.51,0,0,1,1.77.68l8.82,15.26A1.5,1.5,0,0,1,154.33,93l-20.78-3.8a13.56,13.56,0,0,1,.66,4.17C134.21,105.45,117.73,115.25,97.47,115.25Zm0-40.69c-18.61,0-33.75,8.45-33.75,18.85s15.14,18.84,33.75,18.84,33.74-8.45,33.74-18.84A11.28,11.28,0,0,0,129.76,88a1.49,1.49,0,0,1,1.58-2.19l20.34,3.72L145.1,78.12l-17.41,5.8a1.5,1.5,0,0,1-1.48-.31C120,77.94,109.21,74.56,97.47,74.56Z"/></g><path class="cls-3" d="M110.53,76l17.62-30.53L145.78,76h0c0,5.61-7.89,10.17-17.63,10.17S110.53,81.65,110.53,76Z"/><path class="cls-2" d="M128.15,87.71C117.43,87.71,109,82.58,109,76a1.48,1.48,0,0,1,.2-.75l17.62-30.53a1.5,1.5,0,0,1,2.6,0l17.63,30.53a1.48,1.48,0,0,1,.2.75C147.28,82.58,138.88,87.71,128.15,87.71Zm-16.1-11.3c.38,4.54,7.6,8.3,16.1,8.3s15.73-3.76,16.11-8.3l-16.11-27.9Z"/><g class="cls-1"><ellipse class="cls-2" cx="41.23" cy="99.07" rx="17.62" ry="10.17"/><path class="cls-2" d="M41.23,110.74c-10.72,0-19.12-5.12-19.12-11.67S30.51,87.4,41.23,87.4s19.12,5.12,19.12,11.67S52,110.74,41.23,110.74Zm0-20.34c-8.74,0-16.12,4-16.12,8.67s7.38,8.67,16.12,8.67,16.12-4,16.12-8.67S50,90.4,41.23,90.4Z"/></g><ellipse class="cls-4" cx="82.72" cy="83.68" rx="35.25" ry="20.35"/><path class="cls-2" d="M82.72,105.53C62.46,105.53,46,95.73,46,83.68S62.46,61.84,82.72,61.84s36.75,9.8,36.75,21.84S103,105.53,82.72,105.53Zm0-40.69C64.12,64.84,49,73.29,49,83.68s15.14,18.85,33.74,18.85,33.75-8.45,33.75-18.85S101.33,64.84,82.72,64.84Z"/><polyline class="cls-4" points="117.97 83.68 117.97 42.99 47.48 42.99 47.48 83.68"/><path class="cls-2" d="M118,85.18a1.5,1.5,0,0,1-1.5-1.5V44.49H49V83.68a1.5,1.5,0,0,1-3,0V43a1.5,1.5,0,0,1,1.5-1.5H118a1.5,1.5,0,0,1,1.5,1.5V83.68A1.5,1.5,0,0,1,118,85.18Z"/><ellipse class="cls-5" cx="82.72" cy="42.99" rx="35.25" ry="20.35"/><path class="cls-2" d="M82.72,64.84C62.46,64.84,46,55,46,43S62.46,21.14,82.72,21.14s36.75,9.8,36.75,21.85S103,64.84,82.72,64.84Zm0-40.7C64.12,24.14,49,32.59,49,43S64.12,61.84,82.72,61.84,116.47,53.38,116.47,43,101.33,24.14,82.72,24.14Z"/><g class="cls-1"><polyline class="cls-2" points="92.67 37.04 101.49 52.3 66.24 45.85"/><path class="cls-2" d="M101.49,53.8l-.27,0L66,47.33a1.5,1.5,0,1,1,.54-3l32.06,5.87-7.2-12.45a1.5,1.5,0,1,1,2.6-1.5l8.82,15.26a1.49,1.49,0,0,1-1.3,2.25Z"/></g><path class="cls-6" d="M57.42,36.77,75,6.25,92.66,36.77h0c0,5.62-7.89,10.17-17.62,10.17S57.42,42.39,57.42,36.77Z"/><path class="cls-2" d="M75,48.44c-10.72,0-19.12-5.13-19.12-11.67a1.53,1.53,0,0,1,.2-.75L73.74,5.5A1.5,1.5,0,0,1,75,4.75h0a1.49,1.49,0,0,1,1.3.75L94,36a1.53,1.53,0,0,1,.2.75C94.16,43.31,85.76,48.44,75,48.44ZM58.93,37.14c.38,4.54,7.61,8.3,16.11,8.3s15.73-3.76,16.11-8.3L75,9.25Z"/><circle class="cls-3" cx="35.33" cy="86.16" r="17.62"/><path class="cls-2" d="M35.33,105.29A19.13,19.13,0,1,1,54.46,86.16,19.15,19.15,0,0,1,35.33,105.29Zm0-35.25A16.13,16.13,0,1,0,51.46,86.16,16.14,16.14,0,0,0,35.33,70Z"/></svg>