<svg id="Layer_1" data-name="Layer 1" xmlns="http://www.w3.org/2000/svg" viewBox="0 0 443.45 120"><defs><style>.cls-1{opacity:0.25;}.cls-2{fill:#281e35;}.cls-3{fill:#2071ff;}.cls-4{fill:#ff3250;}.cls-5{fill:#f2c227;}.cls-6{fill:#f9f4d8;}.cls-7{fill:#9cf;}.cls-8{fill:#f59698;}</style></defs><title>home_graphic</title><g class="cls-1"><ellipse class="cls-2" cx="424.33" cy="69.31" rx="17.62" ry="10.17"/><path class="cls-2" d="M424.33,81c-10.73,0-19.13-5.13-19.13-11.67s8.4-11.68,19.13-11.68,19.12,5.13,19.12,11.68S435.05,81,424.33,81Zm0-20.35c-8.74,0-16.13,4-16.13,8.68S415.59,78,424.33,78s16.12-4,16.12-8.67S433.06,60.63,424.33,60.63Z"/></g><circle class="cls-3" cx="418.43" cy="56.4" r="17.62"/><path class="cls-2" d="M418.43,75.52A19.12,19.12,0,1,1,437.55,56.4,19.13,19.13,0,0,1,418.43,75.52Zm0-35.24A16.12,16.12,0,1,0,434.55,56.4,16.14,16.14,0,0,0,418.43,40.28Z"/><g class="cls-1"><ellipse class="cls-2" cx="115.95" cy="101.09" rx="17.62" ry="10.17"/><path class="cls-2" d="M116,112.77c-10.73,0-19.12-5.13-19.12-11.68S105.22,89.42,116,89.42s19.12,5.13,19.12,11.67S126.67,112.77,116,112.77Zm0-20.35c-8.74,0-16.12,4-16.12,8.67s7.38,8.68,16.12,8.68,16.12-4,16.12-8.68S124.69,92.42,116,92.42Z"/></g><circle class="cls-4" cx="110.05" cy="88.19" r="17.62"/><path class="cls-2" d="M110.05,107.31a19.12,19.12,0,1,1,19.12-19.12A19.15,19.15,0,0,1,110.05,107.31Zm0-35.24a16.12,16.12,0,1,0,16.12,16.12A16.14,16.14,0,0,0,110.05,72.07Z"/><g class="cls-1"><ellipse class="cls-2" cx="338.2" cy="71.4" rx="17.62" ry="10.17"/><path class="cls-2" d="M338.2,83.08c-10.73,0-19.13-5.13-19.13-11.68s8.4-11.67,19.13-11.67,19.12,5.13,19.12,11.67S348.92,83.08,338.2,83.08Zm0-20.35c-8.74,0-16.13,4-16.13,8.67s7.39,8.68,16.13,8.68,16.12-4,16.12-8.68S346.94,62.73,338.2,62.73Z"/></g><ellipse class="cls-5" cx="330.83" cy="66.54" rx="17.62" ry="10.17"/><path class="cls-2" d="M330.83,78.22c-10.73,0-19.13-5.13-19.13-11.68s8.4-11.67,19.13-11.67S350,60,350,66.54,341.55,78.22,330.83,78.22Zm0-20.35c-8.74,0-16.13,4-16.13,8.67s7.39,8.68,16.13,8.68,16.12-4,16.12-8.68S339.56,57.87,330.83,57.87Z"/><polyline class="cls-5" points="348.45 66.54 348.45 13.24 313.2 13.24 313.2 66.54"/><path class="cls-2" d="M348.45,68a1.5,1.5,0,0,1-1.5-1.5V14.74H314.7v51.8a1.5,1.5,0,1,1-3,0V13.24a1.5,1.5,0,0,1,1.5-1.5h35.25a1.5,1.5,0,0,1,1.5,1.5v53.3A1.5,1.5,0,0,1,348.45,68Z"/><ellipse class="cls-6" cx="330.83" cy="11.61" rx="17.62" ry="10.17"/><path class="cls-2" d="M330.83,23.28c-10.73,0-19.13-5.13-19.13-11.67S320.1-.07,330.83-.07,350,5.06,350,11.61,341.55,23.28,330.83,23.28Zm0-20.35c-8.74,0-16.13,4-16.13,8.68s7.39,8.67,16.13,8.67,16.12-4,16.12-8.67S339.56,2.93,330.83,2.93Z"/><g class="cls-1"><polygon class="cls-2" points="377.06 77.87 412.3 98.22 377.06 118.57 341.81 98.22 377.06 77.87"/><path class="cls-2" d="M377.06,120.07a1.44,1.44,0,0,1-.75-.21L341.06,99.52a1.5,1.5,0,0,1,0-2.6l35.25-20.35a1.49,1.49,0,0,1,1.5,0l35.24,20.35a1.5,1.5,0,0,1,0,2.6l-35.24,20.34A1.44,1.44,0,0,1,377.06,120.07ZM344.81,98.22l32.25,18.61L409.3,98.22,377.06,79.6Z"/></g><polygon class="cls-3" points="358.38 67.16 323.14 46.81 323.14 87.51 358.38 107.86 393.63 87.51 393.63 46.81 358.38 67.16"/><path class="cls-2" d="M358.38,109.36a1.56,1.56,0,0,1-.75-.2L322.39,88.81a1.49,1.49,0,0,1-.75-1.3V46.81a1.47,1.47,0,0,1,.75-1.29,1.49,1.49,0,0,1,1.5,0l34.49,19.91,34.5-19.91a1.5,1.5,0,0,1,2.25,1.29v40.7a1.51,1.51,0,0,1-.75,1.3l-35.25,20.35A1.53,1.53,0,0,1,358.38,109.36ZM324.64,86.65l33.74,19.48,33.75-19.48V49.41l-33,19a1.49,1.49,0,0,1-1.5,0l-33-19Z"/><polygon class="cls-7" points="358.38 26.47 393.63 46.81 358.38 67.16 323.14 46.81 358.38 26.47"/><path class="cls-2" d="M358.38,68.66a1.46,1.46,0,0,1-.75-.2L322.39,48.11a1.49,1.49,0,0,1,0-2.59l35.24-20.35a1.49,1.49,0,0,1,1.5,0l35.25,20.35a1.49,1.49,0,0,1,0,2.59L359.13,68.46A1.43,1.43,0,0,1,358.38,68.66ZM326.14,46.81l32.24,18.62,32.25-18.62L358.38,28.2Z"/><g class="cls-1"><ellipse class="cls-2" cx="411.13" cy="102.55" rx="17.62" ry="10.17"/><path class="cls-2" d="M411.13,114.22c-10.73,0-19.13-5.13-19.13-11.67s8.4-11.68,19.13-11.68,19.12,5.13,19.12,11.68S421.85,114.22,411.13,114.22Zm0-20.35c-8.74,0-16.13,4-16.13,8.68s7.39,8.67,16.13,8.67,16.12-4,16.12-8.67S419.87,93.87,411.13,93.87Z"/></g><ellipse class="cls-5" cx="403.75" cy="97.69" rx="17.62" ry="10.17"/><path class="cls-2" d="M403.75,109.36c-10.72,0-19.12-5.13-19.12-11.67S393,86,403.75,86s19.13,5.13,19.13,11.68S414.48,109.36,403.75,109.36Zm0-20.35c-8.73,0-16.12,4-16.12,8.68s7.39,8.67,16.12,8.67,16.13-4,16.13-8.67S412.49,89,403.75,89Z"/><polyline class="cls-5" points="421.38 97.69 421.38 77.34 386.13 77.34 386.13 97.69"/><path class="cls-2" d="M421.38,99.19a1.5,1.5,0,0,1-1.5-1.5V78.84H387.63V97.69a1.5,1.5,0,0,1-3,0V77.34a1.5,1.5,0,0,1,1.5-1.5h35.25a1.5,1.5,0,0,1,1.5,1.5V97.69A1.5,1.5,0,0,1,421.38,99.19Z"/><ellipse class="cls-6" cx="403.75" cy="77.34" rx="17.62" ry="10.17"/><path class="cls-2" d="M403.75,89c-10.72,0-19.12-5.13-19.12-11.67s8.4-11.68,19.12-11.68,19.13,5.13,19.13,11.68S414.48,89,403.75,89Zm0-20.35c-8.73,0-16.12,4-16.12,8.68S395,86,403.75,86s16.13-4,16.13-8.67S412.49,68.66,403.75,68.66Z"/><g class="cls-1"><polygon class="cls-2" points="375.88 36.65 393.5 46.82 375.88 56.99 358.26 46.82 375.88 36.65"/><path class="cls-2" d="M375.88,58.49a1.43,1.43,0,0,1-.75-.2L357.51,48.12a1.5,1.5,0,0,1,0-2.6l17.62-10.17a1.49,1.49,0,0,1,1.5,0l17.62,10.17a1.5,1.5,0,0,1,0,2.6L376.63,58.29A1.43,1.43,0,0,1,375.88,58.49ZM361.26,46.82l14.62,8.44,14.62-8.44-14.62-8.44Z"/></g><polygon class="cls-4" points="366.54 31.29 348.92 21.12 348.92 41.47 366.54 51.64 384.17 41.47 384.17 21.12 366.54 31.29"/><path class="cls-2" d="M366.54,53.14a1.59,1.59,0,0,1-.75-.2L348.17,42.77a1.52,1.52,0,0,1-.75-1.3V21.12a1.51,1.51,0,0,1,.75-1.3,1.49,1.49,0,0,1,1.5,0l16.87,9.74,16.88-9.74a1.49,1.49,0,0,1,1.5,0,1.51,1.51,0,0,1,.75,1.3V41.47a1.52,1.52,0,0,1-.75,1.3L367.29,52.94A1.53,1.53,0,0,1,366.54,53.14ZM350.42,40.6l16.12,9.31,16.13-9.31V23.72l-15.38,8.87a1.49,1.49,0,0,1-1.5,0l-15.37-8.87Z"/><polygon class="cls-8" points="366.54 10.94 384.17 21.12 366.54 31.29 348.92 21.12 366.54 10.94"/><path class="cls-2" d="M366.54,32.79a1.48,1.48,0,0,1-.75-.2L348.17,22.42a1.5,1.5,0,0,1,0-2.6L365.79,9.64a1.54,1.54,0,0,1,1.5,0l17.63,10.18a1.5,1.5,0,0,1,0,2.6L367.29,32.59A1.43,1.43,0,0,1,366.54,32.79ZM351.92,21.12l14.62,8.44,14.63-8.44-14.63-8.44Z"/><g class="cls-1"><polygon class="cls-2" points="211.2 56.99 228.83 67.17 211.2 77.34 193.58 67.17 211.2 56.99"/><path class="cls-2" d="M211.2,78.84a1.48,1.48,0,0,1-.75-.2L192.83,68.47a1.5,1.5,0,0,1,0-2.6l17.62-10.18a1.54,1.54,0,0,1,1.5,0l17.63,10.18a1.5,1.5,0,0,1,0,2.6L212,78.64A1.43,1.43,0,0,1,211.2,78.84ZM196.58,67.17l14.62,8.44,14.63-8.44L211.2,58.73Z"/></g><polygon class="cls-5" points="201.87 51.64 184.24 41.47 184.24 61.82 201.87 71.99 219.49 61.82 219.49 41.47 201.87 51.64"/><path class="cls-2" d="M201.87,73.49a1.53,1.53,0,0,1-.75-.2L183.49,63.11a1.49,1.49,0,0,1-.75-1.29V41.47a1.51,1.51,0,0,1,.75-1.3,1.49,1.49,0,0,1,1.5,0l16.88,9.74,16.87-9.74a1.49,1.49,0,0,1,1.5,0,1.51,1.51,0,0,1,.75,1.3V61.82a1.49,1.49,0,0,1-.75,1.29L202.62,73.29A1.56,1.56,0,0,1,201.87,73.49ZM185.74,61l16.13,9.31L218,61V44.07l-15.37,8.87a1.49,1.49,0,0,1-1.5,0l-15.38-8.87Z"/><polygon class="cls-6" points="201.87 31.29 219.49 41.47 201.87 51.64 184.24 41.47 201.87 31.29"/><path class="cls-2" d="M201.87,53.14a1.53,1.53,0,0,1-.75-.2L183.49,42.77a1.5,1.5,0,0,1,0-2.6L201.12,30a1.54,1.54,0,0,1,1.5,0l17.62,10.18a1.5,1.5,0,0,1,0,2.6L202.62,52.94A1.56,1.56,0,0,1,201.87,53.14ZM187.24,41.47l14.63,8.44,14.62-8.44L201.87,33Z"/><g class="cls-1"><polyline class="cls-2" points="310.75 97.46 319.57 112.72 284.32 106.27"/><path class="cls-2" d="M319.57,114.22l-.27,0-35.25-6.45a1.5,1.5,0,1,1,.54-3l32.06,5.87-7.19-12.45a1.5,1.5,0,1,1,2.59-1.5L320.87,112a1.49,1.49,0,0,1-1.3,2.25Z"/></g><path class="cls-4" d="M275.5,97.19l17.62-30.52,17.63,30.52h0c0,5.62-7.89,10.17-17.63,10.17s-17.62-4.55-17.62-10.17Z"/><path class="cls-2" d="M293.12,108.86c-10.72,0-19.12-5.12-19.12-11.67a1.53,1.53,0,0,1,.2-.75l17.62-30.52a1.5,1.5,0,0,1,1.3-.75h0a1.49,1.49,0,0,1,1.3.75L312,96.44a1.44,1.44,0,0,1,.21.75C312.25,103.74,303.85,108.86,293.12,108.86ZM277,97.56c.37,4.54,7.6,8.3,16.1,8.3s15.73-3.76,16.11-8.3L293.12,69.67Z"/><g class="cls-1"><polyline class="cls-2" points="36.75 81.17 45.58 96.43 10.32 89.98"/><path class="cls-2" d="M45.57,97.93l-.27,0L10.05,91.45a1.5,1.5,0,1,1,.54-3l32.06,5.87L35.46,81.92a1.5,1.5,0,1,1,2.59-1.5l8.82,15.26a1.5,1.5,0,0,1-1.3,2.25Z"/></g><path class="cls-3" d="M1.5,80.9,19.12,50.37,36.75,80.9h0c0,5.62-7.89,10.17-17.63,10.17S1.5,86.52,1.5,80.9Z"/><path class="cls-2" d="M19.12,92.57C8.4,92.57,0,87.44,0,80.9a1.48,1.48,0,0,1,.2-.75L17.82,49.62a1.52,1.52,0,0,1,1.3-.75h0a1.51,1.51,0,0,1,1.3.75L38,80.15a1.39,1.39,0,0,1,.21.75C38.25,87.44,29.85,92.57,19.12,92.57ZM3,81.27c.37,4.54,7.6,8.3,16.1,8.3s15.73-3.76,16.11-8.3L19.12,53.37Z"/></svg>