<svg id="Layer_1" data-name="Layer 1" xmlns="http://www.w3.org/2000/svg" viewBox="0 0 443.45 120"><defs><style>.cls-1{opacity:0.25;}.cls-2{fill:#281e35;}.cls-3{fill:#ff3250;}.cls-4{fill:#f99;}.cls-5{fill:#2071ff;}.cls-6{fill:#bcd4ff;}.cls-7{fill:#f0c125;}.cls-8{fill:#f8f3d7;}</style></defs><title>info_graphic</title><g class="cls-1"><polygon class="cls-2" points="339.28 70.79 356.9 60.61 339.28 50.44 321.66 60.61 327.33 63.89 277.06 80.64 347.57 93.55 331.99 66.58 339.28 70.79"/><path class="cls-2" d="M347.57,95.05l-.26,0L276.8,82.12a1.5,1.5,0,0,1-.21-2.9l47.11-15.7-2.79-1.61a1.48,1.48,0,0,1-.75-1.3,1.5,1.5,0,0,1,.75-1.3l17.62-10.17a1.49,1.49,0,0,1,1.5,0l17.62,10.17a1.5,1.5,0,0,1,.75,1.3,1.48,1.48,0,0,1-.75,1.3L340,72.09a1.49,1.49,0,0,1-1.5,0l-2.44-1.41L348.87,92.8a1.47,1.47,0,0,1-.07,1.61A1.5,1.5,0,0,1,347.57,95.05ZM283.08,80.22l61.57,11.27-14-24.16a1.5,1.5,0,0,1,2.05-2l6.54,3.78,14.62-8.45-14.62-8.44-14.62,8.44,3.42,2a1.49,1.49,0,0,1-.27,2.72Z"/></g><g class="cls-1"><polygon class="cls-2" points="424.31 98.41 441.93 108.58 424.31 118.76 406.68 108.58 424.31 98.41"/><path class="cls-2" d="M424.31,120.26a1.53,1.53,0,0,1-.75-.2l-17.63-10.18a1.5,1.5,0,0,1,0-2.6l17.63-10.17a1.49,1.49,0,0,1,1.5,0l17.62,10.17a1.5,1.5,0,0,1,0,2.6l-17.62,10.18A1.59,1.59,0,0,1,424.31,120.26Zm-14.63-11.68L424.31,117l14.62-8.44-14.62-8.44Z"/></g><polygon class="cls-3" points="414.97 93.06 397.35 82.88 397.35 103.23 414.97 113.4 432.59 103.23 432.59 82.88 414.97 93.06"/><path class="cls-2" d="M415,114.9a1.43,1.43,0,0,1-.75-.2L396.6,104.53a1.49,1.49,0,0,1-.75-1.3V82.88a1.5,1.5,0,0,1,2.25-1.3L415,91.32l16.87-9.74a1.49,1.49,0,0,1,1.5,0,1.51,1.51,0,0,1,.75,1.3v20.35a1.51,1.51,0,0,1-.75,1.3L415.72,114.7A1.43,1.43,0,0,1,415,114.9Zm-16.12-12.54L415,111.67l16.12-9.31V85.48l-15.37,8.87a1.49,1.49,0,0,1-1.5,0l-15.37-8.87Z"/><polygon class="cls-4" points="414.97 72.71 432.59 82.88 414.97 93.06 397.35 82.88 414.97 72.71"/><path class="cls-2" d="M415,94.56a1.44,1.44,0,0,1-.75-.21L396.6,84.18a1.5,1.5,0,0,1,0-2.6l17.62-10.17a1.49,1.49,0,0,1,1.5,0l17.62,10.17a1.5,1.5,0,0,1,0,2.6L415.72,94.35A1.44,1.44,0,0,1,415,94.56ZM400.35,82.88,415,91.32l14.62-8.44L415,74.44Z"/><g class="cls-1"><polyline class="cls-2" points="36.75 84.01 45.58 99.27 10.32 92.82"/><path class="cls-2" d="M45.57,100.77l-.27,0L10.05,94.3a1.52,1.52,0,0,1-1.21-1.75,1.5,1.5,0,0,1,1.75-1.21l32.06,5.87L35.46,84.76a1.5,1.5,0,1,1,2.59-1.5l8.82,15.26a1.49,1.49,0,0,1-1.3,2.25Z"/></g><path class="cls-3" d="M1.5,83.74,19.12,53.22,36.75,83.74h0c0,5.62-7.89,10.17-17.63,10.17S1.5,89.36,1.5,83.74Z"/><path class="cls-2" d="M19.12,95.41C8.4,95.41,0,90.28,0,83.74A1.5,1.5,0,0,1,.2,83L17.82,52.47a1.5,1.5,0,0,1,1.3-.75h0a1.49,1.49,0,0,1,1.3.75L38,83a1.42,1.42,0,0,1,.21.75C38.25,90.28,29.85,95.41,19.12,95.41ZM3,84.11c.37,4.54,7.6,8.3,16.1,8.3s15.73-3.76,16.11-8.3L19.12,56.22Z"/><g class="cls-1"><ellipse class="cls-2" cx="150.94" cy="56.56" rx="17.62" ry="10.17"/><path class="cls-2" d="M150.94,68.23c-10.73,0-19.13-5.13-19.13-11.67s8.4-11.68,19.13-11.68S170.06,50,170.06,56.56,161.66,68.23,150.94,68.23Zm0-20.35c-8.74,0-16.13,4-16.13,8.68s7.39,8.67,16.13,8.67,16.12-4,16.12-8.67S159.67,47.88,150.94,47.88Z"/></g><ellipse class="cls-5" cx="143.56" cy="51.7" rx="17.62" ry="10.17"/><path class="cls-2" d="M143.56,63.37c-10.72,0-19.12-5.13-19.12-11.67S132.84,40,143.56,40s19.13,5.13,19.13,11.68S154.29,63.37,143.56,63.37Zm0-20.35c-8.74,0-16.12,4-16.12,8.68s7.38,8.67,16.12,8.67,16.13-4,16.13-8.67S152.3,43,143.56,43Z"/><polyline class="cls-5" points="161.19 51.7 161.19 31.35 125.94 31.35 125.94 51.7"/><path class="cls-2" d="M161.19,53.2a1.5,1.5,0,0,1-1.5-1.5V32.85H127.44V51.7a1.5,1.5,0,0,1-3,0V31.35a1.5,1.5,0,0,1,1.5-1.5h35.25a1.5,1.5,0,0,1,1.5,1.5V51.7A1.51,1.51,0,0,1,161.19,53.2Z"/><ellipse class="cls-6" cx="143.56" cy="31.35" rx="17.62" ry="10.17"/><path class="cls-2" d="M143.56,43c-10.72,0-19.12-5.13-19.12-11.67s8.4-11.68,19.12-11.68,19.13,5.13,19.13,11.68S154.29,43,143.56,43Zm0-20.35c-8.74,0-16.12,4-16.12,8.68S134.82,40,143.56,40s16.13-4,16.13-8.67S152.3,22.67,143.56,22.67Z"/><polygon class="cls-7" points="329.94 21.78 312.32 11.61 312.32 55.26 329.94 65.44 347.56 55.26 347.56 11.61 329.94 21.78"/><path class="cls-2" d="M329.94,66.94a1.47,1.47,0,0,1-.75-.21L311.57,56.56a1.51,1.51,0,0,1-.75-1.3V11.61a1.51,1.51,0,0,1,.75-1.3,1.49,1.49,0,0,1,1.5,0l16.87,9.74,16.88-9.74a1.49,1.49,0,0,1,1.5,0,1.51,1.51,0,0,1,.75,1.3V55.26a1.51,1.51,0,0,1-.75,1.3L330.69,66.73A1.44,1.44,0,0,1,329.94,66.94ZM313.82,54.4l16.12,9.3,16.13-9.3V14.21l-15.38,8.87a1.49,1.49,0,0,1-1.5,0l-15.37-8.87Z"/><polygon class="cls-8" points="329.94 1.43 347.56 11.61 329.94 21.78 312.32 11.61 329.94 1.43"/><path class="cls-2" d="M329.94,23.28a1.46,1.46,0,0,1-.75-.2L311.57,12.91a1.5,1.5,0,0,1,0-2.6L329.19.14a1.49,1.49,0,0,1,1.5,0l17.63,10.17a1.5,1.5,0,0,1,0,2.6L330.69,23.08A1.43,1.43,0,0,1,329.94,23.28ZM315.32,11.61l14.62,8.44,14.63-8.44L329.94,3.17Z"/><path class="cls-5" d="M259.43,62.48l35.24-61,35.25,61.05h0c0,11.24-15.78,20.35-35.25,20.35s-35.24-9.11-35.24-20.35Z"/><path class="cls-2" d="M294.67,84.33c-20.26,0-36.74-9.8-36.74-21.85a1.43,1.43,0,0,1,.2-.75l35.24-61a1.5,1.5,0,0,1,2.6,0l35.24,61.05a1.44,1.44,0,0,1,.21.75C331.42,74.53,314.93,84.33,294.67,84.33ZM260.93,62.87c.37,10.21,15.37,18.46,33.74,18.46S328,73.08,328.41,62.87L294.67,4.43Z"/><g class="cls-1"><ellipse class="cls-2" cx="259.81" cy="84.71" rx="17.62" ry="10.17"/><path class="cls-2" d="M259.81,96.38c-10.72,0-19.12-5.12-19.12-11.67S249.09,73,259.81,73s19.12,5.12,19.12,11.67S270.53,96.38,259.81,96.38Zm0-20.34c-8.74,0-16.12,4-16.12,8.67s7.38,8.67,16.12,8.67,16.12-4,16.12-8.67S268.55,76,259.81,76Z"/></g><circle class="cls-3" cx="253.91" cy="71.8" r="17.62"/><path class="cls-2" d="M253.91,90.93A19.13,19.13,0,1,1,273,71.8,19.15,19.15,0,0,1,253.91,90.93Zm0-35.25A16.13,16.13,0,1,0,270,71.8,16.14,16.14,0,0,0,253.91,55.68Z"/></svg>