<svg id="Layer_1" data-name="Layer 1" xmlns="http://www.w3.org/2000/svg" viewBox="0 0 170 120"><defs><style>.cls-1{opacity:0.25;}.cls-2{fill:#281e35;}.cls-3{fill:#ff3250;}.cls-4{fill:#f99;}.cls-5{fill:#2071ff;}.cls-6{fill:#bcd4ff;}.cls-7{fill:#f2c227;}.cls-8{fill:#f9f4d8;}</style></defs><title>schedule_graphic_mobile</title><g class="cls-1"><path class="cls-2" d="M92.59,63.14c-19.46,0-35.24,9.11-35.24,20.35,0,4,2,7.75,5.48,10.9a28.94,28.94,0,0,0-6.32-.69c-9.73,0-17.62,4.56-17.62,10.18s7.89,10.17,17.62,10.17,17.63-4.55,17.63-10.17a6.46,6.46,0,0,0-1.06-3.44,54.85,54.85,0,0,0,19.51,3.4c19.47,0,35.25-9.11,35.25-20.35S112.06,63.14,92.59,63.14Z"/><path class="cls-2" d="M56.51,115.55c-10.72,0-19.12-5.12-19.12-11.67s8.4-11.67,19.12-11.67q1.22,0,2.4.09a14.77,14.77,0,0,1-3.06-8.81c0-12,16.48-21.85,36.74-21.85s36.75,9.8,36.75,21.85-16.49,21.85-36.75,21.85a57.87,57.87,0,0,1-17-2.46,8.39,8.39,0,0,1,.06,1C75.63,110.43,67.24,115.55,56.51,115.55Zm0-20.34c-8.74,0-16.12,4-16.12,8.67s7.38,8.67,16.12,8.67,16.12-4,16.12-8.67a5,5,0,0,0-.82-2.65,1.49,1.49,0,0,1,.11-1.75,1.5,1.5,0,0,1,1.7-.44,53.46,53.46,0,0,0,19,3.3c18.61,0,33.75-8.46,33.75-18.85S111.2,64.64,92.59,64.64,58.85,73.1,58.85,83.49c0,3.44,1.72,6.82,5,9.79a1.49,1.49,0,0,1-1.33,2.57A27.78,27.78,0,0,0,56.51,95.21Z"/></g><ellipse class="cls-3" cx="77.85" cy="73.77" rx="35.25" ry="20.35"/><path class="cls-2" d="M77.85,95.62c-20.26,0-36.75-9.8-36.75-21.85S57.59,51.92,77.85,51.92s36.74,9.8,36.74,21.85S98.11,95.62,77.85,95.62Zm0-40.7c-18.61,0-33.75,8.46-33.75,18.85S59.24,92.62,77.85,92.62s33.74-8.46,33.74-18.85S96.46,54.92,77.85,54.92Z"/><polyline class="cls-3" points="113.09 73.77 113.09 33.07 42.6 33.07 42.6 73.77"/><path class="cls-2" d="M113.09,75.27a1.5,1.5,0,0,1-1.5-1.5V34.57H44.1v39.2a1.5,1.5,0,0,1-3,0V33.07a1.5,1.5,0,0,1,1.5-1.5h70.49a1.5,1.5,0,0,1,1.5,1.5v40.7A1.5,1.5,0,0,1,113.09,75.27Z"/><ellipse class="cls-4" cx="77.85" cy="33.07" rx="35.25" ry="20.35"/><path class="cls-2" d="M77.85,54.92c-20.26,0-36.75-9.8-36.75-21.85S57.59,11.22,77.85,11.22s36.74,9.8,36.74,21.85S98.11,54.92,77.85,54.92Zm0-40.7c-18.61,0-33.75,8.46-33.75,18.85S59.24,51.92,77.85,51.92s33.74-8.45,33.74-18.85S96.46,14.22,77.85,14.22Z"/><g class="cls-1"><polygon class="cls-2" points="130.4 88.84 148.02 99.02 130.4 109.19 112.78 99.02 130.4 88.84"/><path class="cls-2" d="M130.4,110.69a1.43,1.43,0,0,1-.75-.2L112,100.32a1.5,1.5,0,0,1,0-2.6l17.62-10.17a1.49,1.49,0,0,1,1.5,0l17.62,10.17a1.5,1.5,0,0,1,0,2.6l-17.62,10.17A1.43,1.43,0,0,1,130.4,110.69ZM115.78,99l14.62,8.44L145,99,130.4,90.58Z"/></g><polygon class="cls-5" points="121.06 83.49 103.44 73.32 103.44 93.67 121.06 103.84 138.68 93.67 138.68 73.32 121.06 83.49"/><path class="cls-2" d="M121.06,105.34a1.53,1.53,0,0,1-.75-.2L102.69,95a1.47,1.47,0,0,1-.75-1.29V73.32a1.5,1.5,0,0,1,2.25-1.3l16.87,9.74L137.93,72a1.5,1.5,0,0,1,2.25,1.3V93.67a1.47,1.47,0,0,1-.75,1.29l-17.62,10.18A1.53,1.53,0,0,1,121.06,105.34ZM104.94,92.8l16.12,9.31,16.12-9.31V75.92l-15.37,8.87a1.49,1.49,0,0,1-1.5,0l-15.37-8.87Z"/><polygon class="cls-6" points="121.06 63.14 138.68 73.32 121.06 83.49 103.44 73.32 121.06 63.14"/><path class="cls-2" d="M121.06,85a1.53,1.53,0,0,1-.75-.2L102.69,74.62a1.5,1.5,0,0,1,0-2.6l17.62-10.18a1.54,1.54,0,0,1,1.5,0L139.43,72a1.5,1.5,0,0,1,0,2.6L121.81,84.79A1.53,1.53,0,0,1,121.06,85ZM106.44,73.32l14.62,8.44,14.62-8.44-14.62-8.44Z"/><ellipse class="cls-7" cx="49.14" cy="99.02" rx="17.62" ry="10.17"/><path class="cls-2" d="M49.14,110.69C38.42,110.69,30,105.56,30,99s8.4-11.68,19.12-11.68S68.26,92.47,68.26,99,59.86,110.69,49.14,110.69Zm0-20.35C40.4,90.34,33,94.32,33,99s7.38,8.67,16.12,8.67,16.12-4,16.12-8.67S57.88,90.34,49.14,90.34Z"/><polyline class="cls-7" points="66.76 99.02 66.76 78.67 31.52 78.67 31.52 99.02"/><path class="cls-2" d="M66.76,100.52a1.5,1.5,0,0,1-1.5-1.5V80.17H33V99a1.5,1.5,0,0,1-3,0V78.67a1.5,1.5,0,0,1,1.5-1.5H66.76a1.5,1.5,0,0,1,1.5,1.5V99A1.5,1.5,0,0,1,66.76,100.52Z"/><ellipse class="cls-8" cx="49.14" cy="78.67" rx="17.62" ry="10.17"/><path class="cls-2" d="M49.14,90.34C38.42,90.34,30,85.22,30,78.67S38.42,67,49.14,67s19.12,5.12,19.12,11.67S59.86,90.34,49.14,90.34Zm0-20.34C40.4,70,33,74,33,78.67s7.38,8.67,16.12,8.67,16.12-4,16.12-8.67S57.88,70,49.14,70Z"/></svg>