<svg id="Layer_1" data-name="Layer 1" xmlns="http://www.w3.org/2000/svg" viewBox="0 0 170 120"><defs><style>.cls-1{opacity:0.25;}.cls-2{fill:#281e35;}.cls-3{fill:#f0c125;}.cls-4{fill:#f9f4d8;}.cls-5{fill:#2071ff;}.cls-6{fill:#ff3250;}.cls-7{fill:#f99;}.cls-8{fill:#f2c227;}</style></defs><title>speaker_graphic_mobile</title><g class="cls-1"><polyline class="cls-2" points="57.08 58.88 19.27 80.7 38.18 91.62 75.98 69.79 57.08 58.88"/><path class="cls-2" d="M38.18,93.12a1.53,1.53,0,0,1-.75-.2L18.52,82a1.49,1.49,0,0,1,0-2.59L56.33,57.58a1.49,1.49,0,0,1,1.5,0l18.9,10.91a1.5,1.5,0,0,1,0,2.6L38.93,92.92A1.59,1.59,0,0,1,38.18,93.12ZM22.27,80.7l15.91,9.19L73,69.79l-15.9-9.18Z"/></g><polygon class="cls-3" points="30.8 65.63 68.6 43.8 68.6 65.63 30.8 87.46 11.89 76.54 11.89 54.72 30.8 65.63"/><path class="cls-2" d="M30.8,89a1.53,1.53,0,0,1-.75-.2L11.14,77.84a1.5,1.5,0,0,1-.75-1.3V54.72a1.51,1.51,0,0,1,.75-1.3,1.49,1.49,0,0,1,1.5,0L30.8,63.9,67.85,42.51A1.5,1.5,0,0,1,70.1,43.8V65.63a1.51,1.51,0,0,1-.75,1.3L31.55,88.76A1.59,1.59,0,0,1,30.8,89ZM13.39,75.68l17.41,10,36.3-21V46.4L31.55,66.93a1.49,1.49,0,0,1-1.5,0L13.39,57.32Z"/><polyline class="cls-4" points="49.7 32.89 11.89 54.72 30.8 65.63 68.6 43.8 49.7 32.89"/><path class="cls-2" d="M30.8,67.13a1.53,1.53,0,0,1-.75-.2L11.14,56a1.5,1.5,0,0,1,0-2.6L49,31.59a1.49,1.49,0,0,1,1.5,0l18.9,10.92a1.49,1.49,0,0,1,0,2.59L31.55,66.93A1.59,1.59,0,0,1,30.8,67.13ZM14.89,54.72,30.8,63.9,65.6,43.8,49.7,34.62Z"/><g class="cls-1"><ellipse class="cls-2" cx="101.54" cy="77.74" rx="35.25" ry="20.35"/><path class="cls-2" d="M101.54,99.59c-20.26,0-36.74-9.8-36.74-21.85s16.48-21.85,36.74-21.85,36.75,9.8,36.75,21.85S121.81,99.59,101.54,99.59Zm0-40.7c-18.6,0-33.74,8.46-33.74,18.85s15.14,18.85,33.74,18.85,33.75-8.46,33.75-18.85S120.15,58.89,101.54,58.89Z"/></g><circle class="cls-5" cx="89.75" cy="51.93" r="35.25"/><path class="cls-2" d="M89.75,88.67a36.75,36.75,0,1,1,36.74-36.74A36.79,36.79,0,0,1,89.75,88.67Zm0-70.49a33.75,33.75,0,1,0,33.74,33.75A33.79,33.79,0,0,0,89.75,18.18Z"/><g class="cls-1"><polygon class="cls-2" points="135.19 80.42 152.81 90.59 135.19 100.76 117.57 90.59 135.19 80.42"/><path class="cls-2" d="M135.19,102.26a1.43,1.43,0,0,1-.75-.2L116.82,91.89a1.5,1.5,0,0,1,0-2.6l17.62-10.17a1.49,1.49,0,0,1,1.5,0l17.62,10.17a1.5,1.5,0,0,1,0,2.6l-17.62,10.17A1.43,1.43,0,0,1,135.19,102.26ZM120.57,90.59,135.19,99l14.62-8.44-14.62-8.44Z"/></g><polygon class="cls-6" points="125.85 75.06 108.23 64.89 108.23 85.24 125.85 95.41 143.48 85.24 143.48 64.89 125.85 75.06"/><path class="cls-2" d="M125.85,96.91a1.56,1.56,0,0,1-.75-.2L107.48,86.54a1.52,1.52,0,0,1-.75-1.3V64.89a1.51,1.51,0,0,1,.75-1.3,1.49,1.49,0,0,1,1.5,0l16.87,9.74,16.88-9.74a1.49,1.49,0,0,1,1.5,0,1.51,1.51,0,0,1,.75,1.3V85.24a1.52,1.52,0,0,1-.75,1.3L126.6,96.71A1.53,1.53,0,0,1,125.85,96.91ZM109.73,84.37l16.12,9.31L142,84.37V67.49L126.6,76.36a1.49,1.49,0,0,1-1.5,0l-15.37-8.87Z"/><polygon class="cls-7" points="125.85 54.71 143.48 64.89 125.85 75.06 108.23 64.89 125.85 54.71"/><path class="cls-2" d="M125.85,76.56a1.46,1.46,0,0,1-.75-.2L107.48,66.19a1.5,1.5,0,0,1,0-2.6L125.1,53.42a1.49,1.49,0,0,1,1.5,0l17.63,10.17a1.5,1.5,0,0,1,0,2.6L126.6,76.36A1.43,1.43,0,0,1,125.85,76.56ZM111.23,64.89l14.62,8.44,14.63-8.44-14.63-8.44Z"/><g class="cls-1"><polyline class="cls-2" points="107.17 99.38 116 114.65 80.74 108.19"/><path class="cls-2" d="M116,116.15a1.24,1.24,0,0,1-.27,0l-35.26-6.45a1.5,1.5,0,1,1,.54-3l32.06,5.87-7.19-12.45a1.5,1.5,0,1,1,2.59-1.51l8.82,15.27a1.47,1.47,0,0,1-.07,1.61A1.5,1.5,0,0,1,116,116.15Z"/></g><path class="cls-8" d="M71.92,99.11,89.54,68.59l17.63,30.52h0c0,5.62-7.89,10.18-17.63,10.18s-17.62-4.56-17.62-10.18Z"/><path class="cls-2" d="M89.54,110.79c-10.72,0-19.12-5.13-19.12-11.68a1.53,1.53,0,0,1,.2-.75L88.24,67.84a1.5,1.5,0,0,1,2.6,0l17.62,30.52a1.44,1.44,0,0,1,.21.75C108.67,105.66,100.27,110.79,89.54,110.79Zm-16.1-11.3c.38,4.53,7.6,8.3,16.1,8.3s15.73-3.77,16.11-8.3L89.54,71.59Z"/></svg>