<?xml version="1.0" encoding="utf-8"?>
<!-- Generator: Adobe Illustrator 22.1.0, SVG Export Plug-In . SVG Version: 6.00 Build 0)  -->
<svg version="1.1" id="Layer_1" xmlns="http://www.w3.org/2000/svg" xmlns:xlink="http://www.w3.org/1999/xlink" x="0px" y="0px"
	 viewBox="0 0 443.5 120.1" style="enable-background:new 0 0 443.5 120.1;" xml:space="preserve">
<style type="text/css">
	.st0{opacity:0.25;}
	.st1{fill:#281E35;}
	.st2{fill:#2071FF;}
	.st3{fill:#FF3250;}
	.st4{fill:#F2C227;}
	.st5{fill:#F9F4D8;}
	.st6{fill:#99CCFF;}
	.st7{fill:#F59698;}
</style>
<title>home_graphic</title>
<g class="st0">
	<ellipse class="st1" cx="424.3" cy="69.4" rx="17.6" ry="10.2"/>
	<path class="st1" d="M424.3,81.1c-10.7,0-19.1-5.1-19.1-11.7s8.4-11.7,19.1-11.7c10.7,0,19.1,5.1,19.1,11.7S435,81.1,424.3,81.1z
		 M424.3,60.7c-8.7,0-16.1,4-16.1,8.7s7.4,8.7,16.1,8.7s16.1-4,16.1-8.7S433.1,60.7,424.3,60.7z"/>
</g>
<circle class="st2" cx="418.4" cy="56.5" r="17.6"/>
<path class="st1" d="M418.4,75.6c-10.6,0-19.1-8.6-19.1-19.1s8.6-19.1,19.1-19.1c10.6,0,19.1,8.6,19.1,19.1c0,0,0,0,0,0
	C437.5,67,429,75.6,418.4,75.6z M418.4,40.3c-8.9,0-16.1,7.2-16.1,16.1s7.2,16.1,16.1,16.1c8.9,0,16.1-7.2,16.1-16.1
	C434.5,47.6,427.3,40.4,418.4,40.3L418.4,40.3z"/>
<g class="st0">
	<ellipse class="st1" cx="115.9" cy="101.2" rx="17.6" ry="10.2"/>
	<path class="st1" d="M115.9,112.8c-10.7,0-19.1-5.1-19.1-11.7s8.4-11.7,19.1-11.7s19.1,5.1,19.1,11.7S126.7,112.8,115.9,112.8z
		 M115.9,92.5c-8.7,0-16.1,4-16.1,8.7s7.4,8.7,16.1,8.7s16.1-4,16.1-8.7S124.7,92.5,115.9,92.5z"/>
</g>
<circle class="st3" cx="110.1" cy="88.3" r="17.6"/>
<path class="st1" d="M110.1,107.4c-10.6,0-19.1-8.6-19.1-19.1s8.6-19.1,19.1-19.1c10.6,0,19.1,8.6,19.1,19.1
	C129.2,98.8,120.6,107.4,110.1,107.4z M110.1,72.1c-8.9,0-16.1,7.2-16.1,16.1s7.2,16.1,16.1,16.1c8.9,0,16.1-7.2,16.1-16.1
	C126.2,79.4,119,72.1,110.1,72.1z"/>
<g class="st0">
	<ellipse class="st1" cx="338.2" cy="71.5" rx="17.6" ry="10.2"/>
	<path class="st1" d="M338.2,83.2c-10.7,0-19.1-5.1-19.1-11.7s8.4-11.7,19.1-11.7s19.1,5.1,19.1,11.7S348.9,83.2,338.2,83.2z
		 M338.2,62.8c-8.7,0-16.1,4-16.1,8.7s7.4,8.7,16.1,8.7s16.1-4,16.1-8.7S346.9,62.8,338.2,62.8z"/>
</g>
<ellipse class="st4" cx="330.8" cy="66.6" rx="17.6" ry="10.2"/>
<path class="st1" d="M330.8,78.3c-10.7,0-19.1-5.1-19.1-11.7s8.4-11.7,19.1-11.7S350,60.1,350,66.6S341.5,78.3,330.8,78.3z
	 M330.8,57.9c-8.7,0-16.1,4-16.1,8.7s7.4,8.7,16.1,8.7s16.1-4,16.1-8.7S339.6,57.9,330.8,57.9z"/>
<polyline class="st4" points="348.5,66.6 348.5,13.3 313.2,13.3 313.2,66.6 "/>
<path class="st1" d="M348.5,68.1c-0.8,0-1.5-0.7-1.5-1.5V14.8h-32.2v51.8c0,0.8-0.7,1.5-1.5,1.5s-1.5-0.7-1.5-1.5V13.3
	c0-0.8,0.7-1.5,1.5-1.5h35.2c0.8,0,1.5,0.7,1.5,1.5v53.3C350,67.4,349.3,68.1,348.5,68.1C348.5,68.1,348.5,68.1,348.5,68.1z"/>
<ellipse class="st5" cx="330.8" cy="11.7" rx="17.6" ry="10.2"/>
<path class="st1" d="M330.8,23.4c-10.7,0-19.1-5.1-19.1-11.7S320.1,0,330.8,0S350,5.1,350,11.7S341.5,23.4,330.8,23.4z M330.8,3
	c-8.7,0-16.1,4-16.1,8.7s7.4,8.7,16.1,8.7s16.1-4,16.1-8.7S339.6,3,330.8,3z"/>
<g class="st0">
	<polygon class="st1" points="377.1,77.9 412.3,98.3 377.1,118.6 341.8,98.3 	"/>
	<path class="st1" d="M377.1,120.1c-0.3,0-0.5-0.1-0.8-0.2l-35.2-20.4c-0.7-0.4-1-1.3-0.6-2c0.1-0.2,0.3-0.4,0.6-0.6l35.2-20.3
		c0.5-0.3,1-0.3,1.5,0L413,97c0.7,0.4,1,1.3,0.6,2c-0.1,0.2-0.3,0.4-0.6,0.6l-35.2,20.3C377.6,120.1,377.3,120.1,377.1,120.1z
		 M344.8,98.3l32.2,18.6l32.2-18.6l-32.2-18.6L344.8,98.3z"/>
</g>
<polygon class="st2" points="358.4,67.2 323.1,46.9 323.1,87.6 358.4,107.9 393.6,87.6 393.6,46.9 "/>
<path class="st1" d="M358.4,109.4c-0.3,0-0.5-0.1-0.8-0.2l-35.2-20.4c-0.5-0.3-0.8-0.8-0.8-1.3V46.9c0-0.5,0.3-1,0.8-1.3
	c0.5-0.3,1-0.3,1.5,0l34.5,19.9l34.5-19.9c0.7-0.4,1.6-0.2,2,0.5c0.1,0.2,0.2,0.5,0.2,0.7v40.7c0,0.5-0.3,1-0.8,1.3l-35.2,20.3
	C358.9,109.4,358.6,109.4,358.4,109.4z M324.6,86.7l33.7,19.5l33.8-19.5V49.5l-33,19c-0.5,0.3-1,0.3-1.5,0l-33-19L324.6,86.7z"/>
<polygon class="st6" points="358.4,26.5 393.6,46.9 358.4,67.2 323.1,46.9 "/>
<path class="st1" d="M358.4,68.7c-0.3,0-0.5-0.1-0.8-0.2l-35.2-20.4c-0.7-0.4-1-1.3-0.6-2c0.1-0.2,0.3-0.4,0.6-0.6l35.2-20.4
	c0.5-0.3,1-0.3,1.5,0l35.2,20.3c0.7,0.4,1,1.3,0.6,2c-0.1,0.2-0.3,0.4-0.6,0.6l-35.2,20.4C358.9,68.7,358.6,68.7,358.4,68.7z
	 M326.2,46.9l32.2,18.6l32.2-18.6l-32.3-18.6L326.2,46.9z"/>
<g class="st0">
	<ellipse class="st1" cx="411.1" cy="102.6" rx="17.6" ry="10.2"/>
	<path class="st1" d="M411.1,114.3c-10.7,0-19.1-5.1-19.1-11.7s8.4-11.7,19.1-11.7s19.1,5.1,19.1,11.7S421.9,114.3,411.1,114.3z
		 M411.1,93.9c-8.7,0-16.1,4-16.1,8.7s7.4,8.7,16.1,8.7s16.1-4,16.1-8.7S419.9,93.9,411.1,93.9z"/>
</g>
<ellipse class="st4" cx="403.8" cy="97.8" rx="17.6" ry="10.2"/>
<path class="st1" d="M403.8,109.4c-10.7,0-19.1-5.1-19.1-11.7s8.4-11.7,19.1-11.7s19.1,5.1,19.1,11.7S414.5,109.4,403.8,109.4z
	 M403.8,89.1c-8.7,0-16.1,4-16.1,8.7s7.4,8.7,16.1,8.7s16.1-4,16.1-8.7S412.5,89.1,403.8,89.1z"/>
<polyline class="st4" points="421.4,97.8 421.4,77.4 386.1,77.4 386.1,97.8 "/>
<path class="st1" d="M421.4,99.3c-0.8,0-1.5-0.7-1.5-1.5V78.9h-32.2v18.8c0,0.8-0.7,1.5-1.5,1.5s-1.5-0.7-1.5-1.5V77.4
	c0-0.8,0.7-1.5,1.5-1.5h35.2c0.8,0,1.5,0.7,1.5,1.5v20.3C422.9,98.6,422.2,99.3,421.4,99.3L421.4,99.3z"/>
<ellipse class="st5" cx="403.8" cy="77.4" rx="17.6" ry="10.2"/>
<path class="st1" d="M403.8,89.1c-10.7,0-19.1-5.1-19.1-11.7s8.4-11.7,19.1-11.7s19.1,5.1,19.1,11.7S414.5,89.1,403.8,89.1z
	 M403.8,68.7c-8.7,0-16.1,4-16.1,8.7s7.4,8.7,16.1,8.7s16.1-4,16.1-8.7S412.5,68.7,403.8,68.7z"/>
<g class="st0">
	<polygon class="st1" points="375.9,36.7 393.5,46.9 375.9,57.1 358.3,46.9 	"/>
	<path class="st1" d="M375.9,58.6c-0.3,0-0.5-0.1-0.8-0.2l-17.6-10.2c-0.7-0.4-1-1.3-0.6-2c0.1-0.2,0.3-0.4,0.6-0.6l17.6-10.2
		c0.5-0.3,1-0.3,1.5,0l17.6,10.2c0.7,0.4,1,1.3,0.6,2c-0.1,0.2-0.3,0.4-0.6,0.6l-17.6,10.2C376.4,58.5,376.1,58.6,375.9,58.6z
		 M361.3,46.9l14.6,8.4l14.6-8.4l-14.6-8.4L361.3,46.9z"/>
</g>
<polygon class="st3" points="366.5,31.4 348.9,21.2 348.9,41.5 366.5,51.7 384.2,41.5 384.2,21.2 "/>
<path class="st1" d="M366.5,53.2c-0.3,0-0.5-0.1-0.8-0.2l-17.6-10.2c-0.5-0.3-0.7-0.8-0.8-1.3V21.2c0-0.5,0.3-1,0.8-1.3
	c0.5-0.3,1-0.3,1.5,0l16.9,9.7l16.9-9.7c0.5-0.3,1-0.3,1.5,0c0.5,0.3,0.7,0.8,0.8,1.3v20.4c0,0.5-0.3,1-0.8,1.3L367.3,53
	C367.1,53.1,366.8,53.2,366.5,53.2z M350.4,40.7l16.1,9.3l16.1-9.3V23.8l-15.4,8.9c-0.5,0.3-1,0.3-1.5,0l-15.4-8.9V40.7z"/>
<polygon class="st7" points="366.5,11 384.2,21.2 366.5,31.4 348.9,21.2 "/>
<path class="st1" d="M366.5,32.9c-0.3,0-0.5-0.1-0.8-0.2l-17.6-10.2c-0.7-0.4-1-1.3-0.6-2c0.1-0.2,0.3-0.4,0.6-0.6l17.6-10.2
	c0.5-0.3,1-0.3,1.5,0l17.6,10.2c0.7,0.4,1,1.3,0.6,2c-0.1,0.2-0.3,0.4-0.6,0.6l-17.6,10.2C367.1,32.8,366.8,32.9,366.5,32.9z
	 M351.9,21.2l14.6,8.4l14.6-8.4l-14.6-8.4L351.9,21.2z"/>
<g class="st0">
	<polygon class="st1" points="211.2,57.1 228.8,67.2 211.2,77.4 193.6,67.2 	"/>
	<path class="st1" d="M211.2,78.9c-0.3,0-0.5-0.1-0.8-0.2l-17.6-10.1c-0.7-0.4-1-1.3-0.6-2c0.1-0.2,0.3-0.4,0.6-0.6l17.6-10.2
		c0.5-0.3,1-0.3,1.5,0L229.6,66c0.7,0.4,1,1.3,0.6,2c-0.1,0.2-0.3,0.4-0.6,0.6L212,78.7C211.7,78.8,211.5,78.9,211.2,78.9z
		 M196.6,67.2l14.6,8.4l14.6-8.4l-14.6-8.4L196.6,67.2z"/>
</g>
<polygon class="st4" points="201.9,51.7 184.2,41.5 184.2,61.9 201.9,72.1 219.5,61.9 219.5,41.5 "/>
<path class="st1" d="M201.9,73.6c-0.3,0-0.5-0.1-0.8-0.2l-17.6-10.2c-0.5-0.3-0.7-0.8-0.8-1.3V41.6c0-0.5,0.3-1,0.8-1.3
	c0.5-0.3,1-0.3,1.5,0l16.9,9.7l16.9-9.7c0.5-0.3,1-0.3,1.5,0c0.5,0.3,0.7,0.8,0.8,1.3v20.3c0,0.5-0.3,1-0.8,1.3l-17.6,10.2
	C202.4,73.5,202.1,73.6,201.9,73.6z M185.7,61l16.1,9.3L218,61V44.1L202.6,53c-0.5,0.3-1,0.3-1.5,0l-15.4-8.9V61z"/>
<polygon class="st5" points="201.9,31.4 219.5,41.5 201.9,51.7 184.2,41.5 "/>
<path class="st1" d="M201.9,53.2c-0.3,0-0.5-0.1-0.8-0.2l-17.6-10.2c-0.7-0.4-1-1.3-0.6-2c0.1-0.2,0.3-0.4,0.6-0.6l17.6-10.2
	c0.5-0.3,1-0.3,1.5,0l17.6,10.2c0.7,0.4,1,1.3,0.6,2c-0.1,0.2-0.3,0.4-0.6,0.6L202.6,53C202.4,53.1,202.1,53.2,201.9,53.2z
	 M187.2,41.6l14.6,8.4l14.6-8.4l-14.6-8.5L187.2,41.6z"/>
<g class="st0">
	<polyline class="st1" points="310.8,97.5 319.6,112.8 284.3,106.3 	"/>
	<path class="st1" d="M319.6,114.3h-0.3l-35.2-6.4c-0.8-0.1-1.4-0.9-1.2-1.8c0.1-0.8,0.9-1.4,1.8-1.2l0,0l32.1,5.9l-7.2-12.4
		c-0.5-0.7-0.3-1.6,0.4-2.1c0.7-0.5,1.6-0.3,2.1,0.4c0,0.1,0.1,0.1,0.1,0.2l8.8,15.3c0.4,0.7,0.2,1.6-0.5,2
		C320.1,114.2,319.8,114.3,319.6,114.3L319.6,114.3z"/>
</g>
<path class="st3" d="M275.5,97.3l17.6-30.5l17.6,30.5l0,0c0,5.6-7.9,10.2-17.6,10.2S275.5,102.9,275.5,97.3z"/>
<path class="st1" d="M293.1,108.9c-10.7,0-19.1-5.1-19.1-11.7c0-0.3,0.1-0.5,0.2-0.8L291.8,66c0.3-0.5,0.8-0.8,1.3-0.8l0,0
	c0.5,0,1,0.3,1.3,0.8L312,96.5c0.1,0.2,0.2,0.5,0.2,0.8C312.2,103.8,303.9,108.9,293.1,108.9z M277,97.6c0.4,4.5,7.6,8.3,16.1,8.3
	s15.7-3.8,16.1-8.3l-16.1-27.9L277,97.6z"/>
<g class="st0">
	<polyline class="st1" points="36.8,81.2 45.6,96.5 10.3,90.1 	"/>
	<path class="st1" d="M45.6,98h-0.3l-35.2-6.4c-0.8-0.1-1.4-0.9-1.2-1.8c0.1-0.8,0.9-1.4,1.8-1.2l32.1,5.9L35.5,82
		c-0.5-0.7-0.3-1.6,0.4-2.1c0.7-0.5,1.6-0.3,2.1,0.4c0,0.1,0.1,0.1,0.1,0.2l8.8,15.3c0.4,0.7,0.2,1.6-0.5,2
		C46.1,97.9,45.8,98,45.6,98L45.6,98z"/>
</g>
<path class="st2" d="M1.5,81l17.6-30.5L36.8,81l0,0c0,5.6-7.9,10.2-17.6,10.2S1.5,86.6,1.5,81z"/>
<path class="st1" d="M19.1,92.6C8.4,92.6,0,87.5,0,81c0-0.3,0.1-0.5,0.2-0.8l17.6-30.5c0.3-0.5,0.8-0.7,1.3-0.8l0,0
	c0.5,0,1,0.3,1.3,0.8L38,80.2c0.1,0.2,0.2,0.5,0.2,0.8C38.2,87.5,29.9,92.6,19.1,92.6z M3,81.3c0.4,4.5,7.6,8.3,16.1,8.3
	s15.7-3.8,16.1-8.3L19.1,53.4L3,81.3z"/>
</svg>
