<svg fill="none" height="40" viewBox="0 0 40 40" width="40" xmlns="http://www.w3.org/2000/svg"><path d="m28.744 28.1624c-1.6866-.0012-3.3039-.6714-4.4969-1.8636-1.1931-1.1922-1.8645-2.8089-1.867-4.4955v-8.8055h-3.1498c-.8956-.0106-1.7843.1567-2.6147.4921-.8305.3353-1.5861.8322-2.2231 1.4617-.637.6296-1.1428 1.3792-1.4879 2.2057-.3452.8264-.5229 1.7131-.5229 2.6087s.1777 1.7823.5229 2.6087c.3451.8264.8509 1.5761 1.4879 2.2056s1.3926 1.1264 2.2231 1.4618c.8304.3354 1.7191.5026 2.6147.492h1.9631v1.5527h-1.9631c-1.0928 0-2.1749-.2152-3.1844-.6334-1.0096-.4182-1.927-1.0312-2.6997-1.8039s-1.3856-1.69-1.8038-2.6996-.6334-2.0916-.6334-3.1844.2152-2.1748.6334-3.1844 1.0311-1.927 1.8038-2.6997 1.6901-1.3856 2.6997-1.8038c1.0095-.4182 2.0916-.6334 3.1844-.6334h4.7025v10.3591c.002 1.2749.5097 2.497 1.4116 3.3981.902.9011 2.1246 1.4076 3.3996 1.4084zm10.256-8.1624c0-10.47634-8.5237-19-19-19-10.47634 0-19 8.52366-19 19 0 10.4763 8.52366 19 19 19 10.4763 0 19-8.5237 19-19zm-1.5527 0c0 9.6206-7.8267 17.4473-17.4473 17.4473s-17.44732-7.8267-17.44732-17.4473 7.82672-17.44732 17.44732-17.44732 17.4473 7.82672 17.4473 17.44732z" fill="#281e35" stroke="#281e35"/></svg>