<svg width="49" height="83" viewBox="0 0 49 83" fill="none" xmlns="http://www.w3.org/2000/svg">
<path d="M15.5202 0.412694C15.4669 0.175429 15.2606 0 15.0174 0H4.59375C2.05762 0 0 1.99091 0 4.44643V78.5536C0 81.0091 2.05762 83 4.59375 83H15.0174C15.2606 83 15.4669 82.8246 15.5202 82.5873C16.4178 78.5863 20.0953 75.5893 24.5 75.5893C28.9047 75.5893 32.5822 78.5863 33.4798 82.5873C33.5331 82.8246 33.7394 83 33.9826 83H44.4062C46.9424 83 49 81.0091 49 78.5536V4.44643C49 1.99091 46.9424 0 44.4062 0H33.9826C33.7394 0 33.5331 0.175429 33.4798 0.412694C32.5822 4.41367 28.9047 7.41071 24.5 7.41071C20.0953 7.41071 16.4178 4.41367 15.5202 0.412694Z" fill="#EC3347"/>
<path d="M30.4683 48.4291C29.3999 48.4283 28.3755 48.0014 27.6198 47.2419C26.8641 46.4824 26.4388 45.4524 26.4372 44.378V38.7683H24.4421C23.8748 38.7616 23.3119 38.8681 22.7858 39.0818C22.2598 39.2955 21.7812 39.612 21.3777 40.013C20.9742 40.4141 20.6538 40.8917 20.4352 41.4182C20.2165 41.9446 20.104 42.5095 20.104 43.0801C20.104 43.6506 20.2165 44.2155 20.4352 44.742C20.6538 45.2685 20.9742 45.7461 21.3777 46.1471C21.7812 46.5482 22.2598 46.8647 22.7858 47.0783C23.3119 47.292 23.8748 47.3985 24.4421 47.3918H25.6855V48.381H24.4421C23.7499 48.381 23.0645 48.2438 22.425 47.9774C21.7855 47.711 21.2044 47.3205 20.7149 46.8283C20.2255 46.336 19.8372 45.7516 19.5724 45.1084C19.3075 44.4653 19.1711 43.7759 19.1711 43.0798C19.1711 42.3836 19.3075 41.6943 19.5724 41.0511C19.8372 40.4079 20.2255 39.8235 20.7149 39.3313C21.2044 38.839 21.7855 38.4485 22.425 38.1821C23.0645 37.9157 23.7499 37.7786 24.4421 37.7786H27.4207V44.378C27.422 45.1902 27.7436 45.9687 28.3149 46.5428C28.8863 47.1169 29.6607 47.4395 30.4683 47.44V48.4291ZM36.9647 43.2292C36.9647 36.5551 31.5656 31.125 24.9296 31.125C18.2936 31.125 12.8945 36.5551 12.8945 43.2292C12.8945 49.9032 18.2936 55.3333 24.9296 55.3333C31.5656 55.3333 36.9647 49.9032 36.9647 43.2292ZM35.9812 43.2292C35.9812 49.3581 31.0235 54.3442 24.9296 54.3442C18.8357 54.3442 13.878 49.3581 13.878 43.2292C13.878 37.1003 18.8357 32.1142 24.9296 32.1142C31.0235 32.1142 35.9812 37.1003 35.9812 43.2292Z" fill="white" stroke="white" stroke-width="0.75"/>
</svg>
