<?xml version="1.0" encoding="UTF-8"?>
<svg width="45px" height="45px" viewBox="0 0 45 45" version="1.1" xmlns="http://www.w3.org/2000/svg" xmlns:xlink="http://www.w3.org/1999/xlink">
    <!-- Generator: Sketch 46 (44423) - http://www.bohemiancoding.com/sketch -->
    <title>brand</title>
    <desc>Created with Sketch.</desc>
    <defs></defs>
    <g id="Page-1" stroke="none" stroke-width="1" fill="none" fill-rule="evenodd">
        <g id="brand" fill-rule="nonzero" fill="#46CCCF">
            <path d="M22.5,0 C10.0764706,0 0,10.0764706 0,22.5 C0,34.9235294 10.0764706,45 22.5,45 C34.9235294,45 45,34.9235294 45,22.5 C45,10.0764706 34.9235294,0 22.5,0 Z M22.5,42.0705882 C11.6911765,42.0705882 2.92058824,33.3088235 2.92058824,22.5 C2.92058824,11.6911765 11.6911765,2.92058824 22.5,2.92058824 C33.3088235,2.92058824 42.0705882,11.6911765 42.0705882,22.5 C42.0705882,33.3088235 33.3088235,42.0705882 22.5,42.0705882 Z" id="Shape"></path>
            <path d="M26.9205882,22.5176471 L26.9205882,11.2676471 L21.0705882,11.2676471 C14.8588235,11.2676471 9.82058824,16.3058824 9.82058824,22.5176471 C9.82058824,28.7294118 14.8588235,33.7676471 21.0705882,33.7676471 L23.9911765,33.7676471 L23.9911765,30.8470588 L21.0705882,30.8470588 C16.4735294,30.8470588 12.75,27.1235294 12.75,22.5176471 C12.75,17.9117647 16.4735294,14.1882353 21.0705882,14.1882353 L23.9911765,14.1882353 L23.9911765,22.5176471 C23.9911765,28.7294118 29.0294118,33.7676471 35.2411765,33.7676471 L35.2411765,30.8470588 C30.6441176,30.8470588 26.9205882,27.1147059 26.9205882,22.5176471 L26.9205882,22.5176471 Z" id="Shape"></path>
        </g>
    </g>
</svg>
