<?xml version="1.0" encoding="utf-8"?>
<!-- Generator: Adobe Illustrator 21.1.0, SVG Export Plug-In . SVG Version: 6.00 Build 0)  -->
<svg version="1.1" id="Layer_1" xmlns="http://www.w3.org/2000/svg" xmlns:xlink="http://www.w3.org/1999/xlink" x="0px" y="0px"
	 viewBox="0 0 16 16" style="enable-background:new 0 0 16 16;" xml:space="preserve">
<style type="text/css">
	.st0{fill:#46CCCF;}
</style>
<path class="st0" d="M14.7,0.5H1.3c-0.5,0-0.8,0.4-0.8,0.8v13.3c0,0.5,0.4,0.8,0.8,0.8h7.2V9.7h-2V7.4h2V5.8c0-1.9,1.2-3,2.9-3
	c0.8,0,1.5,0.1,1.7,0.1v2H12c-0.9,0-1.1,0.4-1.1,1.1v1.4h2.2l-0.3,2.3h-1.9v5.8h3.8c0.5,0,0.8-0.4,0.8-0.8V1.3
	C15.5,0.9,15.1,0.5,14.7,0.5"/>
</svg>
