<svg xmlns="http://www.w3.org/2000/svg" viewBox="0 0 200 200"><defs><style>.cls-1{fill:#3dc1ce;}.cls-2,.cls-3{fill:none;stroke:#3dc1ce;stroke-width:3px;}.cls-2{stroke-miterlimit:10;}.cls-3{stroke-linecap:round;stroke-linejoin:round;}</style></defs><title>party</title><g id="Layer_1" data-name="Layer 1"><path class="cls-1" d="M151,110.51c-3,0-4.5-2.24-5.6-3.88-.88-1.32-1.57-2.24-2.24-2.23a1.84,1.84,0,0,1-2-1.53,1.76,1.76,0,0,1,1.87-1.65c3.19-.09,4.68,2.2,5.81,3.88.89,1.32,1.61,2.2,2.24,2.23s1.26-1,2-2.37c1-1.75,2.27-4.14,5.41-4.24s4.68,2.2,5.81,3.88c.88,1.32,1.54,2.23,2.24,2.23s1.27-1,2-2.37c1-1.75,2.27-4.14,5.41-4.24s4.68,2.2,5.81,3.88c.89,1.32,1.71,2.25,2.25,2.23a1.86,1.86,0,0,1,2,1.53,1.76,1.76,0,0,1-1.87,1.65c-3.14.13-4.68-2.2-5.81-3.88-.89-1.32-1.56-2.2-2.25-2.23s-1.27,1-2,2.37c-1,1.75-2.28,4.14-5.42,4.24s-4.68-2.2-5.81-3.88c-.88-1.32-1.49-2.21-2.24-2.23s-1.26,1-2,2.37c-1,1.75-2.27,4.14-5.41,4.24Z"/><path class="cls-1" d="M81.91,63.83c-1.1,1.35-3.42.57-5.13,0-1.37-.46-2.35-.74-2.58-.44a1.41,1.41,0,0,1-1.95-.08c-.71-.55-1-1.4-.63-1.9,1.09-1.49,3.45-.68,5.2-.1,1.37.45,2.33.69,2.58.44s-.33-1.21-1.14-2.43c-1-1.56-2.45-3.7-1.38-5.17s3.45-.68,5.2-.1c1.37.46,2.33.75,2.58.43s-.32-1.21-1.14-2.44c-1-1.56-2.45-3.7-1.38-5.17s3.45-.68,5.2-.1c1.37.45,2.4.68,2.59.43.33-.49,1.24-.47,1.95.08s1,1.4.63,1.91c-1,1.49-3.46.68-5.2.1-1.37-.45-2.31-.72-2.59-.43s.32,1.21,1.14,2.44c1,1.56,2.45,3.7,1.38,5.17s-3.45.68-5.2.1c-1.37-.46-2.3-.76-2.58-.44s.33,1.21,1.14,2.43c1,1.56,2.45,3.69,1.38,5.17Z"/><path class="cls-2" d="M38.19,151.49,64.9,87.62a2.58,2.58,0,0,1,3.57-1.3c6.75,3.5,25.49,15.07,36.95,40.43a2.58,2.58,0,0,1-1.42,3.44l-62.47,24.7A2.58,2.58,0,0,1,38.19,151.49Z"/><path class="cls-2" d="M46.72,131.08S59.56,133,64.12,146"/><path class="cls-2" d="M105.41,126.75s-27-29.43-46.17-25.6"/><path class="cls-2" d="M84.85,137.76s-10.65-22-32.36-20.46"/><path class="cls-3" d="M109.52,72.78c1.82,22.92-9.61,41-9.61,41S123.94,85.52,144,86"/><path class="cls-2" d="M96.12,72.35l2,3.38a.81.81,0,0,1,0,.81l-2,3.38a.81.81,0,0,1-.7.41H91.51a.81.81,0,0,1-.7-.41l-2-3.38a.81.81,0,0,1,0-.81l2-3.38a.81.81,0,0,1,.7-.41h3.91A.81.81,0,0,1,96.12,72.35Z"/><path class="cls-2" d="M130.91,72.35l2,3.38a.81.81,0,0,1,0,.81l-2,3.38a.81.81,0,0,1-.7.41H126.3a.81.81,0,0,1-.7-.41l-2-3.38a.81.81,0,0,1,0-.81l2-3.38a.81.81,0,0,1,.7-.41h3.91A.81.81,0,0,1,130.91,72.35Z"/><rect class="cls-2" x="119.35" y="109.86" width="7.84" height="7.84" rx="0.76" ry="0.76" transform="translate(116.56 -53.84) rotate(45)"/><circle class="cls-2" cx="138.38" cy="51.06" r="6.15"/></g></svg>