<?xml version="1.0" encoding="UTF-8" standalone="no"?>
<svg width="391px" height="391px" viewBox="0 0 391 391" version="1.1" xmlns="http://www.w3.org/2000/svg" xmlns:xlink="http://www.w3.org/1999/xlink">
    <!-- Generator: Sketch 3.6.1 (26313) - http://www.bohemiancoding.com/sketch -->
    <title>Untitled</title>
    <desc>Created with Sketch.</desc>
    <defs></defs>
    <g id="Page-1" stroke="none" stroke-width="1" fill="none" fill-rule="evenodd">
        <g id="TAW_Logo" transform="translate(8.000000, 8.000000)">
            <g id="Group">
                <path d="M212.2,206 L212.2,115.2 L179.7,115.2 C141.2,115.2 109.9,146.5 109.9,185 C109.9,223.5 141.2,254.8 179.7,254.8 L199.9,254.8 L199.9,270.8 L179.7,270.8 C132.4,270.8 93.9,232.3 93.9,185 C93.9,137.7 132.4,99.2 179.7,99.2 L228.2,99.2 L228.2,206 C228.2,233.3 250.4,255.5 277.8,255.5 L277.8,271.5 C241.6,271.5 212.2,242.1 212.2,206 Z" id="XMLID_11_" fill="#2FBDB7"></path>
                <path d="M187.5,375 C291.053391,375 375,291.053391 375,187.5 C375,83.9466094 291.053391,0 187.5,0 C83.9466094,0 0,83.9466094 0,187.5 C0,291.053391 83.9466094,375 187.5,375 Z" id="Oval-1" stroke="#2FBDB7" stroke-width="16"></path>
            </g>
        </g>
    </g>
</svg>